<svg width="503" height="140" viewBox="0 0 503 140" fill="none" xmlns="http://www.w3.org/2000/svg">
<path d="M49.6955 135.088C20.4013 135.088 0 112.573 0 81.5067C0 50.4399 20.4013 27.9252 49.6955 27.9252C63.122 27.9252 72.8868 32.6376 78.9897 40.8406V30.3687H110.028V132.645H78.9897V122.173C72.8868 130.376 63.122 135.088 49.6955 135.088ZM54.5779 108.559C69.7481 108.559 79.5129 97.2146 79.5129 81.5067C79.5129 65.7988 69.7481 54.4541 54.5779 54.4541C39.7564 54.4541 30.3404 65.7988 30.3404 81.5067C30.3404 97.2146 39.7564 108.559 54.5779 108.559Z" fill="black"/>
<path d="M171.816 135.088C148.102 135.088 131.885 117.809 131.885 89.5352V30.3687H162.923V84.2992C162.923 99.8326 169.2 108.385 180.883 108.385C193.089 108.385 200.413 98.7854 200.413 82.9029V30.3687H231.451V132.645H200.413V122.173C194.31 130.376 184.894 135.088 171.816 135.088Z" fill="black"/>
<path d="M317.466 30.3687V57.0721H297.239V132.645H266.201V57.0721H245.974V30.3687H266.201V0H297.239V30.3687H317.466Z" fill="black"/>
<path d="M378.789 27.9252C410.35 27.9252 433.019 50.4399 433.019 81.5067C433.019 112.573 410.35 135.088 378.789 135.088C347.228 135.088 324.56 112.573 324.56 81.5067C324.56 50.4399 347.228 27.9252 378.789 27.9252ZM378.789 54.4541C364.142 54.4541 354.552 65.7988 354.552 81.5067C354.552 97.2146 364.142 108.559 378.789 108.559C393.437 108.559 403.027 97.2146 403.027 81.5067C403.027 65.7988 393.437 54.4541 378.789 54.4541Z" fill="black"/>
<path d="M503 111.95C503 127.442 490.453 140 474.976 140C459.499 140 446.952 127.442 446.952 111.95C446.952 96.4586 459.499 83.9003 474.976 83.9003C490.453 83.9003 503 96.4586 503 111.95Z" fill="#0039FF"/>
</svg>
