<svg width="427" height="397" viewBox="0 0 427 397" fill="none" xmlns="http://www.w3.org/2000/svg">
<path d="M361.742 92H239.752C235.963 92.4229 233.866 94.7402 233.494 98.9858V169.081C233.866 173.309 235.947 175.627 239.719 176.066H361.775C365.547 175.627 367.628 173.309 368 169.081V98.9858C367.628 94.7571 365.53 92.4229 361.742 92Z" fill="#F7971D"/>
<path d="M255.62 118.673C255.62 120.273 255.56 121.813 255.44 123.293C255.36 124.773 255.28 125.813 255.2 126.413H255.68C256.4 125.293 257.24 124.393 258.2 123.713C259.16 122.993 260.22 122.473 261.38 122.153C262.58 121.793 263.84 121.613 265.16 121.613C267.52 121.613 269.58 122.033 271.34 122.873C273.1 123.713 274.46 125.013 275.42 126.773C276.42 128.533 276.92 130.813 276.92 133.613V154.973H267.98V135.833C267.98 133.473 267.54 131.713 266.66 130.553C265.82 129.353 264.5 128.753 262.7 128.753C260.9 128.753 259.48 129.173 258.44 130.013C257.44 130.853 256.72 132.073 256.28 133.673C255.84 135.273 255.62 137.233 255.62 139.553V154.973H246.68V109.373H255.62V118.673ZM316.174 122.213V154.973H309.334L308.134 150.773H307.654C306.974 151.893 306.094 152.813 305.014 153.533C303.974 154.213 302.814 154.713 301.534 155.033C300.254 155.393 298.934 155.573 297.574 155.573C295.254 155.573 293.214 155.153 291.454 154.313C289.694 153.473 288.334 152.173 287.374 150.413C286.414 148.653 285.934 146.373 285.934 143.573V122.213H294.874V141.353C294.874 143.673 295.294 145.433 296.134 146.633C296.974 147.833 298.314 148.433 300.154 148.433C301.994 148.433 303.414 148.013 304.414 147.173C305.454 146.333 306.174 145.113 306.574 143.513C307.014 141.913 307.234 139.953 307.234 137.633V122.213H316.174ZM334.487 119.993C334.487 121.233 334.447 122.453 334.367 123.653C334.287 124.853 334.207 125.793 334.127 126.473H334.487C335.367 125.113 336.547 123.973 338.027 123.053C339.507 122.093 341.427 121.613 343.787 121.613C347.467 121.613 350.447 123.053 352.727 125.933C355.007 128.773 356.147 132.973 356.147 138.533C356.147 142.253 355.607 145.393 354.527 147.953C353.487 150.473 352.027 152.373 350.147 153.653C348.267 154.933 346.067 155.573 343.547 155.573C341.147 155.573 339.247 155.153 337.847 154.313C336.487 153.433 335.367 152.453 334.487 151.373H333.887L332.387 154.973H325.547V109.373H334.487V119.993ZM340.907 128.753C339.347 128.753 338.107 129.073 337.187 129.713C336.267 130.353 335.587 131.333 335.147 132.653C334.747 133.933 334.527 135.553 334.487 137.513V138.473C334.487 141.633 334.947 144.073 335.867 145.793C336.827 147.473 338.547 148.313 341.027 148.313C342.867 148.313 344.327 147.473 345.407 145.793C346.487 144.073 347.027 141.613 347.027 138.413C347.027 135.213 346.467 132.813 345.347 131.213C344.267 129.573 342.787 128.753 340.907 128.753Z" fill="white"/>
<path d="M118.02 152.973H107.64L97.68 136.773L87.72 152.973H78L92.22 130.893L78.9 110.133H88.92L98.16 125.553L107.22 110.133H117L103.56 131.373L118.02 152.973ZM152.46 136.533C152.46 139.253 152.08 141.673 151.32 143.793C150.6 145.913 149.54 147.713 148.14 149.193C146.78 150.633 145.12 151.733 143.16 152.493C141.2 153.213 138.98 153.573 136.5 153.573C134.22 153.573 132.1 153.213 130.14 152.493C128.22 151.733 126.56 150.633 125.16 149.193C123.76 147.713 122.66 145.913 121.86 143.793C121.1 141.673 120.72 139.253 120.72 136.533C120.72 132.893 121.36 129.833 122.64 127.353C123.92 124.833 125.76 122.913 128.16 121.593C130.56 120.273 133.4 119.613 136.68 119.613C139.76 119.613 142.48 120.273 144.84 121.593C147.2 122.913 149.06 124.833 150.42 127.353C151.78 129.833 152.46 132.893 152.46 136.533ZM129.84 136.533C129.84 138.693 130.06 140.513 130.5 141.993C130.98 143.433 131.72 144.533 132.72 145.293C133.72 146.013 135.02 146.373 136.62 146.373C138.22 146.373 139.5 146.013 140.46 145.293C141.46 144.533 142.18 143.433 142.62 141.993C143.1 140.513 143.34 138.693 143.34 136.533C143.34 134.373 143.1 132.573 142.62 131.133C142.18 129.693 141.46 128.613 140.46 127.893C139.46 127.173 138.16 126.813 136.56 126.813C134.2 126.813 132.48 127.633 131.4 129.273C130.36 130.873 129.84 133.293 129.84 136.533ZM178.148 119.613C178.588 119.613 179.108 119.633 179.708 119.673C180.308 119.713 180.788 119.773 181.148 119.853L180.488 128.253C180.208 128.173 179.788 128.113 179.228 128.073C178.708 127.993 178.248 127.953 177.848 127.953C176.688 127.953 175.568 128.113 174.488 128.433C173.408 128.713 172.428 129.173 171.548 129.813C170.708 130.453 170.028 131.313 169.508 132.393C169.028 133.433 168.788 134.733 168.788 136.293V152.973H159.848V120.213H166.628L167.948 125.733H168.368C169.008 124.613 169.808 123.593 170.768 122.673C171.728 121.753 172.828 121.013 174.068 120.453C175.348 119.893 176.708 119.613 178.148 119.613ZM205.694 119.613C209.214 119.613 212.034 120.573 214.154 122.493C216.274 124.373 217.334 127.413 217.334 131.613V152.973H208.394V133.833C208.394 131.473 207.974 129.713 207.134 128.553C206.294 127.353 204.954 126.753 203.114 126.753C200.394 126.753 198.534 127.693 197.534 129.573C196.534 131.413 196.034 134.073 196.034 137.553V152.973H187.094V120.213H193.934L195.134 124.413H195.614C196.334 123.293 197.214 122.393 198.254 121.713C199.294 120.993 200.454 120.473 201.734 120.153C203.014 119.793 204.334 119.613 205.694 119.613Z" fill="white"/>
<path d="M128.19 267.81C140.395 267.81 150.29 257.915 150.29 245.71C150.29 233.504 140.395 223.61 128.19 223.61C115.984 223.61 106.09 233.504 106.09 245.71C106.09 257.915 115.984 267.81 128.19 267.81Z" fill="#FFBE64"/>
<path d="M131.57 261.706C134.13 261.158 135.616 257.964 134.89 254.573C134.163 251.181 131.499 248.877 128.94 249.425C126.38 249.973 124.894 253.167 125.62 256.558C126.346 259.95 129.01 262.255 131.57 261.706Z" fill="#E39B42"/>
<path d="M136.11 246.36C138.872 246.36 141.11 244.121 141.11 241.36C141.11 238.599 138.872 236.36 136.11 236.36C133.349 236.36 131.11 238.599 131.11 241.36C131.11 244.121 133.349 246.36 136.11 246.36Z" fill="white"/>
<path d="M119.461 249.876C122.22 249.747 124.351 247.406 124.222 244.648C124.093 241.89 121.752 239.758 118.994 239.887C116.235 240.016 114.104 242.357 114.233 245.116C114.362 247.874 116.703 250.005 119.461 249.876Z" fill="white"/>
<path d="M138.841 241.846C139.117 240.324 138.108 238.867 136.586 238.591C135.064 238.314 133.607 239.324 133.331 240.845C133.055 242.367 134.064 243.824 135.586 244.1C137.107 244.377 138.565 243.367 138.841 241.846Z" fill="#E39B42"/>
<path d="M119.18 247.79C120.726 247.79 121.98 246.536 121.98 244.99C121.98 243.444 120.726 242.19 119.18 242.19C117.634 242.19 116.38 243.444 116.38 244.99C116.38 246.536 117.634 247.79 119.18 247.79Z" fill="#E39B42"/>
<path d="M425.587 49.1889C430.814 32.5204 421.538 14.7707 404.87 9.54387C388.201 4.31709 370.452 13.5925 365.225 30.261C359.998 46.9295 369.273 64.679 385.942 69.9058C402.61 75.1326 420.36 65.8574 425.587 49.1889Z" fill="#FFBE64"/>
<path d="M389.23 60.21C397.2 62.53 405.54 57.96 407.87 49.99L379.01 41.5699C376.69 49.5399 381.26 57.88 389.23 60.21Z" fill="#E39B42"/>
<path d="M389.47 37.6999C389.01 37.5599 388.74 37.08 388.87 36.61C389.8 33.44 387.97 30.1 384.79 29.17C381.62 28.24 378.28 30.07 377.35 33.25C377.21 33.71 376.73 33.98 376.26 33.85C375.8 33.71 375.53 33.23 375.66 32.76C376.86 28.66 381.17 26.29 385.27 27.49C389.37 28.69 391.74 33 390.54 37.1C390.4 37.56 389.92 37.8299 389.45 37.6999H389.47Z" fill="#E39B42"/>
<path d="M414.32 44.9499C413.86 44.8099 413.59 44.33 413.72 43.86C414.65 40.69 412.82 37.35 409.64 36.42C406.47 35.49 403.13 37.32 402.2 40.5C402.06 40.96 401.58 41.23 401.11 41.1C400.65 40.96 400.38 40.48 400.51 40.01C401.71 35.91 406.02 33.54 410.12 34.74C414.22 35.94 416.59 40.25 415.39 44.35C415.25 44.81 414.77 45.0799 414.3 44.9499H414.32Z" fill="#E39B42"/>
<path d="M49.4599 11.67C40.7199 5.85001 29.82 7.43003 33.24 19.31C36.74 31.47 55.23 35.93 55.23 35.93C55.23 35.93 69.7399 23.6299 67.3899 11.1899C65.0999 -0.95009 54.6499 2.54 49.4599 11.66V11.67Z" fill="#FF7869"/>
<path d="M42.3701 125.85L13.9099 125.7C12.6299 125.7 11.85 127.1 12.53 128.18L17.1699 135.59C12.4199 140.25 8.65001 146.03 6.56001 152.31C4.81001 157.54 4.20984 163.11 5.13984 168.64L6.24995 168.65C7.19995 163.63 9.44004 159.06 12.59 155.22C15.64 151.5 19.5499 148.48 23.9699 146.42L28.7199 154C29.3999 155.08 31 154.99 31.55 153.84L43.83 128.16C44.34 127.09 43.5698 125.85 42.3798 125.84L42.3701 125.85Z" fill="#87AFD9"/>
<path d="M0.159912 364.23C0.159912 337.61 95.5901 332.03 213.31 332.03C331.03 332.03 425.37 334.36 426.46 364.23C427.55 394.11 331.03 396.43 213.31 396.43C95.5901 396.43 0.159912 390.85 0.159912 364.23Z" fill="#FDD69B"/>
<path d="M111.21 366.25C106.3 367.62 84.2199 365.92 82.4599 370.7C80.6899 375.48 98.51 377.85 102.56 376.88C102.92 379.35 104.5 385.92 118.12 389.69C128.01 391.47 144.22 390.44 159.2 387.89C184.68 383.57 210.48 375.68 223.58 375.68C252.72 375.68 320.91 374.29 313.89 363.68C300.3 343.17 156.65 366.25 111.22 366.25H111.21Z" fill="#F5C489"/>
<path d="M260.8 216.78C260.8 216.78 250.32 204.6 236.04 218.65C221.75 232.7 210.62 261.15 204.85 270.6C199.08 280.05 209.67 288.6 219.12 282.69C228.57 276.78 247.77 247.74 254.25 240.09C260.73 232.44 265.83 223.34 260.8 216.77V216.78Z" fill="#DE9681"/>
<path d="M258.64 211.93C258.64 211.93 265.2 217.55 263.2 226.79C261.2 236.02 232.69 272.02 225.7 278.41C218.72 284.8 212.22 288.12 206.09 284.12C199.96 280.12 202.32 273.14 204.45 268.71C206.58 264.28 222.41 233.86 226.84 227.24C231.27 220.62 246.62 203.49 258.63 211.92L258.64 211.93Z" fill="#E3EBFF"/>
<path d="M206.11 284.12C199.98 280.12 202.34 273.14 204.47 268.71C206.6 264.28 222.43 233.86 226.86 227.24C227.7 225.98 228.95 224.33 230.48 222.56L236.88 234.79L241.01 220.28L252.12 245.74C242.68 259.04 230.05 274.43 225.71 278.4C218.73 284.79 212.23 288.11 206.1 284.11L206.11 284.12Z" fill="#C9D5F2"/>
<path d="M221.44 262.39L223.35 262.08L228.51 275.55C227.39 276.77 226.44 277.75 225.72 278.41C220.9 282.82 216.31 285.77 211.91 285.86C209.64 284.1 208.81 281.52 208.81 281.52L219.36 278.85C219.36 278.85 222.14 270.5 221.45 262.39H221.44Z" fill="#E3EBFF"/>
<path d="M212.65 284.27C212.65 284.27 219.28 282.54 218.71 274.02C218.13 265.5 209.47 222.64 208.15 220.96C206.83 219.28 198.28 215.77 198.1 220.67C197.84 227.62 195.98 269.52 199.95 277.49C202.58 282.78 207.44 286.25 212.66 284.27H212.65Z" fill="#DE9681"/>
<path d="M199.81 227.89C199.81 227.89 197.36 219.92 196.99 218.62C196.62 217.32 195.08 212.67 195.33 210.9C195.57 209.26 196.32 207.86 196.32 207.86C196.32 207.86 194.99 205.59 195.7 204.45C195.7 204.45 194.72 201.68 195.84 200.59C195.84 200.59 196.14 197.59 196.83 196.58C197.53 195.57 204.35 195.31 204.35 195.31C204.35 195.31 206.78 206.32 207.29 210.42C207.81 214.51 209.27 219.71 208.13 221.9C206.98 224.09 199.78 227.9 199.78 227.9L199.81 227.89Z" fill="#DE9681"/>
<path d="M207.32 210.42C207.84 214.51 209.3 219.71 208.16 221.9C207.94 222.33 207.48 222.82 206.89 223.33C204.83 221.48 203.24 218.84 203.09 216.83C202.91 214.37 203.85 214.02 202.8 212.13C201.75 210.25 202.39 206.64 202.39 206.64C201 204.53 202.82 201.81 202.24 199.8C201.79 198.22 202.59 196.18 202.95 195.39C203.79 195.33 204.38 195.31 204.38 195.31C204.38 195.31 206.81 206.32 207.32 210.42Z" fill="#D48770"/>
<path d="M213.52 242.32C213.52 242.32 219.66 262.58 220.25 273.16C220.84 283.74 217.22 286.18 209.86 286.49C202.5 286.8 198.91 276.95 198.3 273C197.69 269.05 196.79 249.32 197.48 243.88C197.48 243.88 207.06 244.26 213.52 242.32Z" fill="#E3EBFF"/>
<path d="M214.88 247.05C214.08 244.18 213.52 242.32 213.52 242.32C207.06 244.26 197.48 243.88 197.48 243.88C197.32 245.18 197.24 247.3 197.23 249.82C198.42 250.06 200.05 250.24 202.1 250.04C205.7 249.7 211.93 248.6 214.88 247.05Z" fill="#B7C5E8"/>
<path d="M212.05 238.42C212.05 238.42 213.43 237.9 214.13 238.32C214.83 238.74 215.07 240.88 215.57 241.4C216.06 241.92 216.27 243.7 214.97 244.93C213.67 246.16 201.47 249.08 198.01 248.41C194.55 247.74 195.82 245.4 195.64 244.49C195.46 243.57 196.46 240.69 198.26 241.35C200.07 242.01 204.42 241.61 212.05 238.42Z" fill="#E3EBFF"/>
<path d="M289.52 357.47C289.52 357.47 301.79 343.77 293.14 329.69C284.5 315.61 206.33 266.45 196.78 262.36C187.22 258.28 166.54 272.83 176.92 286.43C187.3 300.03 242.2 353.12 251.24 359.13C260.28 365.13 275.87 370.12 289.52 357.47Z" fill="#DE9681"/>
<path d="M294.24 354.32C294.24 354.32 278.9 373.6 255.54 363.21C232.18 352.82 193.33 307.34 183.57 296.97C173.81 286.6 172.58 274.3 179.6 266.48C186.63 258.66 197.25 258.76 204.92 263.16C212.59 267.56 253.18 296.71 267.01 304.51C280.85 312.3 307.86 329.84 294.23 354.33L294.24 354.32Z" fill="#87AFD9"/>
<path d="M280.78 363.99C283.34 360.5 284.82 356.64 284.93 353.21C285.42 337.86 261.55 306.19 261.55 306.19C261.55 306.19 252.56 310.41 250.22 310.34C247.88 310.26 224.06 297.97 216.43 296.06C209.28 294.26 200.69 300.94 193.13 307.36C194.22 308.55 195.39 309.86 196.59 311.27C212.79 328.95 238.35 355.58 255.54 363.22C265.66 367.72 274.27 366.65 280.78 364V363.99Z" fill="#6E99C4"/>
<path d="M180.01 265.45C180.01 265.45 123.05 350.07 120.11 355.38C117.17 360.68 123.98 372.64 132.74 365.04C141.51 357.44 155.27 343.22 164.29 334.77C173.33 326.3 196.59 297.72 202.66 284.8C208.73 271.89 192.33 252.36 180 265.45H180.01Z" fill="#DE9681"/>
<path d="M128.02 344.4C128.02 344.4 126.51 349.24 113.9 353.53C107.82 356.08 85.7099 358.65 83.9799 364.63C82.2499 370.6 96.39 370.88 102.12 370.93C103.98 370.95 105.86 370.2 107.89 369.9C112.13 369.27 116.8 368.84 121.78 369.02C129.14 369.29 137.88 371 139.19 366.45C139.53 365.27 139.43 362.01 139.01 360.32C140.13 357.26 141.59 354.07 143.88 351.22C150.28 343.25 135.08 334.27 128.01 344.42L128.02 344.4Z" fill="#DE9681"/>
<path d="M145.31 351.39C145.24 351.36 145.16 351.34 145.09 351.3C142.77 350.18 140.48 349.02 138.31 347.63C137.29 346.98 136.34 346.21 135.33 345.53C134.31 344.85 133.34 344.11 132.33 343.42C131.28 342.7 130.26 341.95 129.24 341.18C128.41 341.88 127.64 342.7 126.97 343.66L126.81 343.98C126.81 343.98 125.08 348.37 113.4 352.34C111.6 353.09 108.08 353.91 104.34 354.77C92.9001 357.41 84.0501 359.78 82.7501 364.26C82.3501 365.63 82.5702 366.93 83.3702 368.01C86.0302 371.58 94.7701 372.11 102.09 372.18C102.13 372.18 102.16 372.18 102.2 372.18C103.45 372.18 104.68 371.88 105.86 371.6C106.58 371.43 107.33 371.25 108.06 371.14C113.05 370.4 117.52 370.12 121.71 370.27C123.1 370.32 124.54 370.42 125.97 370.53C132.4 370.99 139.04 371.46 140.39 366.79C140.79 365.39 140.68 362.23 140.31 360.39C141.61 356.9 143.06 354.22 144.85 351.99C145.01 351.79 145.14 351.59 145.28 351.38L145.31 351.39Z" fill="#F5F5F5"/>
<path d="M205.31 270.35C205.31 270.35 211.18 283.89 195.47 302.33C178.63 322.09 146.65 358.4 146.65 358.4C146.65 358.4 128.61 352.71 122.36 340.66C122.36 340.66 173 271.67 179.83 265C187.03 257.98 201.42 258.09 205.32 270.36L205.31 270.35Z" fill="#87AFD9"/>
<path d="M195.46 302.33C211.17 283.9 212.35 278.41 212.35 278.41C211.48 275.69 210.4 270.09 208.7 268.51C204.24 263.46 197.72 265.9 196.02 267.81C187.22 277.73 132.52 350.6 132.52 350.6C132.76 351.03 133.01 351.46 133.27 351.87C139.93 356.26 146.65 358.38 146.65 358.38C146.65 358.38 178.63 322.07 195.47 302.32L195.46 302.33Z" fill="#6E99C4"/>
<path d="M249.22 294.02C249.22 294.02 248.12 308.15 247.28 316.58C246.44 325.02 241.69 345.15 262.16 360.81C280.62 374.94 301.8 367.08 306.43 362.16C313.52 354.64 315.94 342.73 315.18 330.12C314.42 317.51 310.56 304.59 314.92 284.56C319.28 264.53 251.54 256.57 249.22 294.01V294.02Z" fill="#DE9681"/>
<path d="M315.53 351.1C315.53 351.1 317.21 344.84 317.34 338.7C317.47 332.56 315.03 316.71 314.6 314.31C314.18 311.91 313.76 306.92 313.65 306.5C313.54 306.08 283.6 307.91 266.86 305.79C250.13 303.67 249.11 302.08 248.64 302.02C248.16 301.96 245.47 321.29 244.85 326.19C244.23 331.09 246.19 353.93 263.59 363.3C280.98 372.67 304.88 374.81 315.54 351.1H315.53Z" fill="#6E99C4"/>
<path d="M263.36 206.86C255.3 208.47 249.14 209.37 245.47 214.86C237.97 226.07 243.61 248.16 244.85 265.54C245.59 275.83 247.54 291.22 248.58 296.67C249.61 302.12 274.11 310.09 288.92 307.47C300.27 305.46 311.94 307.47 313.16 297C314.59 284.65 315.3 271.08 316.33 259.86C317.68 245.13 315.06 223.34 304.87 212.16C301.7 208.68 296.54 205.8 292.16 204.84C278.18 201.78 274.83 204.57 263.37 206.86H263.36Z" fill="#DE9681"/>
<path d="M258.64 193.49C258.64 193.49 260.72 204.25 259.11 209.58C257.5 214.92 266.19 216.7 271.52 215.81C276.85 214.92 286.38 212.67 285.11 206.21C283.8 199.51 281.58 200.24 278.88 182.95C276.74 169.27 255.02 180.26 258.64 193.49Z" fill="#DE9681"/>
<path d="M259.55 207.44C260.15 201.76 258.64 193.49 258.64 193.49C255.76 182.99 269.22 173.85 275.67 177.42C276.15 178.91 276.53 180.61 276.79 182.55C276.93 183.56 270.13 204 259.55 207.45V207.44Z" fill="#D48770"/>
<path d="M235.13 156.58C235.13 156.58 234.14 164.88 237.37 174.24L241.07 155.73L235.12 156.58H235.13Z" fill="#17254D"/>
<path d="M255.52 139C255.52 139 238.45 141.52 237.03 157.03C235.6 172.53 239.77 199.98 250 202.13C259.34 204.09 272.54 193.43 277.61 183.46C282.95 172.97 284.04 160.09 279.54 150.83C275.6 142.72 268.95 137.09 255.52 139.01V139Z" fill="#DE9681"/>
<path d="M253.55 173.22C253.55 174.45 254.31 175.43 255.23 175.43C256.15 175.43 256.89 174.42 256.88 173.2C256.88 171.97 256.12 170.99 255.2 170.99C254.28 170.99 253.54 172 253.55 173.22Z" fill="#121D3F"/>
<path d="M240.64 174.02C240.64 175.25 241.4 176.23 242.32 176.23C243.24 176.23 243.98 175.22 243.97 174C243.97 172.77 243.21 171.79 242.29 171.79C241.37 171.79 240.63 172.8 240.64 174.02Z" fill="#121D3F"/>
<path d="M255.26 189.13C255.75 189.11 255.96 189.74 255.56 190.02C254.42 190.84 252.53 191.92 250.34 192.13C247.56 192.4 245.72 191.18 244.78 190.31C244.46 190.01 244.66 189.47 245.1 189.46L255.25 189.13H255.26Z" fill="white"/>
<path d="M249.23 184.05C249.64 184.01 249.95 183.97 250.03 183.95C250.35 183.9 250.57 183.6 250.52 183.28C250.47 182.96 250.17 182.74 249.85 182.79C249.08 182.91 247.63 183.01 247.01 182.77C246.98 182.76 246.96 182.75 246.95 182.74C246.93 182.57 247.07 182.07 247.2 181.63L247.24 181.49C249.33 174.25 248.42 172.14 248.39 172.02C248.31 171.71 247.99 171.52 247.68 171.59C247.37 171.67 247.18 171.99 247.25 172.3C247.26 172.35 248.09 174.33 246.11 181.16L246.07 181.3C245.74 182.44 245.46 183.42 246.58 183.85C247.31 184.13 248.45 184.1 249.23 184.03V184.05Z" fill="#CC7A66"/>
<path d="M251.45 166.28C251.45 166.28 250.58 166.32 250.64 166.89C250.69 167.46 250.97 168.71 251.35 168.83C251.73 168.94 256.15 168.31 257.87 168.16C259.59 168.01 262.37 168.14 262.48 167.93C262.59 167.72 261.41 166.77 259.4 166.46C257.7 166.19 253.7 165.89 251.45 166.29V166.28Z" fill="#17254D"/>
<path d="M237.74 169.39C237.74 169.39 236.73 169.69 236.62 169.08C236.48 168.32 239.27 167.02 244 166.78C245.39 166.78 245.42 168.42 245.16 169.21C244.91 169.94 242.76 168.82 237.74 169.39Z" fill="#17254D"/>
<path d="M252.87 180.36C252.87 180.36 253.57 178.39 258.2 178.12C261.96 177.9 264.84 178.24 264.99 180.58C265.48 183.6 251.26 185.2 252.87 180.36Z" fill="#D48770"/>
<path d="M244.93 182.18C244.81 183.67 241.65 184.35 239.18 184.75C238.76 183 238.4 181.19 238.09 179.35C241.25 179.29 244.99 179.61 244.93 182.18Z" fill="#D48770"/>
<path d="M268.12 152.9C268.12 152.9 267.23 157.1 267.46 159.68C267.69 162.26 267.71 165.99 270.7 169.48C273.69 172.97 273.09 173.24 274.24 177.28C275.39 181.31 280.28 190.85 280.4 191.65C280.52 192.45 281.77 191.35 283.12 185.59C284.47 179.83 286.31 167.04 285.77 157.04C285.23 147.05 275.16 137.78 265.67 137.6C265.67 137.6 256.36 134.36 248.05 138.7C239.74 143.04 233.87 149.05 235.03 157.99L236.92 157.89C236.92 157.89 237.18 154.92 237.61 154.61C239.58 153.18 241.97 152.7 243.98 153.77C243.98 153.77 251.96 157.42 255.84 156.63C255.84 156.63 263.82 156.5 268.13 152.9H268.12Z" fill="#17254D"/>
<path d="M270.41 174.38C270.41 174.38 269.74 166.34 274.53 165.86C279.32 165.38 279.89 172.11 277.18 176.75C275.66 179.35 271.14 182.85 270.41 174.38Z" fill="#DE9681"/>
<path d="M276.4 171.35C275.45 171.27 274.64 171.68 274.05 172.12C274.31 171.22 274.82 170.39 275.77 169.97C276.01 169.86 276.12 169.57 276.01 169.33C275.9 169.09 275.62 168.98 275.37 169.09C271.99 170.6 272.91 175.63 272.95 175.85C273 176.11 273.25 176.28 273.52 176.23C273.79 176.17 273.95 175.92 273.91 175.66C273.91 175.64 273.75 174.78 273.8 173.72C273.8 173.72 273.82 173.71 273.83 173.7C273.84 173.69 274.95 172.2 276.32 172.32C276.59 172.34 276.82 172.15 276.85 171.88C276.87 171.61 276.68 171.38 276.41 171.35H276.4Z" fill="#CC7A66"/>
<path d="M284.17 202.73C284.17 202.73 267.89 215.64 263.23 214.22C259.68 213.14 259.44 209.8 259.51 208.26C259.53 207.78 259.54 207.44 259.54 207.44C259.54 207.44 252.13 208.02 248.37 209.34C244.61 210.66 242.29 212.25 242.29 212.25C242.29 212.25 239.25 225.68 238.72 237.5C238.19 249.32 239.57 278.78 239.48 288.17C239.4 297.56 236.83 304.69 235.5 306.46C234.17 308.23 229.41 308.73 229.41 308.73C229.41 308.73 231.07 311.98 243.56 318.12C256.05 324.26 276.05 326.66 288.36 327.67C300.67 328.68 318.15 325.91 318.15 325.91C318.15 325.91 316.91 301.11 317.58 290.42C318.24 279.73 319.02 248.23 317.17 236.67C315.32 225.11 311.01 214.25 306.71 210.56C298.9 203.86 284.17 202.73 284.17 202.73Z" fill="#E3EBFF"/>
<path d="M259.52 208.26C259.45 209.8 259.68 213.14 263.24 214.22C267.9 215.64 284.18 202.73 284.18 202.73C284.18 202.73 285.11 202.8 286.62 203.01C284.94 204.28 281.43 206.98 278.98 209.12C275.67 212.02 266.26 217.92 261.91 215.89C257.74 213.95 257.77 210.85 258.42 207.54C259.12 207.47 259.56 207.44 259.56 207.44C259.56 207.44 259.55 207.78 259.53 208.26H259.52Z" fill="#C9D5F2"/>
<path d="M229.42 308.73C229.42 308.73 234.18 308.23 235.51 306.46C236.84 304.69 239.4 297.56 239.49 288.17C239.57 279.19 238.31 251.84 238.67 239.14L240.74 241.26C240.74 241.26 246.75 241.84 246.68 243.85C246.61 245.87 249.54 248.26 249.04 249.58C248.55 250.9 247.91 253.03 247.91 253.03L250.81 256.34C250.81 256.34 270.9 230.15 280.09 224.49C289.28 218.84 307.43 238.46 307.43 238.46C307.43 238.46 295.82 266.1 288.1 276.17C280.37 286.24 274.74 292.9 276.23 297.14C277.72 301.38 286.24 302.46 286.52 308.95C286.8 315.43 284.14 318.97 281.72 320.68C279.99 321.9 289.47 325.75 298.56 327.65C295.15 327.86 291.64 327.91 288.39 327.65C276.08 326.64 256.07 324.24 243.59 318.1C231.1 311.96 229.44 308.71 229.44 308.71L229.42 308.73Z" fill="#C9D5F2"/>
<path d="M311.45 347.99C311.45 347.99 322.35 330.26 297.93 314.1C273.51 297.94 235.22 277.99 224.17 275.92C213.12 273.85 194.8 293.26 210.8 308.56C226.8 323.86 246.54 338.55 264.96 353.91C287.31 372.56 302.13 363.39 311.45 347.99Z" fill="#DE9681"/>
<path d="M310.14 358.71C310.14 358.71 297.46 371.73 279.33 364.65C261.2 357.58 244.03 342.85 220.17 322.88C200.18 306.14 188.82 298.22 195.22 281.76C201.62 265.3 215.59 265.38 221.08 267.74C226.58 270.1 273.78 296.53 286.08 303.37C298.38 310.21 312.45 321.8 316.13 334.41C320.3 348.71 310.14 358.71 310.14 358.71Z" fill="#87AFD9"/>
<path d="M203.09 216.82L220.04 219.27C221.26 219.45 222.31 218.4 222.15 217.18L217.35 181.83C217.24 181.01 216.59 180.36 215.77 180.24L198.27 177.71C197.68 177.63 197.18 178.12 197.26 178.71L202.33 216.05C202.38 216.44 202.69 216.75 203.09 216.81V216.82Z" fill="#0E1E3D"/>
<path d="M202.33 216.06L197.26 178.72C197.18 178.13 197.68 177.63 198.27 177.72L213.78 179.96C214.6 180.08 215.25 180.73 215.36 181.55L220.16 216.9C220.33 218.12 219.27 219.17 218.05 218.99L203.09 216.83C202.7 216.77 202.39 216.46 202.33 216.07V216.06Z" fill="#17254D"/>
<path d="M301.12 222.85C301.12 222.85 291.8 211.89 278.64 227C265.48 242.12 248.32 273.71 243.3 283.58C238.28 293.45 249.5 301.16 258.47 294.53C267.43 287.9 292.59 255.1 298.46 246.97C304.33 238.84 306.64 229.01 301.12 222.85Z" fill="#DE9681"/>
<path d="M301.74 217.85C301.74 217.85 312.1 223.31 307.42 238.47C302.74 253.63 261.41 296.2 254.37 299.45C247.33 302.7 235.94 296.56 237.69 287.11C239.44 277.66 257.8 254.22 268.11 236.8C279.36 217.78 290.7 211.2 301.74 217.85Z" fill="#E3EBFF"/>
<path d="M245.55 271.34C248.04 267.38 250.92 263.08 253.87 258.69C256.25 261.1 261.82 268.9 258.41 287.12L245.55 271.35V271.34Z" fill="#E3EBFF"/>
<path d="M254.24 296.97C254.24 296.97 246.58 300.02 240.33 293.58C231.89 284.88 218.01 233.29 217.09 226.24C216.17 219.18 224.12 217.84 226.91 221.56C229.7 225.29 253.78 269.48 255.98 277.28C258.18 285.08 259.06 294.34 254.24 296.97Z" fill="#DE9681"/>
<path d="M228.26 223.69C228.26 223.69 226.87 217.95 226.88 212.13C226.88 206.31 226.78 203.25 225.66 201.43C224.54 199.61 219.24 195.78 219.24 195.78L219.76 199.57C219.76 199.57 220.73 200.99 219.26 201.61C217.79 202.23 207.33 196.01 205.55 194.92C203.77 193.83 203.22 199.57 204.11 201.08C204.11 201.08 202.48 204.72 203.83 206.86C203.83 206.86 202.51 210.27 204.4 212.48C204.4 212.48 203.97 215.46 205.13 217.02C206.29 218.57 213.85 221.88 215.47 224.05C217.1 226.22 216.59 227.81 218.33 231.11C220.07 234.41 230.97 233.77 228.27 223.68L228.26 223.69Z" fill="#DE9681"/>
<path d="M204.13 201.04C206.25 202.16 208.62 203.52 210.77 204.57C211.58 204.92 212.47 205.18 213.28 205.61C213.33 205.63 213.32 205.71 213.27 205.71C211.09 206.05 209.94 205.55 208.26 204.22C206.87 203.26 205.4 202.16 204.08 201.12C204.03 201.08 204.08 201 204.14 201.03L204.13 201.04Z" fill="#CC7A66"/>
<path d="M203.84 206.82C205.67 207.32 207.44 208.12 209.22 208.7C210.31 209.01 211.34 209.31 212.42 209.79C212.47 209.81 212.46 209.88 212.42 209.89C210.09 210.46 208.73 209.71 206.82 208.56C205.84 208.02 204.77 207.45 203.8 206.91C203.75 206.88 203.78 206.79 203.84 206.81V206.82Z" fill="#CC7A66"/>
<path d="M204.41 212.44C206.66 212.95 208.89 213.69 211.14 214.17C211.46 214.21 211.8 214.23 212.16 214.26C212.19 214.26 212.21 214.29 212.21 214.32C210.91 215.56 209.48 214.97 208.09 214.27C206.87 213.74 205.55 213.14 204.37 212.54C204.32 212.51 204.35 212.43 204.41 212.44Z" fill="#CC7A66"/>
<path d="M212.32 217.44C212.4 215.98 212.56 215.54 213.35 214.46C214.72 213.09 213.04 211.76 213.91 210.05C215.95 208.52 213.62 207.18 214.99 205.89C217.31 205.54 217.66 202.66 217.69 201.36C218.4 201.61 218.93 201.72 219.2 201.63C221.26 202.92 224.82 205.33 225.87 207.2C226.17 207.74 226.51 208.43 226.85 209.2C226.86 210.1 226.87 211.06 226.87 212.14C226.87 214.55 227.1 216.93 227.38 218.91C225.35 225.67 215.87 224.69 215.45 224.06C214.75 223.12 212.94 221.97 211.01 220.84C212.5 219.62 212.22 218.9 212.31 217.44H212.32Z" fill="#D48770"/>
<path d="M242.47 247.92C242.47 247.92 253.03 264.92 255.26 272.02C257.49 279.12 263.7 294.09 254.36 299.45C245.02 304.81 238.8 295.73 236.57 291.58C234.33 287.43 225.67 261.27 224.73 257.1C224.73 257.1 237.23 254.45 242.47 247.93V247.92Z" fill="#E3EBFF"/>
<path d="M245.57 253.05C243.78 250.02 242.48 247.92 242.48 247.92C237.23 254.44 224.74 257.09 224.74 257.09C224.93 257.93 225.43 259.66 226.13 261.91C230.12 261.21 239.6 259 245.58 253.05H245.57Z" fill="#B7C5E8"/>
<path d="M240.23 245.25C240.23 245.25 241.64 244.32 242.52 244.62C243.4 244.92 244.22 247.23 244.9 247.68C245.58 248.13 246.26 250.06 245.12 251.76C243.98 253.46 229.46 260.46 225.47 259.96C221.48 259.45 223.21 257.46 222.78 256.49C222.35 255.51 221.65 252.29 223.83 252.57C226.01 252.85 232.54 250.73 240.23 245.25Z" fill="#E3EBFF"/>
<path d="M199.94 275.48C199.94 275.48 144.31 361.47 141.94 367.56C139.56 373.65 145.27 381.77 154.03 374.7C162.8 367.62 187.18 340.15 196.12 331.21C214.79 312.52 222.81 297.95 225.28 289.09C228.29 278.28 215.86 255.11 199.94 275.48Z" fill="#DE9681"/>
<path d="M158.21 369.63C158.69 368.82 159.02 367.9 159.14 366.91C159.59 363.13 156.89 359.7 153.12 359.25C151.48 359.05 149.9 359.45 148.6 360.28C148.6 360.28 130.5 367.54 120.88 370.2C111.26 372.86 107.76 374.01 106.59 376.34C105.42 378.67 113.34 386.03 120.23 386.52C127.12 387.01 134.24 384.32 140.4 385.29C146.56 386.25 154.51 384.99 156.56 381.87C158.61 378.75 158.38 373.26 158.21 369.64V369.63Z" fill="#DE9681"/>
<path d="M147.66 355.5L145.51 360.39C144.24 360.9 129.94 367.03 120.7 369.59C110.86 372.31 107.3 373.49 106.01 376.05C105.67 376.73 105.8 377.62 106.41 378.7C108.21 381.88 114.47 386.75 120.17 387.15C123.49 387.38 126.85 386.9 130.1 386.43C133.72 385.91 137.13 385.42 140.29 385.91C142.89 386.31 145.82 386.34 148.52 385.99C152.37 385.49 155.76 384.23 157.08 382.22C159.23 378.96 160.48 374.45 160.31 370.76C163.03 367.51 164.89 364.11 164.89 364.11L147.66 355.51V355.5Z" fill="white"/>
<path d="M227.34 297.5C227.34 297.5 197.85 342.58 167.97 371.23C167.97 371.23 147.56 367.44 139.78 353.18C139.78 353.18 194.49 280.3 203.28 270.39C212.08 260.47 223.72 268.54 226.44 272.77C229.16 277 234.07 287.41 227.34 297.51V297.5Z" fill="#87AFD9"/>
</svg>
