<svg width="471" height="408" viewBox="0 0 471 408" fill="none" xmlns="http://www.w3.org/2000/svg">
<path d="M280 19.18V91.6C280 101.96 271.6 110.37 261.24 110.37H107.49L71.23 126.03C64.55 128.91 57.1 124.02 57.1 116.74V19.19C57.1 8.83 65.5 0.419983 75.86 0.419983H261.24C271.6 0.419983 280 8.81999 280 19.18Z" fill="#719CC9"/>
<path d="M173.24 23.55H110.06C108.503 23.55 107.24 24.8126 107.24 26.37V32.26C107.24 33.8175 108.503 35.08 110.06 35.08H173.24C174.797 35.08 176.06 33.8175 176.06 32.26V26.37C176.06 24.8126 174.797 23.55 173.24 23.55Z" fill="white"/>
<path d="M210.89 50.98H81.1C79.5425 50.98 78.28 52.2425 78.28 53.8V59.69C78.28 61.2474 79.5425 62.51 81.1 62.51H210.89C212.447 62.51 213.71 61.2474 213.71 59.69V53.8C213.71 52.2425 212.447 50.98 210.89 50.98Z" fill="#87AFD9"/>
<path d="M203.9 64.36H81.1C79.5425 64.36 78.28 65.6225 78.28 67.18V73.07C78.28 74.6274 79.5425 75.89 81.1 75.89H203.9C205.457 75.89 206.72 74.6274 206.72 73.07V67.18C206.72 65.6225 205.457 64.36 203.9 64.36Z" fill="#87AFD9"/>
<path d="M246.33 77.73H81.1C79.5425 77.73 78.28 78.9925 78.28 80.55V86.44C78.28 87.9974 79.5425 89.26 81.1 89.26H246.33C247.887 89.26 249.15 87.9974 249.15 86.44V80.55C249.15 78.9925 247.887 77.73 246.33 77.73Z" fill="#87AFD9"/>
<path d="M88.33 39.34C93.411 39.34 97.53 35.221 97.53 30.14C97.53 25.059 93.411 20.94 88.33 20.94C83.2489 20.94 79.13 25.059 79.13 30.14C79.13 35.221 83.2489 39.34 88.33 39.34Z" fill="white"/>
<path d="M212.58 142.88V215.3C212.58 225.66 220.98 234.07 231.34 234.07H385.09L421.35 249.73C428.03 252.61 435.48 247.72 435.48 240.44V142.89C435.48 132.53 427.08 124.12 416.72 124.12H231.34C220.98 124.12 212.58 132.52 212.58 142.88Z" fill="#E6E6E6"/>
<path d="M243.81 163.12C248.891 163.12 253.01 159.001 253.01 153.92C253.01 148.839 248.891 144.72 243.81 144.72C238.729 144.72 234.61 148.839 234.61 153.92C234.61 159.001 238.729 163.12 243.81 163.12Z" fill="#719CC9"/>
<path d="M300.68 148.16H262.36C260.803 148.16 259.54 149.423 259.54 150.98V156.87C259.54 158.427 260.803 159.69 262.36 159.69H300.68C302.237 159.69 303.5 158.427 303.5 156.87V150.98C303.5 149.423 302.237 148.16 300.68 148.16Z" fill="#719CC9"/>
<path d="M369.16 173.38H237.43C235.873 173.38 234.61 174.643 234.61 176.2V182.09C234.61 183.647 235.873 184.91 237.43 184.91H369.16C370.717 184.91 371.98 183.647 371.98 182.09V176.2C371.98 174.643 370.717 173.38 369.16 173.38Z" fill="#ABC4DE"/>
<path d="M369.16 188.08H237.43C235.873 188.08 234.61 189.343 234.61 190.9V196.79C234.61 198.347 235.873 199.61 237.43 199.61H369.16C370.717 199.61 371.98 198.347 371.98 196.79V190.9C371.98 189.343 370.717 188.08 369.16 188.08Z" fill="#ABC4DE"/>
<path d="M400.62 202.79H237.43C235.873 202.79 234.61 204.053 234.61 205.61V211.5C234.61 213.057 235.873 214.32 237.43 214.32H400.62C402.177 214.32 403.44 213.057 403.44 211.5V205.61C403.44 204.053 402.177 202.79 400.62 202.79Z" fill="#ABC4DE"/>
<path d="M-0.0100098 372.12C-0.0100098 342.75 105.27 336.59 235.14 336.59C365.01 336.59 469.09 339.16 470.29 372.12C471.49 405.08 365.01 407.65 235.14 407.65C105.27 407.65 -0.0100098 401.49 -0.0100098 372.12Z" fill="#87AFD9"/>
<path d="M120.09 374.34C114.68 375.85 96.9 377.25 96.59 382.86C96.33 387.45 113.37 387.88 117.84 386.81C118.23 389.54 119.57 390.79 121.51 391.73C135.9 398.72 162.39 390.73 185.35 390.38C194.34 391.13 219.74 385.09 228.59 385.09C262.18 385.09 312.36 393.76 335.03 379.71C336.78 378.62 336.31 375.94 334.29 375.55C299.13 368.82 167.7 374.33 120.1 374.33L120.09 374.34Z" fill="#76A2CF"/>
<path d="M266.98 241.79C267.52 240.29 267.81 238.67 267.81 236.98C267.81 229.12 261.44 222.75 253.58 222.75C246.31 222.75 240.32 228.2 239.46 235.23L223.52 304.44C223.36 305.14 223.27 305.88 223.27 306.63C223.27 311.87 227.52 316.12 232.76 316.12C237.11 316.12 240.78 313.19 241.9 309.19L266.88 242.08C266.92 241.98 266.95 241.89 266.99 241.79H266.98Z" fill="#F9C4B9"/>
<path d="M235.9 293.45C234.73 286.69 232.02 276.98 230.81 272.77L227.88 285.48L235.9 293.44V293.45Z" fill="#E8AB9E"/>
<path d="M252.04 220.54C252.04 220.54 241.97 223.92 237.95 234.82C233.93 245.72 228.48 267.05 228.48 267.05C228.48 267.05 247.59 274.58 258.76 275.06C258.76 275.06 271.06 242.84 269.88 235.44C268.7 228.03 261.92 219.42 252.04 220.54Z" fill="#F38690"/>
<path d="M258.76 275.07C258.76 275.07 266.08 255.91 268.88 243.74C258.99 237.46 246.07 234.73 246.07 234.73C246.07 234.73 245.33 246.55 242.25 252.62C239.18 258.69 237.95 263.97 237.95 263.97C237.95 263.97 234.1 260.67 230.56 259.2C229.31 263.8 228.48 267.05 228.48 267.05C228.48 267.05 247.59 274.58 258.76 275.06V275.07Z" fill="#E0636F"/>
<path d="M241.12 302.13C241.12 302.13 241.12 302.13 241.12 302.11C241.1 302.08 241.09 302.05 241.07 302.02C239.77 299.68 215.74 256.56 207.53 241.99C206.72 239.78 204.4 238.43 202.02 238.9C199.39 239.43 197.68 241.99 198.21 244.62C198.3 245.05 198.44 245.46 198.62 245.83C198.62 245.83 220.72 302.63 224.03 310.29C224.04 310.32 224.06 310.35 224.07 310.38C224.1 310.45 224.13 310.52 224.16 310.58C225.95 314.49 230.25 316.81 234.64 315.93C239.78 314.9 243.11 309.91 242.08 304.77C241.89 303.82 241.57 302.94 241.13 302.13H241.12Z" fill="#F9C4B9"/>
<path d="M214.46 260.47C213.49 261.44 210 266.91 208.04 270.02C210.36 275.95 212.85 282.29 215.16 288.16L228.48 289.4L226.12 275.23C223.15 269.9 220.06 264.37 217.18 259.23C216.3 259.39 215.18 259.73 214.45 260.46L214.46 260.47Z" fill="#E8AB9E"/>
<path d="M208.14 246.01L218.64 240.38C220.99 239.08 221.11 237.76 220.59 237.19L189.63 203.58C189.25 203.16 188.63 203.07 188.14 203.35L175.98 210.3C175.3 210.69 174.02 211.83 174.02 211.83L206.65 245.78C207.03 246.2 207.65 246.29 208.14 246.01Z" fill="#51609E"/>
<path d="M206.38 247.39L218.54 240.44C219.22 240.05 219.36 239.14 218.83 238.56L187.87 204.95C187.49 204.53 186.87 204.44 186.38 204.72L174.22 211.67C173.54 212.06 173.4 212.97 173.93 213.55L204.89 247.16C205.27 247.58 205.89 247.67 206.38 247.39Z" fill="#3D4B87"/>
<path d="M209.49 243.27C208.37 239.13 205.62 238.55 204.27 236.4C202.92 234.26 200.69 230.5 200.45 229.94C200.21 229.38 200.21 227.87 200.13 225.32C200.05 222.77 198.7 221.89 198.54 222.21C198.38 222.53 197.74 226.75 197.82 227.87C197.9 228.99 199.25 236.23 198.86 235.99C198.46 235.75 194.4 229.86 194.08 228.9C193.76 227.94 193.04 224.84 192.33 221.81C191.61 218.78 189.54 219.04 189.54 219.04L189.7 222.29C189.14 219.66 187.31 218.79 187.15 219.1C187 219.4 186.99 224.48 187.06 225.71C186.93 225.17 186.8 224.62 186.67 224.06C186.06 221.47 184.28 221.69 184.28 221.69C184.28 221.69 185.1 229.49 185.45 230.86C185.45 230.86 186.81 236.42 187.7 237.5C188.81 238.85 193.59 242.6 196.22 245.7C198.85 248.81 201.74 253.64 201.74 253.64L212.63 251.28C212.63 251.28 210.6 247.4 209.49 243.26V243.27Z" fill="#F9C4B9"/>
<path d="M187.05 225.72C187.93 229.52 189.2 234.06 191.53 236.97C188.65 235.26 187.69 229.48 187.05 225.72Z" fill="#E8AB9E"/>
<path d="M189.73 222.29C189.86 223.28 190.1 225.27 190.22 226.26V226.22C191.38 229.49 192.51 232.8 194.41 235.69C192.3 234.1 191.34 231.29 190.67 228.82C190.67 228.78 189.9 226.33 189.89 226.29C189.83 225.3 189.72 223.29 189.66 222.3C189.66 222.26 189.72 222.25 189.72 222.3L189.73 222.29Z" fill="#E8AB9E"/>
<path d="M283.83 211.65C280.25 211.5 276.68 212.01 273.28 213.13C269.74 214.3 264.94 215.88 261.68 216.93C255.95 218.78 249.57 221.46 247.31 224.75C245.05 228.04 247.31 238.74 247.31 244.7C247.31 250.66 244.64 259.1 244.22 266.09C243.81 273.08 246.89 280.9 252.86 283.57C252.86 283.57 255.33 289.51 257.18 296.82C259.03 304.14 261.06 317.09 261.06 317.09C261.06 317.09 305.31 315.65 319.51 307.83C319.51 307.83 314.98 281.5 316.01 266.07C317.04 250.64 320.76 242.36 321.77 234.6C322.85 226.33 323.62 220.09 314.98 216.39C306.34 212.69 293.71 212.4 293.71 212.4C293.71 212.4 289.05 211.85 283.82 211.62L283.83 211.65Z" fill="#F9C4B9"/>
<path d="M318.33 300.14C313.45 301.38 305.93 300.65 306.65 298.18C307.37 295.71 308.71 294.99 312.1 294.89C314.31 294.82 316.35 294.23 317.5 293.83C316.62 286.54 315.79 277.62 315.86 270.18C295.92 268.52 267.97 266.88 244.19 267.98C244.38 274.44 247.42 281.14 252.86 283.57C252.86 283.57 255.33 289.51 257.18 296.82C259.03 304.14 261.06 317.09 261.06 317.09C261.06 317.09 305.31 315.65 319.51 307.83C319.51 307.83 318.98 304.77 318.33 300.12V300.14Z" fill="#E8AB9E"/>
<path d="M292.1 211.83L282.79 181.43C281.56 175.74 276.37 171.61 270.36 171.88C263.66 172.19 258.47 177.87 258.78 184.57C258.8 185.07 258.86 185.56 258.94 186.05C259.03 186.58 259.15 187.1 259.31 187.61L266.57 218.22C266.66 218.74 266.78 219.26 266.93 219.75C268.63 225.4 274 229.39 280.16 229.11C287.44 228.78 293.07 222.61 292.73 215.33C292.67 214.11 292.45 212.93 292.09 211.83H292.1Z" fill="#F9C4B9"/>
<path d="M282.7 181.1C281.34 175.59 276.24 171.62 270.35 171.89C263.65 172.2 258.46 177.88 258.77 184.58C258.79 185.08 258.85 185.57 258.93 186.06C259.02 186.59 259.14 187.11 259.3 187.62L265.71 214.65C268.88 213.53 273.49 210.33 276.63 205.25C281.75 196.94 282.91 188.24 282.69 181.1H282.7Z" fill="#E8AB9E"/>
<path d="M265.93 215.55C265.93 215.55 270.03 227.93 292.1 211.84C292.1 211.84 306.28 212.03 312.31 214.81C312.31 214.81 318.63 216.83 322.31 222.15C325.99 227.47 321.31 239.66 320.85 246.19C320.39 252.72 319.62 272.42 321.47 279.05C323.32 285.68 323.65 289.08 323.72 290.31C323.79 291.54 320.7 293.09 315.15 292.47C309.6 291.85 302.35 292.78 298.95 295.09C295.56 297.4 274.88 298.95 271.95 297.71C269.02 296.48 258.07 301.72 253.9 301.26C252.97 298.79 251.61 286.36 250.62 285.77C249.63 285.18 248.66 283.98 248.81 283.36C248.81 283.36 242.36 278.04 242.27 268.82C242.18 259.6 245.59 251.07 246.08 243.05C246.57 235.03 245.09 228.2 246.87 224.41C248.29 221.96 256.59 217.66 265.94 215.53L265.93 215.55Z" fill="#F38690"/>
<path d="M323.71 290.32C323.64 289.09 323.32 285.69 321.46 279.06C320.38 275.19 320.19 266.89 320.32 259.34C311.22 242.64 298.61 222.75 298.61 222.75C298.61 222.75 293.89 230.11 290.03 239.5C286.17 248.88 279.5 269.7 279.5 269.7C279.5 269.7 281.81 272.52 284.13 272.78L281.51 282.3C281.51 282.3 258.52 271.59 252.81 268.62C248.83 266.54 244.62 265.27 242.44 264.7C242.32 266.07 242.25 267.45 242.26 268.85C242.35 278.07 248.8 283.39 248.8 283.39C248.65 284.01 249.61 285.21 250.61 285.8C251.6 286.39 252.97 298.82 253.89 301.29C258.06 301.75 269.01 296.51 271.94 297.74C274.87 298.97 295.55 297.43 298.94 295.12C302.33 292.81 309.59 291.88 315.14 292.5C320.69 293.12 323.78 291.57 323.71 290.34V290.32Z" fill="#E8727E"/>
<path d="M257.66 213.4C253.2 213.23 247.98 207.09 243.12 196.47C242.32 194.73 241.53 192.87 240.77 190.89C239.83 188.48 238.91 185.91 238.02 183.17C231.96 164.5 235.94 149.03 254.72 143.86C254.72 143.86 276.02 138.04 283.36 163.1C290.41 187.16 276.45 213.03 257.66 213.4Z" fill="#F9C4B9"/>
<path d="M259.04 180.47C259.39 181.9 258.81 183.27 257.74 183.54C256.67 183.8 255.51 182.86 255.16 181.43C254.81 180 255.39 178.63 256.46 178.36C257.53 178.1 258.69 179.04 259.04 180.47Z" fill="#192B4F"/>
<path d="M245.21 183.53C245.55 184.91 244.99 186.23 243.96 186.48C242.93 186.74 241.82 185.83 241.48 184.45C241.14 183.07 241.7 181.75 242.73 181.5C243.76 181.24 244.87 182.15 245.21 183.53Z" fill="#192B4F"/>
<path d="M248.65 201.02C250.62 202.57 256.3 206.01 260.87 198.61C261.07 198.28 260.78 197.86 260.4 197.94L248.84 200.23C248.47 200.3 248.35 200.78 248.65 201.02Z" fill="white"/>
<path d="M250.64 195.04C250.4 195.04 250.18 195.02 249.98 194.98C248.71 194.71 248.84 193.62 248.99 192.35L249.01 192.19C249.92 184.53 248.78 181.68 248.77 181.65C248.64 181.33 248.79 180.96 249.11 180.82C249.43 180.68 249.8 180.82 249.94 181.15C249.99 181.27 251.23 184.26 250.27 192.34L250.25 192.5C250.19 192.99 250.12 193.55 250.17 193.72C250.18 193.72 250.21 193.73 250.24 193.74C250.94 193.89 252.47 193.53 253.27 193.26C253.6 193.15 253.96 193.33 254.07 193.66C254.18 193.99 254 194.35 253.67 194.46C253.46 194.53 251.89 195.03 250.64 195.03V195.04Z" fill="#E29888"/>
<path d="M251.75 174.37C251.75 174.37 250.83 174.56 250.99 175.16C251.15 175.76 251.66 177.05 252.09 177.1C252.52 177.15 257.11 175.71 258.91 175.24C260.71 174.78 263.7 174.43 263.79 174.18C263.87 173.93 262.45 173.14 260.26 173.15C258.4 173.16 254.08 173.54 251.76 174.36L251.75 174.37Z" fill="#7A3737"/>
<path d="M237.69 180.09C237.69 180.09 236.83 180.37 236.63 179.84C236.37 179.17 238.91 177.3 243.9 176.21C245.38 175.96 245.7 177.71 245.56 178.59C245.42 179.41 242.94 178.59 237.69 180.08V180.09Z" fill="#7A3737"/>
<path d="M243.12 196.47C242.32 194.73 241.53 192.87 240.77 190.89C244.19 190.23 247.08 190.24 247.6 192.46C247.96 193.53 245.61 195.34 243.13 196.47H243.12Z" fill="#E8AB9E"/>
<path d="M255.74 189.13C255.74 189.13 256.14 186.91 261.03 185.81C265 184.91 268.12 184.77 268.7 187.25C269.75 190.38 254.88 194.58 255.74 189.14V189.13Z" fill="#E8AB9E"/>
<path d="M251.07 138.93C251.07 138.93 251.36 132.81 254.23 129.47C257.1 126.13 262.17 123.91 263.18 124.68C264.19 125.45 262.3 127.55 262.3 127.55C262.3 127.55 271.68 124.95 275.21 126.31C278.74 127.67 275.79 128.74 275.79 128.74C275.79 128.74 290.59 132.74 295.79 139.57C300.99 146.4 302.98 157.48 303.63 161.36C304.28 165.24 306.46 173.25 310.36 176.54C314.26 179.83 322.23 182.52 322.94 185.47C323.64 188.42 320.91 190.44 318.04 189.94C318.04 189.94 318.02 191.78 314.69 193.21C311.36 194.64 307.14 192.71 304.85 190.78C302.56 188.85 300.95 189.05 301.36 189.59C301.76 190.14 306.02 194.53 304.06 195.92C302.1 197.3 296.79 195.81 294.16 192.86C291.53 189.91 290.12 185.11 289.52 182.59C288.92 180.07 283.53 168.98 278.68 162.43C273.82 155.88 251.08 138.92 251.08 138.92L251.07 138.93Z" fill="#8C4949"/>
<path d="M301.46 189.26C300.2 188.11 298.97 186.51 298 184.63C296.64 182.01 296.12 175.39 295.39 171.88C294.66 168.37 293.5 167.91 293.5 167.91C293.5 167.91 293.95 165.38 293.46 162.44C292.97 159.5 288.34 155.97 288.34 155.97C288.34 155.97 289 155.18 288.26 152.09C287.53 149 281.99 146.1 281.99 146.1C281.71 142.27 275.86 141.56 275.86 141.56C275.53 137.53 266.7 136.26 266.7 136.26C265.97 134.96 259.62 135.73 256.62 135.92C253.61 136.11 252.68 137.07 252.19 136.34C251.9 135.91 251.9 134.83 251.94 134.02C251.18 136.59 251.07 138.93 251.07 138.93C251.07 138.93 273.81 155.9 278.67 162.44C283.53 168.99 288.92 180.08 289.51 182.6C290.11 185.12 291.52 189.91 294.15 192.87C296.78 195.82 302.08 197.31 304.05 195.93C306.01 194.55 301.76 190.15 301.35 189.6C301.23 189.44 301.28 189.32 301.46 189.26Z" fill="#854343"/>
<path d="M262.3 127.55C257.38 129.93 253.02 134.3 252.51 139.96C252.26 134.14 257.02 129.24 262.3 127.55Z" fill="#7A3737"/>
<path d="M275.79 128.74C271.32 128.8 266.8 130.04 263.3 132.9C266.32 129.45 271.33 128.06 275.79 128.74Z" fill="#7A3737"/>
<path d="M301.35 189.6C298.28 187.2 296.75 183.14 296.8 179.31C297.49 183.03 298.84 186.71 301.35 189.6Z" fill="#7A3737"/>
<path d="M318.03 189.94C308.29 184.2 301.2 174.65 297.9 163.88C295.62 157.59 294.54 150.8 291.11 144.99C293.65 148.71 294.85 153.13 296.26 157.35C300.04 170.79 306 182.16 318.02 189.93L318.03 189.94Z" fill="#7A3737"/>
<path d="M275 133.15C283.72 132.91 292.09 138.58 295.27 146.67C291.44 138.99 283.59 133.66 275 133.15Z" fill="#7A3737"/>
<path d="M265.62 135.75C268.23 132.19 273.06 130.81 277.31 131.32C273.09 131.56 268.73 132.74 265.62 135.75Z" fill="#7A3737"/>
<path d="M235.37 171.64C235.37 171.64 232.02 163.73 230.96 158.48C229.9 153.23 235.48 145.88 239.67 144.7C239.67 144.7 249.54 136.73 254.83 138.13C254.83 138.13 261.77 134.92 265.76 137.82C265.76 137.82 273.93 138.63 274.94 143.25C274.94 143.25 280.32 143.53 281.6 147.72C281.6 147.72 288.31 151.26 286.48 156.28C286.48 156.28 293.77 159.96 290.21 166.58C290.21 166.58 295.44 171.21 291.89 176.36C291.89 176.36 295.64 183.26 289.98 186.44C289.98 186.44 289.66 191.32 286.22 192.69C282.79 194.06 280.91 189.36 280.11 187.53C279.31 185.7 278.26 180.33 275.95 177.58C273.65 174.83 269.85 173.53 267.59 170.58C265.33 167.63 259.68 156.6 254.81 156.93C249.94 157.26 245.68 162.86 245.68 162.86C245.68 162.86 234.01 161.97 235.39 171.63L235.37 171.64Z" fill="#8C4949"/>
<path d="M270.28 161.93C269.15 156.51 264.91 149.31 257.73 148.33C250.55 147.35 242.96 155.32 242.96 155.32C239.67 152.77 234.26 153.87 231.13 154.83C230.81 156.09 230.73 157.33 230.96 158.48C231.14 159.39 231.4 160.38 231.69 161.4C232.96 165.13 234.34 168.39 234.34 168.39C232.96 158.72 244.63 159.62 244.63 159.62C244.63 159.62 248.89 154.02 253.76 153.69C258.63 153.36 264.28 164.39 266.54 167.34C268.42 169.79 271.36 171.1 273.62 173.06C273.81 172.12 273.81 171.52 273.81 171.52C273.81 171.52 271.4 167.35 270.27 161.94L270.28 161.93Z" fill="#854343"/>
<path d="M237.8 158.32C239.72 149.41 246.09 141.19 254.82 138.14C246.45 141.86 240.42 149.67 237.8 158.32Z" fill="#7A3737"/>
<path d="M239.67 144.7C235.85 148.46 233.99 153.81 234.05 159.12C233.23 153.83 235.31 147.93 239.67 144.7Z" fill="#7A3737"/>
<path d="M265.75 137.82C258.75 141.5 253.59 147.95 250.21 154.99C252.92 147.63 258.38 140.85 265.75 137.82Z" fill="#7A3737"/>
<path d="M258.3 153.53C261.55 151.79 264.53 149.48 266.61 146.42C268.15 144.55 269.86 140.6 272.21 139.95C269.98 141.01 269.18 143.81 267.71 145.67C265.57 149.26 262.19 152.06 258.29 153.53H258.3Z" fill="#7A3737"/>
<path d="M274.93 143.25C273.28 149.1 268.02 153.23 262.97 156.18C267.6 152.62 272.62 148.79 274.93 143.25Z" fill="#7A3737"/>
<path d="M281.58 147.72C281.66 155.55 273.52 160.35 266.98 162.65C273.2 159.64 280.9 155.36 281.58 147.72Z" fill="#7A3737"/>
<path d="M286.46 156.28C285 164.56 276.43 168.4 268.73 166.55C276.44 167.57 284.26 164.2 286.46 156.28Z" fill="#7A3737"/>
<path d="M290.19 166.58C287.52 173.55 275.32 171.12 269.82 169.22C275.22 170.4 287.31 172.85 290.19 166.58Z" fill="#7A3737"/>
<path d="M291.87 176.36C285.18 183.58 278.76 173.8 271.84 173.88C278.85 173.03 284.97 182.8 291.87 176.36Z" fill="#7A3737"/>
<path d="M289.96 186.44C283.83 187.92 281.49 180.63 276.79 178.48C281.92 179.98 283.87 187.13 289.96 186.44Z" fill="#7A3737"/>
<path d="M275.54 170.86C275.54 170.86 270.33 171.85 270.54 176.73C270.75 180.18 271.34 186.91 273.58 187.11C275.82 187.31 278.79 187.43 280.19 181.17C281.31 176.15 279.56 170.73 275.55 170.86H275.54Z" fill="#F9C4B9"/>
<path d="M276.25 177.33C276.17 177.16 275.96 177.09 275.79 177.17C275.73 177.2 274.69 177.72 274.13 178.91C273.88 176.3 275.24 175.26 275.33 175.2C275.48 175.09 275.52 174.88 275.41 174.73C275.3 174.58 275.09 174.54 274.93 174.65C274.79 174.75 271.55 177.12 274.98 183.53C275.06 183.68 275.23 183.74 275.38 183.69C275.4 183.69 275.42 183.68 275.44 183.67C275.61 183.58 275.67 183.37 275.58 183.21C275.06 182.23 274.7 181.36 274.47 180.59C274.44 178.63 276.02 177.83 276.09 177.8C276.26 177.72 276.33 177.51 276.25 177.34V177.33Z" fill="#E29888"/>
<path d="M243.61 157.09C243.61 157.09 237.99 153.8 233.02 155.86C227.55 158.12 227.22 164.62 229.14 172.32C231.06 180.02 234.02 189.36 234.27 193.89C234.52 198.41 233.6 199.55 234.66 202.87C235.73 206.19 238.24 207.52 238.24 211C238.24 214.48 240.56 214.58 241.96 213.14C243.36 211.71 245.04 209.11 243.76 205.65C242.48 202.2 239.27 195.26 239.5 190.8C239.72 186.35 239.73 183.62 238.22 179.58C236.71 175.54 235.04 171.58 235.66 168.41C236.35 164.91 240.71 163.62 242.3 165.27C243.88 166.91 245.79 166.46 246.98 164.52C249.48 160.46 255 156.61 259.59 161.67C264.18 166.72 266.2 170.44 267.58 176.25C268.96 182.06 270.77 196.21 272.75 200.33C274.74 204.44 276.37 205.52 278.88 203.36C281.39 201.2 279.34 197.57 278.13 194.83C276.93 192.09 274.96 184.58 274.16 180.46C273.36 176.34 270.12 165.75 267.44 159.51C264.76 153.27 260.01 148.71 253.87 150.26C250.06 151.22 245.24 152.76 243.61 157.09Z" fill="#8C4949"/>
<path d="M324.83 236.44C325.13 235.29 325.29 234.09 325.29 232.85C325.29 224.99 318.92 218.62 311.06 218.62C305.63 218.62 300.91 221.66 298.51 226.14C298.51 226.14 295.56 231.23 293.59 242.45C291.62 253.67 283.71 300.29 283.71 300.29C283.59 300.89 283.53 301.51 283.53 302.15C283.53 307.39 287.78 311.64 293.02 311.64C297.41 311.64 301.1 308.66 302.18 304.62C302.18 304.62 322.88 249.17 324.84 236.44H324.83Z" fill="#F9C4B9"/>
<path d="M293.39 291.84L286.17 285.78C285.83 287.79 285.51 289.67 285.22 291.37L293.4 291.84H293.39Z" fill="#E8AB9E"/>
<path d="M310.35 214.81C310.35 214.81 323.42 215.76 326.5 232.49C329.59 249.22 321.38 269.79 320.12 279.87C320.12 279.87 299.55 276.58 285.21 268.6C285.21 268.6 291.51 214.13 310.34 214.81H310.35Z" fill="#F38690"/>
<path d="M296.7 369.33C307.36 359.35 307.9 342.62 297.92 331.97C296.6 330.56 295.16 329.33 293.63 328.27C283.06 319.59 213.4 265.66 213.4 265.66C207.61 260.49 198.73 260.51 192.96 265.92C186.85 271.64 186.54 281.23 192.26 287.34C192.51 287.61 249.27 357.54 258.75 367.45C258.94 367.67 259.14 367.89 259.34 368.1C259.67 368.46 260.01 368.8 260.36 369.13C270.43 378.77 286.39 378.96 296.69 369.31L296.7 369.33Z" fill="#E8AB9E"/>
<path d="M299.92 369.26C299.92 369.26 319.02 346.16 295.25 327.34C271.48 308.52 215.54 265.37 207.53 261.88C199.52 258.39 190.8 262.37 185.53 267.13C180.26 271.89 180.33 279.74 188.82 291.51C197.31 303.29 255.69 370.32 265.09 375.56C274.49 380.8 287.48 381.69 299.92 369.26Z" fill="#B38F8F"/>
<path d="M211.71 280.66C213.39 272.54 209.64 263.86 201.52 262.18C195.3 260.89 189.17 263.65 185.9 268.67C185.9 268.67 181.74 273.49 172.64 290.21C163.54 306.94 137.99 358.89 137.99 358.89C137.59 359.52 149.77 363.4 150.79 360.45C150.79 360.45 199.48 310.13 210.58 284.01C211.08 282.96 211.46 281.83 211.7 280.65L211.71 280.66Z" fill="#E8AB9E"/>
<path d="M104.27 375.24C109.92 372.9 120.15 368.01 123.61 365.97C127.07 363.94 131.32 361.22 133.09 360.17C145.06 352.78 147.99 356.05 148 360.17C148 360.17 148.83 363.48 150.71 365.59C152.59 367.7 152.66 373.5 151.16 377.11C149.66 380.72 145.67 381.47 140.25 381.17C134.83 380.87 124.89 382.23 120.45 383.29C116.01 384.35 100.73 384.43 99.52 383.29C98.31 382.16 98.61 377.57 104.26 375.23L104.27 375.24Z" fill="#F9C4B9"/>
<path d="M145.97 352.29C142.21 350.87 142.44 349.87 142.44 349.87C142.44 349.87 140.07 350.38 139.31 352.39C138.47 355.32 135.98 357.18 134.1 359.43C129.14 362.02 124.29 364.83 119.34 367.46C115.44 369.58 111.53 371.71 107.47 373.5C104.16 375.12 100.05 376.08 97.7901 379.19C95.9501 382.5 98.77 384.47 102 384.25C105.72 384.33 118.67 385.04 129.34 382.04C135.22 380.69 141.29 381.81 147.19 381.02C149.2 380.83 150.82 379.61 151.56 377.75C153.24 374.53 154.48 370.42 152.52 367.07C153.56 366.53 153.89 364.66 153.42 363.51C153.87 362.48 153.65 361.33 154.33 360.36C155.62 358.53 156.49 356.47 155.7 355.27C151.56 355.17 149.73 353.7 145.97 352.28V352.29Z" fill="#FAF0F0"/>
<path d="M151.12 366.98C149.8 367.4 148.32 368.07 146.9 367.89C146.43 367.75 145.96 367.53 145.58 367.04L145.61 366.89C146.13 366.57 146.59 366.47 147.03 366.41C147.47 366.34 147.9 366.55 148.35 366.61C149.13 366.72 150.3 366.73 151.1 366.83L151.13 366.98H151.12Z" fill="#F0DADA"/>
<path d="M152 362.78C151.38 362.65 150.51 362.38 149.9 362.31C149.06 362.33 148.54 362.14 147.97 361.34C148.04 360.87 148.93 360.73 149.21 360.72C149.97 360.81 150.63 361.41 151.25 361.85L152.08 362.65L152 362.77V362.78Z" fill="#F0DADA"/>
<path d="M172.27 284.24C161.26 303.24 137.3 340.64 137.3 340.64C137.3 340.64 156.89 355.42 176.08 359.19C176.08 359.19 192.06 323.03 202.41 305.2C212.76 287.37 215.23 273.62 210.56 265.9C206.97 259.96 197.17 259.5 193.02 260.95C188.87 262.4 183.28 265.24 172.27 284.25V284.24Z" fill="#BFA0A0"/>
<path d="M196.49 277.71C190.07 287.05 160.13 335.43 151.4 349.57C158.43 353.44 167.3 357.47 176.08 359.19C176.08 359.19 192.06 323.03 202.41 305.2C212.75 287.4 215.22 273.66 210.58 265.94C207.04 267.43 201.29 270.73 196.49 277.71Z" fill="#A88080"/>
<path d="M261.06 317.11C261.06 317.11 260 329.86 261.06 339.33C262.12 348.79 273.64 368.13 277.75 373.89C281.86 379.65 292.77 381.81 300.58 382.68C308.4 383.56 332.26 380.06 335.14 358.25C335.14 350.43 335.14 339.74 328.76 329.45C323.91 321.62 320.33 313.09 319.5 307.85L261.05 317.11H261.06Z" fill="#E8AB9E"/>
<path d="M258.82 313.2C258.82 313.2 304.49 309.91 320.53 305.38C320.53 305.38 324.03 318.33 329.38 327.49C334.73 336.65 338.22 349.56 337.15 355.99C336.08 362.42 332.88 379.84 308.19 383.14C283.73 385.56 273.81 371.42 272.08 368.74C270.35 366.07 260.88 346.11 258.83 340.97C256.77 335.83 259.45 317.52 258.83 313.2H258.82Z" fill="#BFA0A0"/>
<path d="M320.54 305.38C311.54 307.92 293.21 310.07 278.85 311.47C271.93 313.36 265.07 315.32 258.87 317.14C258.58 324.18 257.17 336.83 258.83 340.97C260.89 346.11 270.35 366.07 272.08 368.74C273.8 371.39 279.54 383.61 308.74 384.42L324.88 332.04C316.9 322.46 307.03 314.44 307.03 314.44C311.62 313.79 319.47 312.26 322.2 310.8C321.13 307.58 320.54 305.39 320.54 305.39V305.38Z" fill="#B38F8F"/>
<path d="M318.33 300.14C318.33 300.14 321.04 302.26 321.56 308.81C321.56 308.81 277.01 317.42 258.92 315.56C258.92 315.56 257.48 311.27 258.04 307.23C258.04 307.23 286.82 307.45 318.33 300.14Z" fill="#F2DFDF"/>
<path d="M295.93 293.13C295.93 293.13 281.32 285.61 267.9 279.6C256.19 274.35 238.93 266.55 234.73 264.65C234.01 264.22 233.17 263.98 232.27 263.98C229.59 263.98 227.41 266.16 227.41 268.84C227.41 271.04 228.87 272.89 230.87 273.49C230.87 273.49 269.2 300 287.42 309.82C288.99 310.97 290.93 311.65 293.02 311.65C298.26 311.65 302.51 307.4 302.51 302.16C302.51 297.94 299.75 294.36 295.94 293.13H295.93Z" fill="#F9C4B9"/>
<path d="M233.16 275.07C233.16 275.07 227.15 273.09 224.99 272.47C222.83 271.85 219.22 268.83 219.22 268.83C219.22 268.83 221.56 264.18 225.4 264.36C231.62 264.65 233.28 271.6 233.28 271.6L233.16 275.07Z" fill="#E8AB9E"/>
<path d="M317.86 329.45C317.86 329.45 262.41 292.23 232.07 274.6C229.6 272.86 226.6 271.84 223.35 271.84C214.98 271.84 208.19 278.63 208.19 287C208.19 291.59 210.23 295.71 213.46 298.49C223.02 308.16 262.34 348.71 288.36 372.55C293.18 378.98 300.86 383.14 309.52 383.14C324.12 383.14 335.95 371.31 335.95 356.71C335.95 344.63 330.4 337.37 317.85 329.45H317.86Z" fill="#F9C4B9"/>
<path d="M213.57 271.84C213.57 271.84 202.82 281.52 208.19 293.04C213.57 304.56 248.74 339.12 261.49 351.66C274.24 364.21 297.53 397.33 325.28 379.02C333.49 372.64 345.83 352.28 328.14 335C310.45 317.72 236.96 273.54 232.25 271.03C225.63 267.5 218.61 267.88 213.56 271.84H213.57Z" fill="#BFA0A0"/>
<path d="M247.92 331.92C241.75 324.1 236.81 315.26 237.95 307.03C239.09 298.8 238.78 288.81 238.78 288.81C238.78 288.81 223.81 288.73 213.14 300.55C224.7 315.51 250.87 341.22 261.49 351.67C263.04 353.2 264.75 355.02 266.6 357.03C262.42 349.33 253.47 338.96 247.92 331.92Z" fill="#A88080"/>
<path d="M161.04 346.84C161.04 346.84 170.37 361.33 196.57 369.06L199.25 357.25L168.8 339.54L161.04 346.84Z" fill="#966B6B"/>
<path d="M238.48 283.7C237.01 275.46 229.14 269.97 220.9 271.43C216.64 272.19 213.12 274.65 210.91 277.99C210.91 277.99 201.5 282.22 162.84 368.29C161.64 369.69 174.37 371.51 174.37 371.51C174.37 371.51 187.31 357.05 202.44 340.72C218.61 323.27 229.08 307.16 235.92 295.11C238.18 291.91 239.22 287.85 238.48 283.69V283.7Z" fill="#F9C4B9"/>
<path d="M131.35 382.43C137 380.09 147.23 375.2 150.69 373.16C154.15 371.13 158.4 368.41 160.17 367.36C172.14 359.97 175.07 363.24 175.08 367.36C175.08 367.36 175.91 370.67 177.79 372.78C179.67 374.89 179.74 380.69 178.24 384.3C176.74 387.91 172.75 388.66 167.33 388.36C161.91 388.06 151.97 389.42 147.53 390.48C143.09 391.54 127.81 391.62 126.6 390.48C125.39 389.35 125.69 384.76 131.34 382.42L131.35 382.43Z" fill="#F9C4B9"/>
<path d="M173.05 359.48C169.29 358.06 168.22 356.42 168.22 356.42C168.22 356.42 166.45 356.77 165.69 358.77C164.85 361.7 163.06 364.37 161.18 366.63C156.22 369.22 151.37 372.03 146.42 374.66C142.52 376.78 138.61 378.91 134.55 380.7C131.24 382.32 127.13 383.28 124.87 386.39C123.03 389.7 125.85 391.67 129.08 391.45C132.8 391.53 146.12 392.01 156.42 389.24C162.3 387.89 168.37 389.01 174.27 388.22C176.28 388.03 177.9 386.81 178.64 384.95C180.32 381.73 181.56 377.62 179.6 374.27C180.64 373.73 180.97 371.86 180.5 370.71C180.95 369.68 181.36 368.58 182.05 367.61C183.34 365.78 184.95 364.49 184.16 363.29C183.36 362.09 176.81 360.91 173.05 359.49V359.48Z" fill="white"/>
<path d="M178.21 374.17C176.89 374.59 175.41 375.26 173.99 375.08C173.52 374.94 173.05 374.72 172.67 374.23L172.7 374.08C173.22 373.76 173.68 373.66 174.12 373.6C174.56 373.53 174.99 373.74 175.44 373.8C176.22 373.91 177.39 373.92 178.19 374.02L178.22 374.17H178.21Z" fill="#F5E4E4"/>
<path d="M179.09 369.97C178.47 369.84 177.6 369.57 176.99 369.5C176.15 369.52 175.63 369.33 175.06 368.53C175.13 368.06 176.02 367.92 176.3 367.91C177.06 368 177.72 368.6 178.34 369.04L179.17 369.84L179.09 369.96V369.97Z" fill="#F5E4E4"/>
<path d="M220.54 268.28C220.54 268.28 210.65 270.2 203.12 281.16C195.58 292.12 161.04 346.85 161.04 346.85C161.04 346.85 182.71 354.93 196.57 369.07C196.57 369.07 219.18 338.21 227.09 322.71C235 307.21 239.61 292.37 239.87 284.58C240.21 274.28 229.43 266.53 220.54 268.28Z" fill="#BFA0A0"/>
<path d="M234.98 264.52C234.98 264.52 231.64 261.82 230.27 261.26C228.91 260.69 227.36 260.27 225.26 261.08C224.64 261.32 222.95 259.85 220.62 260.83C220.62 260.83 217.42 259.75 215.51 261.17C214.69 261.78 210.57 266.54 210.57 266.54C210.57 266.54 208.09 270.63 207.71 271.2C206.65 272.77 204.61 276.99 204.98 278.02C205.35 279.04 207.37 277.6 207.37 277.6C207.37 277.6 208.09 279.25 210.17 277.26C210.17 277.26 211.8 278.4 213.27 276.69C213.27 276.69 215.08 276.98 216.53 275.63C217.98 274.28 220.53 269.9 221.52 269.15C222.51 268.4 227.05 266.13 233.19 267.72C239.32 269.31 239.79 266.95 239.79 266.95L234.97 264.53L234.98 264.52Z" fill="#F9C4B9"/>
<path d="M207.37 277.59C208.1 275.79 209.37 272.57 210.11 270.81C211.62 268.12 213.91 265.41 216.18 263.57C214.51 266.22 212.19 268.37 210.53 270.99C209.7 272.62 208.26 276.17 207.36 277.58L207.37 277.59Z" fill="#E8AB9E"/>
<path d="M210.17 277.25C211.04 274.99 211.71 272.63 212.79 270.46C214.32 268.27 216.12 265.77 218.14 264.22C216.59 267.04 213.94 269.1 212.54 271.97C212 273.02 210.76 276.39 210.17 277.25Z" fill="#E8AB9E"/>
<path d="M213.28 276.68C214.12 274.68 215.03 272.53 215.91 270.54C217.12 268.38 219.14 266.26 221.01 264.89C219.66 267.01 217.73 268.7 216.36 270.76C215.35 272.62 214.35 275.06 213.28 276.68Z" fill="#E8AB9E"/>
</svg>
