<svg width="469" height="353" viewBox="0 0 469 353" fill="none" xmlns="http://www.w3.org/2000/svg">
<path d="M195.46 350.86C138.52 354.5 92.36 333.96 58.62 306.14C10.58 262.15 -19.31 185.8 16.54 105.99C24.57 88.12 35.07 71.2 48.67 55.98C137.09 -42.98 287.18 8.10001 352.51 71.92C390.51 109.04 468.13 104.18 468.13 225.13C468.13 276.74 432.83 311.62 392.53 329.98C368.04 343.24 195.46 350.85 195.46 350.85V350.86Z" fill="#7D9CDB"/>
<path d="M392.42 328.56C378.81 334.94 364.77 340.34 349.91 342.36C326.71 344.66 294.01 344.54 270.84 346.13C242.5 347.71 210.37 349.66 182.12 351.15C136.68 351.22 90.1 334.65 58.62 306.14C58.4 274.16 67.24 244.59 64.84 221.02C62.08 193.87 64.84 165.83 59.54 145.94C51.53 123.91 29.59 62.47 71.12 57.72C145.37 55.83 209.84 32.39 287.62 42.17C319.67 48.13 353.69 48.87 372.28 52.72C390.69 56.57 390.23 63.88 387.47 77.22C385.86 84.97 386.44 94.55 387.74 109.06C388.68 119.51 389.99 132.51 391.15 149.24C393.91 189.2 386.09 220.86 384.25 240.14C382.73 254.95 390.2 299.12 392.43 328.56H392.42Z" fill="#323663"/>
<path d="M241.47 57.27C241.47 57.27 238.19 56.59 235.96 55.01C233.72 53.42 231.16 53.71 230.36 57.82C229.56 61.93 230.17 61.52 227.51 69.09C224.84 76.66 217.54 94.65 215.53 104.23C209.83 131.39 209.86 149.38 207.96 152.38C206.06 155.38 203.64 161.27 207.61 161.35C211.58 161.42 228.14 159.53 234.75 162.91C241.36 166.29 270.76 172.87 282.43 174.06C294.1 175.24 327.36 188.96 337.08 190.73C346.8 192.5 353.97 201.47 356.83 199.36C359.7 197.25 357.83 189.75 358.01 187.15C358.19 184.56 365.82 161.52 369.87 144.54C372.81 132.19 376.28 116.4 375.74 104.18C375.46 101.62 374.59 98.53 375.66 96.81C377.69 93.53 377.83 92.2 376.46 90.47C375.34 89.06 373.95 89.4 372.49 90.11C371.18 90.75 361.26 90.11 352.48 84.66C343.99 79.38 329.35 75.35 318.71 73.42C308.07 71.49 291.26 65.06 277.98 61.13C264.42 57.12 250.12 58.39 241.46 57.27H241.47Z" fill="#2D3363"/>
<path d="M154.57 83.09C154.57 83.09 151.24 83.43 148.63 82.59C146.02 81.75 143.66 82.79 144.14 86.96C144.62 91.12 145.08 90.54 144.82 98.57C144.56 106.59 143.02 125.95 143.99 135.69C146.74 163.31 152.19 180.45 151.28 183.88C150.37 187.31 149.84 193.66 153.65 192.53C157.46 191.41 172.68 184.6 180 185.84C187.32 187.07 217.34 184.49 228.83 182.1C240.32 179.71 276.17 182.77 285.96 181.53C295.76 180.29 303.39 187.65 305.49 184.78C307.59 181.91 302.3 178.57 301.69 176.05C301.08 173.52 304.57 145.03 303.31 127.61C302.39 114.94 300.94 98.85 296.75 87.36C295.71 85 293.95 82.32 294.45 80.36C295.4 76.62 295.13 75.31 293.3 74.08C291.81 73.07 290.58 73.82 289.41 74.93C288.36 75.93 278.7 78.32 268.69 75.76C259.01 73.29 243.82 73.85 233.1 75.22C222.38 76.59 204.41 75.52 190.56 75.78C176.42 76.04 163.16 81.56 154.58 83.11L154.57 83.09Z" fill="#2D3363"/>
<path d="M71.57 99.7C71.57 99.7 68.37 100.68 65.65 100.37C62.93 100.06 60.8199 101.54 62.0999 105.53C63.3799 109.52 63.72 108.86 65.02 116.78C66.32 124.7 68.58 143.98 71.43 153.35C79.5 179.91 83.78 193.63 83.56 197.17C83.34 200.71 83.47 212.18 91.98 207.22C95.41 205.22 109.1 195.74 116.52 195.52C123.94 195.3 152.88 186.92 163.68 182.34C174.48 177.76 210.24 173.78 219.61 170.65C228.98 167.52 237.9 173.26 239.4 170.03C240.9 166.8 235.06 164.56 233.97 162.2C232.88 159.84 230.76 131.21 226.13 114.37C222.77 102.12 218.21 86.62 211.86 76.17C210.38 74.06 208.14 71.77 208.24 69.75C208.44 65.9 207.92 64.66 205.89 63.81C204.23 63.11 203.17 64.08 202.24 65.4C201.4 66.59 192.4 70.81 182.08 70.25C172.1 69.71 157.32 73.22 147.07 76.65C136.82 80.08 118.99 82.54 105.46 85.48C91.65 88.49 79.71 96.48 71.59 99.68L71.57 99.7Z" fill="#2D3363"/>
<path d="M391.7 320.54C391.26 320.85 371.66 337.39 370.59 338.25C360.47 341.17 349.86 342.04 339.35 342.69C246.49 342.59 133.85 379.09 59.32 306.75C60.93 296.93 65.91 286.87 69.73 281.73C74.99 274.62 75.82 270.14 75.87 269.84C82.9 266.14 140.27 270.27 149.32 261.73C154.06 245.05 169.17 200.57 177.98 191.12C176.11 187.22 175.95 182.94 176.15 178.93C176.18 177.1 176.32 166.06 176.35 163.99H291.47V178.37C303.41 195.39 316.67 233.28 322.98 254.83C331.5 253.64 369.92 256.32 377.06 258.89C379.97 260.51 380.35 265.86 379.41 271.83C378.47 284.73 392.06 306.64 391.71 320.55L391.7 320.54Z" fill="#2D3363"/>
<path d="M126.83 215.21C133.04 216.24 139.22 217.54 145.34 219.04C151.47 220.48 157.59 222.28 163.26 225.06L163.22 225.16C151.12 221.73 139.13 217.88 126.81 215.31L126.83 215.2V215.21Z" fill="#2D3363"/>
<path d="M150.69 217.38C152.88 218.01 155.03 218.84 157.09 219.82C159.2 220.74 161.27 222.01 162.54 223.99L162.47 224.07C160.48 223.01 158.59 221.79 156.7 220.58C154.74 219.45 152.73 218.41 150.67 217.48L150.71 217.38H150.69Z" fill="#2D3363"/>
<path d="M143.07 223.98C149.36 225 155.68 225.16 162.04 225.43L162.06 225.54C159.36 226.42 156.45 226.43 153.67 226.03C150.1 225.61 146.54 224.97 143.05 224.09L143.07 223.99V223.98Z" fill="#2D3363"/>
<path d="M154.09 251.61C145.61 251.87 137.14 252.63 128.67 253.07L128.65 252.97C132.71 251.57 137.08 251.42 141.33 251.39C145.57 251.3 149.86 251.35 154.1 251.51V251.62L154.09 251.61Z" fill="#2D3363"/>
<path d="M145.62 249.87C147.01 249.82 148.53 249.83 149.92 249.89C151.37 249.87 152.9 250.02 154.11 250.89L154.08 250.99C152.65 251.25 151.22 251.08 149.82 250.74C148.45 250.51 146.97 250.24 145.61 249.98V249.87H145.62Z" fill="#2D3363"/>
<path d="M153.14 253.07C152.36 253.29 151.49 253.48 150.69 253.62C149.85 253.88 148.97 253.92 148.19 253.43V253.32C148.88 252.72 149.76 252.63 150.63 252.77C151.44 252.8 152.32 252.86 153.13 252.96V253.07H153.14Z" fill="#2D3363"/>
<path d="M307.62 215.22C316.46 208.17 327.44 203.07 338.83 202.39L338.85 202.5C327.93 205.21 316.8 208.42 307.7 215.31L307.63 215.23L307.62 215.22Z" fill="#2D3363"/>
<path d="M307.63 216.48C312.92 213.79 319.72 211.03 325.72 211.77V211.88C319.64 213.25 313.43 214.03 307.68 216.58L307.63 216.48Z" fill="#2D3363"/>
<path d="M307.62 212.72C308.24 211.65 308.97 210.63 309.77 209.68C310.79 208.43 312.05 207.11 313.78 207.07L313.82 207.17C312.79 208.35 311.52 209.24 310.33 210.23C309.42 211.04 308.55 211.89 307.71 212.78L307.62 212.72Z" fill="#2D3363"/>
<path d="M317.66 242.81C324.69 240.13 332.01 238.16 339.37 236.67C345.08 235.47 351.05 234.91 356.88 235.28V235.39C343.64 236.74 330.37 238.67 317.7 242.91L317.66 242.81Z" fill="#2D3363"/>
<path d="M318.35 244.75C322.08 243.87 326.57 242.57 330.3 243.89V244C326.33 244.73 322.34 244.22 318.37 244.85L318.35 244.75Z" fill="#2D3363"/>
<path d="M69.29 97.33C69.29 97.33 66.09 98.31 63.37 98C55.13 97.93 62.37 106.47 62.74 114.41C64.05 122.33 66.3 141.61 69.15 150.98C77.22 177.54 85.91 193.28 85.69 196.83C85.47 200.37 86.18 206.7 89.7 204.86C93.21 203.02 106.82 193.38 114.24 193.16C121.66 192.94 150.6 184.56 161.4 179.98C172.2 175.4 207.96 171.42 217.33 168.29C226.7 165.16 235.62 170.9 237.12 167.67C238.62 164.44 232.78 162.2 231.69 159.84C229.94 145.72 222.78 92.48 209.57 73.81C208.09 71.7 205.85 69.41 205.95 67.39C206.15 63.54 205.63 62.3 203.6 61.45C201.94 60.75 200.88 61.72 199.95 63.04C199.11 64.23 190.11 68.45 179.79 67.89C169.81 67.35 155.03 70.86 144.78 74.29C134.53 77.72 116.7 80.18 103.17 83.12C89.36 86.13 77.42 94.12 69.3 97.32L69.29 97.33Z" fill="#4563AC"/>
<path d="M92.04 107.35C96.8 104.21 102.7 103.14 108.4 103.32C114.1 103.5 119.7 104.84 125.24 106.18C126.86 106.57 128.64 107.08 129.48 108.52C130.1 109.59 130.02 110.9 129.93 112.13C129.78 114.1 129.63 116.06 129.48 118.03C129.43 118.66 129.37 119.32 128.97 119.81C128.61 120.26 128.03 120.47 127.49 120.66C115.69 124.81 103.66 129 91.16 129.43C90.39 129.46 89.55 129.45 88.93 128.98C88.35 128.54 88.1 127.8 87.94 127.1C86.43 120.54 90.03 113.99 92.05 107.34L92.04 107.35Z" fill="#6089DB"/>
<path d="M85.31 146.78C92.78 137.15 118.4 135.86 128.67 141.02C130.22 142.9 130.72 145.46 131.77 147.63C133.85 151.73 132.9 154.95 129.97 158.32C123.54 167.09 115.76 175.15 105.34 178.94C103.38 179.72 101.29 180.41 99.19 180.14C88.37 177.02 78.18 155.43 85.31 146.78Z" fill="#6089DB"/>
<path d="M139.7 172.51C137.53 176.49 132.86 178.33 129.75 181.62C127.6 183.67 129.82 185.36 132.31 185.03C134.95 184.65 137.91 184.49 140.19 183.02C140.7 182.58 141.04 181.98 141.37 181.39C142.16 179.81 143.29 178.35 143.78 176.65C144.26 174.32 141.66 171.97 139.72 172.51H139.7Z" fill="#6089DB"/>
<path d="M174.68 176.39L158.09 83.6801L144.48 79.5601C144.48 79.5601 141.47 80.2901 142.28 87.6101C143.09 94.9301 140.79 104.22 139.97 119.45C139.16 134.68 141.78 149.27 143.66 160.02C145.54 170.76 147.16 173.21 147.3 177.82C147.38 180.46 147.33 182.62 147.5 184.92C153.08 183.15 158.09 181.39 161.4 179.98C164.33 178.74 169.1 177.54 174.68 176.39Z" fill="#405EA6"/>
<path d="M108.25 94.2601C114.23 95.1601 120.14 96.5201 125.94 98.2701C131.77 99.9401 137.51 102.18 142.46 105.75C142.52 105.79 142.46 105.89 142.4 105.86C141 105.27 139.62 104.67 138.24 104.09C134.22 102.48 129.73 100.65 125.65 99.2001C120.09 97.1701 113.63 95.7601 108.26 94.2701L108.25 94.2601Z" fill="#405EA6"/>
<path d="M128.88 96.3101C131.35 97.2601 133.81 98.3701 136.16 99.6001C137.92 100.46 139.82 101.51 141.18 102.93C141.39 103.17 142.71 104.51 142.38 104.61C139.47 103.05 136.81 101.12 133.99 99.4001C133.57 99.1401 132.71 98.6301 132.28 98.3901C131.14 97.7201 129.99 97.0601 128.83 96.4201C128.77 96.3901 128.81 96.2801 128.88 96.3101Z" fill="#405EA6"/>
<path d="M135.64 105.73C137.47 105.64 141.5 105.09 142.4 106.93C140.92 107.33 139.57 106.73 138.16 106.41C137.87 106.26 135.35 105.95 135.64 105.73Z" fill="#405EA6"/>
<path d="M143.1 132.3C127.71 131.53 112.24 131.15 96.86 132.3C96.79 132.31 96.76 132.2 96.84 132.18C104.35 130.14 112.26 130.32 119.97 130.6C127.55 130.97 135.94 131.21 143.1 132.3Z" fill="#405EA6"/>
<path d="M124.12 127C127.35 127.35 130.61 127.79 133.81 128.35C136.17 128.71 138.76 129.17 140.95 130.15C141.33 130.34 143.3 131.18 143.07 131.49C139.09 130.7 135.17 129.72 131.24 128.74C128.95 128.2 126.41 127.63 124.1 127.11C124.03 127.1 124.04 126.98 124.12 126.99V127Z" fill="#405EA6"/>
<path d="M143.1 133.27C139.87 133.5 136.87 134.85 133.63 134.88C133.39 134.69 134.44 134.12 134.61 134C136.06 133.11 137.79 133.16 139.43 133.04C140.65 133 141.88 133.02 143.1 133.15C143.17 133.15 143.17 133.27 143.1 133.27Z" fill="#405EA6"/>
<path d="M145.46 151.92C142.75 158.61 138.96 164.85 134.6 170.6C130.79 175.73 126.18 180.32 120.75 183.71C120.69 183.75 120.62 183.66 120.68 183.61C121.91 182.43 123.15 181.29 124.35 180.1C127.92 176.55 131.41 172.88 134.6 168.97C138.84 163.82 142.5 157.47 145.47 151.91L145.46 151.92Z" fill="#405EA6"/>
<path d="M143.73 151.12C142.47 155.31 137.93 160.43 133.64 161.6C133.58 161.62 133.53 161.54 133.58 161.5C134.32 160.68 135.13 160.01 135.96 159.3C137.07 158.3 138.38 157.47 139.47 156.45C140.68 155.31 141.82 154.08 142.73 152.69C142.93 152.56 143.7 150.72 143.73 151.13V151.12Z" fill="#405EA6"/>
<path d="M145.47 155.05C145.19 156.56 144.82 158.19 144.44 159.68C144.14 161.26 143.63 162.81 142.49 164.01C142.45 164.05 142.38 164.02 142.38 163.97C142.29 162.34 142.82 160.82 143.52 159.38C143.74 158.83 144.19 157.74 144.42 157.2C144.61 156.94 145.3 154.75 145.48 155.06L145.47 155.05Z" fill="#405EA6"/>
<path d="M64.06 103.71C67.64 106.38 72.23 113.27 71.83 117.61C70.25 115.03 69.36 112.15 68 109.48C67.07 107.72 66 106.02 64.68 104.52C64.6 104.34 63.73 103.7 64.06 103.71Z" fill="#405EA6"/>
<path d="M65.66 102.21C70.32 102.93 74.94 102.17 79.45 100.97C79.75 101.15 78.27 102.06 78.05 102.2C76.44 103.15 74.56 103.36 72.72 103.33C70.33 103.34 67.92 103.01 65.63 102.33C65.56 102.31 65.58 102.2 65.66 102.21Z" fill="#405EA6"/>
<path d="M91.26 198.94C93.15 194.89 98.97 189.01 103.3 188.51C101.1 190.58 98.46 192.03 96.11 193.91C94.57 195.17 93.12 196.57 91.93 198.16C91.77 198.27 91.32 199.26 91.26 198.93V198.94Z" fill="#405EA6"/>
<path d="M89.46 197.67C89.22 192.97 87.54 188.59 85.45 184.41C85.57 184.08 86.76 185.35 86.94 185.54C88.19 186.93 88.78 188.73 89.12 190.53C89.62 192.87 89.78 195.29 89.58 197.67C89.58 197.74 89.46 197.74 89.46 197.67Z" fill="#405EA6"/>
<path d="M244.01 54.15C244.01 54.15 240.73 53.47 238.5 51.89C231.31 47.87 233.55 58.83 230.05 65.97C227.38 73.54 220.08 91.53 218.07 101.11C212.37 128.27 212.4 146.26 210.5 149.26C208.6 152.26 206.18 158.15 210.15 158.23C214.12 158.3 230.68 156.41 237.29 159.79C243.9 163.17 273.3 169.75 284.97 170.94C296.64 172.12 329.9 185.84 339.62 187.61C349.34 189.38 354.39 198.7 357.26 196.59C360.13 194.48 356.09 189.71 356.26 187.12C361.53 173.9 380.86 123.79 378.28 101.07C378 98.51 377.13 95.42 378.2 93.7C380.23 90.42 380.37 89.09 379 87.36C377.88 85.95 376.49 86.29 375.03 87C373.72 87.64 363.8 87 355.02 81.55C346.53 76.27 331.89 72.24 321.25 70.31C310.61 68.38 293.8 61.95 280.52 58.02C266.96 54.01 252.66 55.28 244 54.16L244.01 54.15Z" fill="#4563AC"/>
<path d="M312.18 170.24C314.9 175.38 321.35 177.03 327.06 178.14C329.38 178.59 331.8 179.05 334.08 178.42C336.36 177.79 338.44 175.74 338.25 173.38C338.05 170.88 335.49 169.2 333.02 168.74C330.55 168.28 328 168.65 325.52 168.24C323.85 167.96 322.25 167.33 320.61 166.92C319.16 166.56 317.66 166.37 316.16 166.36C314.83 166.36 313.39 166.53 312.45 167.47C311.51 168.4 311.5 170.3 312.18 170.24Z" fill="#6089DB"/>
<path d="M317.34 141.64C326.13 134.93 337.64 133.28 348.6 131.84C351.54 131.46 354.84 131.17 357.16 133.01C358.97 134.45 359.71 136.92 359.56 139.23C359.41 141.54 358.47 143.72 357.44 145.78C355.45 149.75 353.04 153.51 350.26 156.97C349.53 157.87 348.75 158.78 347.7 159.28C346.68 159.76 345.52 159.81 344.4 159.82C339.8 159.86 335.19 159.4 330.69 158.47C326.68 157.64 322.58 156.33 319.7 153.42C316.83 150.51 315.63 145.6 317.35 141.64H317.34Z" fill="#6089DB"/>
<path d="M322.34 92.75C317.19 98.26 314.08 105.36 313.39 112.87L313.31 113.78C313.27 114.18 313.24 114.62 313.44 114.97C313.67 115.38 314.14 115.58 314.58 115.72C318.03 116.81 321.76 116.13 325.31 115.45C330.29 114.49 335.28 113.52 340.14 112.07C344.35 110.82 348.87 108.82 350.56 104.77C352.07 101.14 350.72 96.78 348.05 93.88C345.38 90.99 341.62 89.35 337.85 88.24C336.2 87.76 334.5 87.35 332.77 87.41C330.51 87.48 328.35 88.33 326.36 89.39C325.1 90.05 323.72 91.28 322.35 92.75H322.34Z" fill="#6089DB"/>
<path d="M290.29 171.91C294.78 172.99 300.47 174.78 306.42 176.78C305.11 174.02 304.11 172.44 304.11 169.73C304.11 166.66 305.92 151.93 306.96 144.31C308 136.69 307.77 126.95 306.96 115.56C306.15 104.17 302.21 87.62 299.32 82.87C296.43 78.12 296.52 78.26 296.79 74.73C297.06 71.2 293.29 69.78 293.29 69.78L275.32 127.9L290.29 171.91Z" fill="#405EA6"/>
<path d="M297.54 109.06C298.95 103.59 300.69 98.2101 302.73 92.9401C304.7 87.6401 307.11 82.3901 310.84 78.0801C310.88 78.0301 310.98 78.08 310.94 78.15C308.38 83.13 305.95 88.22 303.63 93.31C301.33 98.33 299.48 104.26 297.54 109.06Z" fill="#405EA6"/>
<path d="M299.27 110.42C300.44 107.88 301.72 105.4 303.09 102.96C304.04 101.15 305.19 99.2001 306.63 97.7401C306.9 97.5101 308.15 96.1101 308.32 96.4001C307.09 98.9001 305.55 101.22 303.92 103.47C302.37 105.78 300.87 108.12 299.37 110.47C299.33 110.53 299.23 110.48 299.26 110.41L299.27 110.42Z" fill="#405EA6"/>
<path d="M296.76 134.36C302.38 131.71 308.31 129.28 314.13 127.1C320.78 124.57 327.59 122.32 334.66 121.33C328.49 123.93 321.06 125.72 314.44 127.98C308.6 129.81 302.23 132.51 296.76 134.35V134.36Z" fill="#405EA6"/>
<path d="M298.22 136.53C301.46 135.54 304.79 134.66 308.11 133.96C310.18 133.5 312.31 133.01 314.44 132.98C315.73 132.93 317.04 132.98 318.31 133.21C318.37 133.22 318.38 133.32 318.31 133.33C314.59 134.17 310.8 134.57 307.03 135.11C304.1 135.58 301.16 136.08 298.25 136.65C298.18 136.67 298.14 136.55 298.22 136.53Z" fill="#405EA6"/>
<path d="M299.34 149.25C304.57 150.98 309.71 153.09 314.69 155.44C319.74 157.7 324.63 160.4 328.9 163.94C328.95 163.98 328.9 164.08 328.83 164.04C327.92 163.62 326.94 163.11 326.05 162.65C322.08 160.66 318.17 158.42 314.26 156.32C310.62 154.43 306.86 152.63 303.1 150.97C301.84 150.42 300.57 149.88 299.29 149.37C299.22 149.35 299.26 149.23 299.33 149.25H299.34Z" fill="#405EA6"/>
<path d="M299.35 152.3C304.08 154.47 311.54 158.87 312.75 164.02C310.12 161.4 307.72 158.56 304.82 156.24C303.08 154.83 301.24 153.54 299.3 152.41C299.24 152.38 299.28 152.27 299.35 152.3Z" fill="#405EA6"/>
<path d="M375.76 89.4501C371.45 90.7101 363.24 90.2601 359.97 87.3301C362.98 87.6101 365.82 88.6301 368.78 89.1401C370.74 89.4601 372.75 89.6201 374.74 89.4601C374.92 89.5001 375.99 89.1901 375.76 89.4601V89.4501Z" fill="#405EA6"/>
<path d="M376 91.6401C372.64 94.9401 370.47 99.1001 368.72 103.42C367.78 100.65 370.16 97.3701 372 95.2101C373.18 93.8601 374.48 92.6101 375.92 91.5501C375.98 91.5101 376.05 91.5901 376 91.6401Z" fill="#405EA6"/>
<path d="M353.96 188.67C352.56 184.4 352.73 176.19 355.55 172.82C355.37 175.84 354.45 178.71 354.04 181.68C353.79 183.65 353.7 185.66 353.92 187.64C353.89 187.82 354.23 188.88 353.96 188.66V188.67Z" fill="#405EA6"/>
<path d="M351.79 188.98C348.38 185.73 344.15 183.7 339.77 182.1C342.48 181.06 345.89 183.35 348.09 185.1C349.48 186.24 350.77 187.5 351.88 188.9C351.92 188.96 351.84 189.04 351.79 188.98Z" fill="#405EA6"/>
<path d="M154.57 78.81C154.57 78.81 151.24 79.15 148.63 78.31C146.02 77.47 143.66 78.51 144.14 82.68C144.62 86.84 145.08 86.26 144.82 94.29C144.56 102.31 143.02 121.67 143.99 131.41C146.74 159.03 152.19 176.17 151.28 179.6C150.37 183.03 149.84 189.38 153.65 188.25C157.46 187.13 172.68 180.32 180 181.56C187.32 182.79 217.34 180.21 228.83 177.82C240.32 175.43 276.17 178.49 285.96 177.25C295.76 176.01 303.39 183.37 305.49 180.5C307.59 177.63 302.3 174.29 301.69 171.77C301.08 169.24 304.57 140.75 303.31 123.33C302.39 110.66 300.94 94.57 296.75 83.0801C295.71 80.7201 293.95 78.0401 294.45 76.0801C295.4 72.3401 295.13 71.0301 293.3 69.8001C291.81 68.7901 290.58 69.54 289.41 70.65C288.36 71.65 278.7 74.04 268.69 71.48C259.01 69.01 243.82 69.5701 233.1 70.9401C222.38 72.3101 204.41 71.24 190.56 71.5C176.42 71.76 163.16 77.2801 154.58 78.8301L154.57 78.81Z" fill="#B5B8C9"/>
<path d="M186.67 79.19C185.37 76.34 157.86 85.89 155.37 89.36C149.47 97.59 154.72 111.94 153.16 121.7C152.77 126.58 151.81 131.41 151.61 136.3C151.34 147.98 154.38 159.48 156.04 171C156.29 173.64 157.64 175.17 160.39 175.27C169.15 176.09 179.12 168.72 178.89 159.54C178.39 156.65 178.51 153.23 176.24 151.37C171.12 147.16 164.85 152.03 162.21 147.84C159.57 143.64 159.87 137.78 165.84 134.33C168.57 132.95 171.84 132.94 174.55 131.54C177.26 130.13 179.06 126.06 176.72 124.1C174.85 122.53 171.19 123.05 170.56 120.69C170.72 115.73 173.96 111.05 177.26 107.5C177.82 106.94 178.43 106.36 178.63 105.6C178.97 104.35 178.12 103.11 177.28 102.12C173.37 98.18 167.97 90.79 173.6 86.18C175.79 84.67 178.73 85.12 181.35 84.67C183.97 84.22 187.66 81.41 186.66 79.22L186.67 79.19Z" fill="white"/>
<path d="M258.49 75.09C260.84 72.74 284.68 75.9101 288.56 79.0701C293.57 83.1501 296.65 96.6301 297.33 105.82C297.6 109.44 297.28 113.08 297.33 116.71C297.42 122.92 298.6 129.07 298.85 135.28C299.2 143.81 297.8 152.3 296.41 160.72C296.03 163.02 295.6 165.44 294.11 167.24C292.63 169.04 289.72 169.88 287.93 168.38C288.35 163.1 287.79 157.74 286.29 152.66C285.62 150.38 283.74 147.65 281.53 148.54C279.25 147.82 279.2 144.44 280.52 142.45C281.84 140.46 283.99 139.08 285.07 136.95C286.93 133.26 284.2 128.12 280.1 127.6C279.29 127.5 278.46 127.54 277.7 127.26C275.44 126.41 275.13 123.35 275.54 120.98C275.95 118.61 276.62 115.91 275.17 113.98C273.41 111.65 269.65 112 267.51 110.02C263.75 106.56 267.79 99.61 264.9 95.4C264.53 94.86 264.06 94.39 263.74 93.83C261.8 90.43 265.97 85.84 264.05 82.43C263.05 80.65 260.84 80.05 259.12 78.95C257.4 77.85 257.6 76 258.49 75.12V75.09Z" fill="white"/>
<path d="M281.19 170.93C278.82 167.43 272.71 166.77 271.02 165.68C269.32 164.59 271.09 162.42 272.38 160.32C273.67 158.22 270.96 155.1 269.12 153.94C267.29 152.79 264.58 150.89 264.58 150.89C265.33 151.3 266 150.89 268.58 151.03C271.16 151.17 269.39 151.44 272.24 155.37C275.09 159.3 278.14 157.85 278.14 157.85C272.57 157.55 273.6 151.03 272.58 149C271.56 146.97 266.54 147.1 264.51 146.17C262.47 145.24 264.11 141.54 264.99 138.84C265.87 136.14 263.36 133.06 260.45 131.43C257.53 129.8 257.6 127.97 257.77 125.53C257.94 123.09 257.77 120.03 257.77 120.03C258.35 120.98 257.77 123.49 258.48 125.12C260.24 129.26 262.99 126.78 262.99 126.78C258.95 126.2 261.03 121.07 261.11 117.8C261.19 114.53 258.55 112.44 256.19 111.56C253.84 110.68 253.59 108.17 253.39 104.03C253.19 99.8901 249.52 97.6501 247.01 96.8401C244.5 96.0301 243.82 91.4101 242.4 88.7301C240.98 86.0501 237.11 83.9501 232.84 84.5601C228.57 85.1701 225.11 82.8601 219.95 82.1901C214.8 81.5101 212.42 84.5601 209.96 86.0601C200.08 86.5201 194.52 94.8801 194.52 94.8801C190.45 95.4201 187.87 104.1 187.6 106.21C187.33 108.31 185.63 109.8 182.78 112.11C179.93 114.42 181.4 119.47 181.4 119.47C182.06 115.03 185.97 114.15 185.97 114.15C185.97 114.15 185.22 117.47 185.63 120.05C186.04 122.63 187.12 123.92 186.78 126.02C186.44 128.12 183.39 131.99 184.81 136.13C186.23 140.27 188.74 141.28 189.08 143.15C189.42 145.02 188.54 147.32 185.96 150.23C183.38 153.15 184.02 156.1 184.02 156.1C184.25 153.49 187.72 152.37 187.72 152.37C187.31 153.22 188.4 155.05 188.52 156.98C188.64 158.91 185.82 158.3 183.58 164C181.34 169.7 187.18 170.78 182.56 174.27C179.07 176.91 177.68 180.06 177.21 181.43C178.22 181.38 179.15 181.42 179.98 181.56C187.3 182.79 217.32 180.21 228.81 177.82C240.3 175.43 276.15 178.49 285.94 177.25C287.71 177.03 289.41 177.08 291.03 177.31C287.72 173.53 283.55 174.44 281.18 170.94L281.19 170.93Z" fill="#A3AABC"/>
<path d="M243.56 96.3401C246.8 90.8601 252.62 82.6201 258.75 80.9401C256.03 83.3201 253.29 85.6301 250.66 88.1101C248.1 90.6701 245.75 93.4401 243.67 96.4001C243.63 96.4601 243.53 96.4001 243.57 96.3401H243.56Z" fill="#A3AABC"/>
<path d="M244.89 96.33C246.54 94.44 250.51 89.9 253 90.26C251.8 91.8 250.13 92.72 248.54 93.78C247.33 94.63 246.14 95.5 244.97 96.42C244.92 96.47 244.84 96.39 244.88 96.33H244.89Z" fill="#A3AABC"/>
<path d="M186.75 138.28C183.48 139 180.23 139.82 177 140.71C173.81 141.7 170.58 142.67 167.27 143.19C167.21 143.2 167.17 143.11 167.23 143.08C167.96 142.64 168.71 142.23 169.49 141.9C172.36 140.54 175.54 140.02 178.63 139.39C180.49 139.03 182.36 138.73 184.24 138.47C185.07 138.35 185.91 138.25 186.74 138.16C186.81 138.16 186.83 138.27 186.76 138.28H186.75Z" fill="#A3AABC"/>
<path d="M186.77 138.89C183.45 140.67 180.73 143.37 177.27 144.86C176.97 144.77 177.91 143.75 178.04 143.57C179.29 142.07 181.12 141.33 182.8 140.44C184.08 139.82 185.38 139.25 186.72 138.78C186.79 138.76 186.84 138.86 186.77 138.89Z" fill="#A3AABC"/>
<path d="M186.09 137.64C182.96 137.04 179.68 137.44 176.66 136.33C176.51 136.07 177.67 135.9 177.87 135.84C179.5 135.49 181.1 136.07 182.67 136.43C183.84 136.74 184.99 137.09 186.12 137.52C186.18 137.54 186.16 137.65 186.09 137.64Z" fill="#A3AABC"/>
<path d="M176.69 87.5701C179.51 89.4001 182.21 91.44 184.79 93.59C186.71 95.12 188.74 96.9201 190.21 98.8801C190.74 99.5501 191.22 100.25 191.66 100.97C191.69 101.02 191.62 101.09 191.57 101.05C188.86 99.07 186.5 96.68 184.13 94.31C182.32 92.59 180.44 90.89 178.54 89.26C178.34 89 176.27 87.57 176.68 87.55L176.69 87.5701Z" fill="#A3AABC"/>
<path d="M183.64 89.2001C186.17 91.5001 191.79 96.5301 191.93 99.8101C190.02 98.1101 188.69 95.9501 187.21 93.9101C186.03 92.3401 184.82 90.8001 183.55 89.2901C183.5 89.2401 183.58 89.1501 183.64 89.2001Z" fill="#A3AABC"/>
<path d="M182.36 98.0001C184.78 98.1401 187.51 98.4601 189.47 100.01C189.71 100.21 190.75 101.35 190.45 101.54C188.84 101.05 187.5 100.13 186.01 99.4101C184.82 98.8801 183.61 98.4501 182.35 98.1201C182.28 98.1101 182.29 98.0001 182.36 98.0001Z" fill="#A3AABC"/>
<path d="M262.96 134.77C267.3 133.36 275.5 130.43 279.62 131.77C276.57 132.71 273.41 132.99 270.27 133.48C267.83 133.89 265.41 134.35 263 134.89C262.93 134.91 262.89 134.8 262.96 134.77Z" fill="#A3AABC"/>
<path d="M263.67 135.52C265.86 134.71 268.55 134.45 270.84 134.92C271.56 135.11 274.44 136.44 272.05 136.22C270.59 136.25 269.2 135.79 267.77 135.61C266.42 135.47 265.05 135.43 263.7 135.63C263.63 135.65 263.59 135.54 263.66 135.51L263.67 135.52Z" fill="#A3AABC"/>
<path d="M272.71 264.27C272.71 264.27 273.2 271.59 275.99 284.67C275.99 284.67 259.2 293.63 234.99 293.63C210.78 293.63 197.54 284.67 197.54 284.67C200.33 271.59 199.53 261.86 199.53 261.86C199.53 261.86 212.82 253.58 234.99 253.58C257.16 253.58 272.71 264.27 272.71 264.27Z" fill="#F6AF9A"/>
<path d="M291.41 332.48C291.59 336.84 277.29 344.45 270.95 347.56L269.4 347.65H269.27C252.57 348.61 227.18 350.06 210.53 351.01C203.26 346.5 183.48 336.01 183.05 328.91C183.29 313.71 190.19 296.23 197.54 284.67C215.67 277.49 254.17 277.81 272.92 283.51C276.22 284.64 275.86 284.26 277.89 287.38C285.23 297.93 291.91 317.8 291.41 332.48Z" fill="#F6AF9A"/>
<path d="M293.96 327.65C289.78 333.07 281.42 341.64 273.65 347.41C252.71 348.6 225.54 350.15 204.62 351.35C194.53 344.72 185.18 335.41 179.2 327.65C179.55 310.87 188.15 293.33 196.46 281.92C196.65 282.19 197.03 273.22 199.29 272.94C210.16 275.31 224.47 275.31 236.21 275.43C249.05 275.28 261.5 275.33 273.65 272.99C276.21 272.73 276.34 281.62 276.69 281.92C284.84 293.02 293.7 311.13 293.95 327.65H293.96Z" fill="#5274C7"/>
<path d="M233.69 335.14C233.66 339.44 233.56 344.98 233.44 349.7C217.15 350.5 196.55 352.07 180.42 352.56C180.74 346.51 181.63 340.12 182.48 334.53C182.42 329.47 183.94 324.38 186.74 320.19C201.04 298.79 234.47 309.62 233.7 335.14H233.69Z" fill="#F9C4B9"/>
<path d="M236.15 349.55C222.37 350.34 202.76 351.46 189.12 352.23C184.33 352.59 179.5 352.65 174.72 352.43C174.95 345.32 175.47 338.3 176.15 332.84C176.75 327.08 177.71 327.45 181.4 327.8C183.4 312.87 195.76 303.57 209.59 304.2C232.53 304.71 236.55 331.39 236.15 349.55Z" fill="#5274C7"/>
<path d="M293.36 346.29C287.7 346.61 276.48 347.25 270.96 347.57C269.64 347.65 243.32 349.15 241.35 349.26C241.06 344.23 240.61 338.42 240.59 333.78C240.71 318.96 254.51 306.79 269.56 308.95C278.83 310.11 286.88 316.58 290.12 325.18C291.3 328.27 291.87 331.57 291.8 334.91C292.46 338.48 292.97 342.36 293.36 346.29Z" fill="#F9C4B9"/>
<path d="M299.23 345.95C281.3 346.97 257.37 348.34 239.29 349.37C239.33 338.92 238.16 327.51 242.34 317.87C248.67 304.86 259.29 302.78 270.04 304.71C281.62 307.49 289.36 316.87 293.76 325.51C296.23 325.32 296.97 325.58 297.56 327.64C297.93 328.83 298.92 334.79 299.22 345.94L299.23 345.95Z" fill="#5274C7"/>
<path d="M279.15 175.02C263.15 167.82 281.63 167.99 272.15 158.32C269.51 155.88 266.23 154.04 265.38 151.64C268.52 154.88 273.63 153.45 275.98 153.63C278.8 153.85 277.08 155.55 278.41 159.61C279.73 163.67 283.34 163.54 283.34 163.54C279.81 162.89 280.09 160.22 279.71 155.41C279.33 150.6 274.74 150.74 270.7 149.82C266.65 148.9 268.98 144.16 268.98 144.16C270.15 142.57 270.59 140.88 268.65 137.36C265.22 131.16 261.56 132.81 263.09 127.89C264.08 124.7 264.62 121.71 263.76 118.63C270.46 118.81 266.31 122.78 267.56 127.55C268.76 130.72 270.68 128.96 270.68 128.96C267.56 127.55 268.81 125.93 269.55 120.78C271.14 111.32 259.54 116.66 258.86 108.78C258.87 106.98 259.82 105.44 259.19 102.35C258.13 97.16 254.39 98.22 252.64 95.43C250.89 92.64 249.8 84.97 242.88 84.4C231.53 84.47 230.11 76.12 219.83 82.02C219.83 82.02 206.87 82.88 202.66 89.37C197.39 90.96 196.56 100.62 190.25 101.7C185.31 103.16 183.49 108.42 185.04 112.28C184.88 109.38 186.51 104.97 193.08 105.24C188.57 112.2 194.92 116.27 191.11 122.96C188.21 127.88 188.56 131.36 192.32 136.03C192.21 142.22 181.56 144.58 183.83 151.38C183.99 147.42 189.17 145.23 192.55 142.42C191.54 145.21 188.6 146.49 191.74 151.61C194.56 156.21 188.15 156.34 185.58 161.55C182.76 167.26 188.74 168.51 186.02 172.3C182.77 176.84 177.73 178.93 177.79 182.57C177.85 186.21 181.13 187.16 180.96 189C180.79 190.83 172.58 198.06 179.18 196.41C185.78 194.76 229.06 193.98 240.86 195.61C258.29 199.04 276.39 192.25 284.18 182.64C284.18 182.64 284.24 177.85 279.16 175L279.15 175.02Z" fill="#121D3B"/>
<path d="M305.27 214.26C297.49 192.49 291.96 184.1 291.96 184.1C283.69 167.42 257.26 176.63 261.51 195.06C268.12 215.73 291.34 250.03 299.11 266.01C302.6 280.65 324.52 275.84 321.51 261.05C321.09 259.27 313.5 237.51 305.27 214.26Z" fill="#693C42"/>
<path d="M311.13 221.7C306.34 230.43 293.11 238.62 282.65 238.9C278.75 232.62 274.85 226.33 270.95 220.05C270.83 205.97 273.88 187.82 277.77 175.92C294.99 173.29 300.73 196.38 311.13 221.7Z" fill="#A9ACBF"/>
<path d="M275.24 201.18C277.24 198.29 281.09 190 283.87 189.21C286.65 188.42 291.43 197.41 291.43 197.41C291.43 197.41 298.06 212.67 301.69 219.79C302.34 220.87 302.1 222.06 301.11 222.84C298.92 224.75 294.15 229.81 291.52 230.23C290.97 230.15 290.56 229.71 290.2 229.29C283.6 221.57 277.56 204.68 275.25 201.18H275.24Z" fill="white"/>
<path d="M290.64 237.83C287.74 238.97 285.24 239.55 283.57 239.86C278.93 233.57 275.22 226.61 270.96 220.05C270.98 215 271.3 209.23 271.91 203.97C273.19 201.84 274.46 200.31 275.24 199.42C276.67 206.31 286.45 226.52 290.64 237.84V237.83Z" fill="#A1A6BB"/>
<path d="M311.45 218.3C311.29 217.85 310.7 217.77 310.41 218.15C308.02 221.39 303.69 226.34 296.79 230.25C290.09 234.05 283.82 235.25 279.94 235.67C279.53 235.71 279.29 236.15 279.47 236.52C280.22 238.06 281.12 240.03 281.83 241.48C281.93 241.69 282.15 241.82 282.38 241.81C285.8 241.7 292.33 241 299.24 237.05C306.99 232.63 311.82 227.49 313.57 224.56C313.66 224.41 313.68 224.24 313.63 224.08C313.17 222.62 312.09 220.08 311.45 218.3Z" fill="#E4EAF0"/>
<path d="M149.95 268.28C149.95 268.28 160.88 239.27 169 217.62C177.12 195.98 182.79 187.67 182.79 187.67C186.19 181.27 193.59 177.71 200.97 179.47C209.73 181.56 215.15 190.35 213.06 199.12C212.86 199.94 212.61 200.73 212.3 201.49C209.54 209.32 197.02 231.98 193.04 237.67C189.06 243.36 171.92 275 171.92 275C168.75 280.99 164.27 284.97 158.11 283.5C151.95 282.03 148.14 275.85 149.61 269.69C149.72 269.22 149.87 268.76 150.03 268.31L149.94 268.28H149.95Z" fill="#693C42"/>
<path d="M202.14 224.85C198.49 231.32 194.66 237.63 190.87 244.01C179.42 243.07 167.69 237.15 161.41 227.15C165.83 212.94 175.39 181.49 190.47 179.75C191.77 179.75 192.25 180.69 194.6 180.18C198.96 194.76 201.48 209.56 202.14 224.85Z" fill="#A9ACBF"/>
<path d="M189.05 193.83C185.7 194.33 182.87 198.18 181.67 200.59C177.79 208.35 173.97 216.14 170.72 224.18C170.18 225.51 169.66 227.02 170.25 228.33C170.67 229.27 171.57 229.89 172.43 230.46C173.78 231.35 175.13 232.25 176.48 233.14C177.88 234.07 179.31 235.01 180.94 235.41C181.22 235.48 181.53 235.53 181.79 235.41C182.08 235.29 182.26 235 182.41 234.73C186.85 227.16 190.38 219.06 192.91 210.65C193.11 210 193.3 209.33 193.31 208.65C193.32 208.07 193.2 207.49 193.08 206.92C192.22 202.75 190.87 197.33 189.03 193.82L189.05 193.83Z" fill="white"/>
<path d="M201.66 222.82C198.42 230.07 195.12 237.28 190.87 244.01C188.67 243.81 186.53 243.49 184.43 242.98C187.13 231.23 194.24 209.92 194.78 202.91C195.67 203.69 197.12 205.05 198.67 206.99C199.95 212.19 200.98 217.7 201.67 222.82H201.66Z" fill="#A1A6BB"/>
<path d="M161 223.65C161.16 223.2 161.75 223.12 162.04 223.5C164.43 226.74 168.76 231.69 175.66 235.6C182.36 239.4 188.63 240.6 192.51 241.02C192.92 241.06 193.16 241.5 192.98 241.87C192.23 243.41 191.33 245.38 190.62 246.83C190.52 247.04 190.3 247.17 190.07 247.16C186.65 247.05 180.12 246.35 173.21 242.4C165.46 237.98 160.63 232.84 158.88 229.91C158.79 229.76 158.77 229.59 158.82 229.43C159.28 227.97 160.36 225.43 161 223.65Z" fill="#5F6487"/>
<path d="M281.5 194.56C278.24 201.94 271.89 210.07 273.37 215.6C279.4 238.11 273.48 242.72 273.02 258.35C272.93 261.22 272.12 262.99 272.23 266.81C272.5 276.32 256.12 277.21 250.68 273C244.45 268.18 241.9 264.05 236.2 263.72C230.5 264.05 227.71 266.83 221.99 272.24C214.06 279.75 199.73 276.02 199.73 265.45C199.73 261.63 199.47 261.22 199.38 258.35C198.91 242.72 190.08 240.76 196.11 218.25C197.59 212.72 194.16 205.99 190.9 198.61C187.84 191.69 188.05 181.53 191.2 180.16C195.16 178.44 199.06 178.68 202.21 177.55C202.71 177.37 203.21 177.19 203.7 177.01C204.78 176.62 205.82 176.24 206.84 175.87C209.78 174.8 212.44 173.83 214.88 172.96C224.22 169.63 230.34 167.79 236.22 167.79C242.42 167.79 246.71 168.24 251.55 169.14C252.68 169.35 253.83 169.58 255.05 169.84C257.31 170.32 259.78 170.89 262.65 171.54C266.12 172.33 270.19 173.24 275.2 174.27C276.68 174.58 278.08 174.73 279.88 175.35C283.12 176.48 284.6 187.62 281.54 194.54L281.5 194.56Z" fill="#693C41"/>
<path d="M244.72 171.39L242.05 153.37C240.77 137.73 217.46 139.23 218.21 154.92C218.18 156.1 217.83 174.87 217.85 175.37C219.66 194.68 248.59 190.4 244.73 171.39H244.72Z" fill="#693C41"/>
<path d="M231.19 170.6C232.54 170.42 238.07 169.55 243.63 164.09C242.3 154.71 242.24 141.75 229.35 142.23C216.5 143.42 218.11 156.29 218.01 165.75C224.23 170.45 229.83 170.6 231.19 170.6Z" fill="#613439"/>
<path d="M279.84 175.38C269.32 172.96 260.9 171.16 251.51 169.16C245.45 180.93 225.46 185.41 214.85 172.98C211.05 174.34 206.31 176.08 202.18 177.57C199.03 178.71 195.13 178.47 191.17 180.18C188.02 181.55 187.46 191.67 190.52 198.58C193.78 205.96 193.47 227.94 193.47 232.35C193.47 244.33 196.83 255.02 196.83 268.52C197.13 282.33 217.14 279.81 233.71 279.77C250.29 279.73 276.34 281.71 276.07 272.2C276.03 270.61 274.28 262.36 275.73 254.18C278.19 240.33 272.48 217.92 282.61 194.33C285.67 187.41 283.08 176.52 279.84 175.39V175.38Z" fill="#A9ACBF"/>
<path d="M264.71 199.54C262.07 200.14 251.28 197.78 250.01 197.54C243.64 193.95 229.41 191.48 213.91 199.73C212.45 200.5 211.03 201.42 209.41 201.76C201.91 203.29 196.1 192.3 189.04 193.83C189.37 195.48 189.86 197.1 190.51 198.58C193.73 205.86 193.46 227.38 193.46 232.17C194.95 232.4 196.54 232.43 198 232.47C201.83 232.6 205.63 233.39 209.19 234.8C211.53 235.72 213.8 236.92 216.3 237.24C231.97 235.92 247.76 234.4 263.52 236.49C268.82 237.37 269.87 234.58 271.03 230.03C271.95 227.3 273.93 224.97 276.42 223.53C276.42 207.47 283.62 195.47 283.87 189.2C271.94 191.15 277.36 196.67 264.71 199.54Z" fill="white"/>
<path d="M199.41 242.86C199.41 242.86 212.98 251.59 226.99 242.86C226.99 242.86 214.53 246.47 199.41 242.86Z" fill="#A1A6BB"/>
<path d="M244.9 242.86C258.91 251.59 272.48 242.86 272.48 242.86C272.48 242.86 265.42 244.8 258.69 244.8C251.96 244.8 244.9 242.86 244.9 242.86Z" fill="#A1A6BB"/>
<path d="M209.86 174.16C209.57 174.35 209.5 174.75 209.69 175.04C214.99 183.24 224.52 187.04 234.13 186.44C244.67 185.77 253.27 180.57 256.95 170.5C257.08 170.14 256.89 169.75 256.54 169.62C255.28 169.16 252.41 168.62 251.26 168.56C250.99 168.55 250.74 168.68 250.61 168.91C249.57 170.69 244.13 179.01 233.2 179.71C223.4 180.34 217.13 174.18 215.62 172.51C215.39 172.26 215.06 172.14 214.73 172.2C213.48 172.43 210.97 173.42 209.86 174.17V174.16Z" fill="#979DB3"/>
<path d="M226.08 88.81C269.93 82.62 259.66 164.84 230.82 166.31C201.97 168.53 181.85 88.32 226.08 88.81Z" fill="#693C41"/>
<path d="M229.12 110.82C228.15 112.81 226.61 114.52 224.74 115.7C223.73 116.34 222.6 116.84 221.81 117.74C221.33 118.28 221 118.93 220.55 119.49C219.02 121.34 216.25 121.92 214.97 123.95C214.37 124.9 214.19 126.04 214.02 127.15C213.31 130.58 213.39 134.01 213.73 137.46C213.01 142.99 210.32 146.41 214.61 151.59C218.63 155.73 223.63 160.43 229.48 161.3C237.57 161.92 240.72 151.7 244.75 146.18C246.39 140.52 241.9 134.03 242.71 131.2C244.15 126.23 240.8 121.56 237.77 117.9C237.34 120.67 234.55 121.97 233.23 119.07C232.87 118.21 232.8 117.26 232.61 116.34C232.1 114.4 231.16 111.96 229.24 111.1C228.84 111.05 228.37 111.38 229.12 110.83V110.82Z" fill="#9E5959"/>
<path d="M241.18 130.66C241.41 135.35 235.93 135.71 235.55 131.03C235.32 126.34 240.8 125.98 241.18 130.66Z" fill="#121D3F"/>
<path d="M221.24 131.96C221.47 136.69 215.95 137.05 215.57 132.33C215.34 127.6 220.86 127.24 221.24 131.96Z" fill="#121D3F"/>
<path d="M228.85 144.71C226.85 144.81 223.7 144.39 224.9 141.65C226.73 137.91 227.52 132.04 227.53 131.98C227.64 131.03 229.14 131.22 229 132.17C228.97 132.42 228.18 138.34 226.24 142.3C225.67 143.44 228.34 143.25 229.85 143.13C230.26 143.08 230.63 143.36 230.68 143.77C230.7 144.78 229.73 144.62 228.86 144.7L228.85 144.71Z" fill="#723333"/>
<path d="M235.02 127.42C234.98 128.04 234.99 128.66 235.05 129.27C236.74 128.97 238.46 128.92 240.17 128.88L241.62 128.84C241.52 128.14 241.41 127.45 241.31 126.75C240.28 127.09 239.17 126.95 238.09 126.89C237.01 126.83 235.84 126.89 235.03 127.41L235.02 127.42Z" fill="#914D4D"/>
<path d="M235.27 130.19C234.9 130.19 234.57 129.92 234.52 129.54C234.46 129.13 234.75 128.74 235.16 128.68H235.18C237.32 128.38 239.01 128.14 241.79 128.34C242.21 128.37 242.52 128.73 242.49 129.15C242.46 129.57 242.1 129.88 241.68 129.85C239.07 129.66 237.53 129.88 235.39 130.18H235.37C235.37 130.18 235.3 130.18 235.26 130.18L235.27 130.19Z" fill="#723333"/>
<path d="M214.94 128.76C214.9 129.38 214.91 130 214.97 130.61C216.66 130.31 218.38 130.26 220.09 130.22L221.54 130.18C221.44 129.48 221.33 128.79 221.23 128.09C220.2 128.43 219.09 128.29 218.01 128.23C216.93 128.17 215.76 128.23 214.95 128.75L214.94 128.76Z" fill="#9E5959"/>
<path d="M215.19 131.54C214.82 131.54 214.49 131.27 214.44 130.89C214.38 130.48 214.67 130.09 215.08 130.03H215.1C217.24 129.73 218.93 129.49 221.71 129.69C222.13 129.72 222.44 130.08 222.41 130.5C222.38 130.92 222.02 131.23 221.6 131.2C218.99 131.01 217.45 131.23 215.31 131.53H215.29C215.29 131.53 215.22 131.53 215.18 131.53L215.19 131.54Z" fill="#723333"/>
<path d="M231.76 123.01C230.33 127.01 237.82 123.78 243.93 124.52C247.07 124.9 246.52 123.01 242.78 122.63C239.54 122.3 231.87 121.95 231.75 123.02L231.76 123.01Z" fill="#12233F"/>
<path d="M225.34 123.36C227.34 127.11 219.53 125.11 213.57 126.67C210.51 127.47 210.74 125.54 214.38 124.61C217.54 123.8 225.07 122.32 225.34 123.36Z" fill="#12233F"/>
<path d="M245.02 141.99C244.82 140.19 244.29 138.41 243.77 136.79C239.23 136.29 232.87 137.92 233.36 140.83C233.71 144.03 240.77 143.44 245.01 141.99H245.02Z" fill="#914D4D"/>
<path d="M222.44 141.53C222.53 138.99 217.73 138.04 213.56 138.52C213.17 140.71 212.54 142.57 212.32 144.4C216.68 144.99 222.51 144.45 222.45 141.53H222.44Z" fill="#914D4D"/>
<path d="M234.95 148.94C234.85 148.79 234.69 148.68 234.51 148.65C234.48 148.65 234.37 148.62 234.18 148.59C233.09 148.43 229.15 147.98 224.22 149.14C224.04 149.18 223.89 149.3 223.8 149.45C223.72 149.6 223.7 149.77 223.75 149.93C223.82 150.15 224.02 150.32 224.24 150.37C224.34 150.39 224.45 150.39 224.56 150.37C229.98 149.1 234.22 149.88 234.27 149.89C234.63 149.96 234.98 149.74 235.05 149.4C235.08 149.24 235.05 149.08 234.96 148.94H234.95Z" fill="#723333"/>
<path d="M227.22 152.97C227.11 152.95 227.04 152.94 227.03 152.94C226.79 152.9 226.62 152.67 226.67 152.43C226.71 152.19 226.94 152.04 227.19 152.08C227.23 152.08 229.92 152.55 231.78 151.85C232.01 151.76 232.27 151.88 232.36 152.1C232.45 152.32 232.34 152.58 232.11 152.66C230.29 153.34 227.92 153.06 227.23 152.96L227.22 152.97Z" fill="#914D4D"/>
<path d="M218.54 137.3C216.49 137.3 215.31 135.53 215.26 135.45C215.07 135.16 215.15 134.77 215.44 134.58C215.73 134.39 216.12 134.47 216.31 134.76C216.31 134.77 217.2 136.08 218.61 136.03C219.79 135.99 220.85 135.06 221.14 133.81C221.22 133.47 221.56 133.26 221.89 133.34C222.23 133.42 222.44 133.76 222.36 134.09C221.94 135.92 220.41 137.23 218.65 137.28C218.61 137.28 218.58 137.28 218.54 137.28V137.3Z" fill="#914D4D"/>
<path d="M238.38 135.95C238.38 135.95 238.31 135.95 238.27 135.95C236.5 135.9 234.98 134.58 234.56 132.76C234.48 132.42 234.69 132.08 235.03 132.01C235.37 131.93 235.71 132.14 235.78 132.48C236.07 133.73 237.13 134.66 238.3 134.7C239.73 134.74 240.59 133.44 240.6 133.43C240.79 133.14 241.18 133.06 241.47 133.25C241.76 133.44 241.84 133.83 241.65 134.12C241.6 134.2 240.42 135.97 238.37 135.97L238.38 135.95Z" fill="#914D4D"/>
<path d="M264.96 191.33C267.02 187.3 272.34 183.27 271.6 176.1C271.1 171.24 260.36 151.98 261.64 136.66C263.77 117.3 252.33 80.49 227.78 86.18C199.41 81.85 191.44 120.78 196.08 142.07C197.83 155.51 188.02 167.07 189.36 180.44C190.58 184.71 194.52 186.91 195.79 191.15C196.64 194.02 199.59 194.61 200.55 196.16C201.5 197.71 201.76 199.67 200.66 199.78C202.12 200.17 202.91 198.76 202.69 196.03C202.48 193.31 197.25 186.99 200.89 184.93C204.53 182.88 201.73 192.82 204.16 197.92C205.38 200.46 209.29 202.24 211.44 204.65C213.59 207.07 213.21 209.73 208.81 208.9C214 215.02 217.34 209.27 217.26 203.53C216.95 196.09 211.53 200.04 211.25 186.7C211.25 163.46 195.71 149.19 198.91 131.02C202.29 127.41 205.84 132.51 206.3 135.85C206.77 139.19 205.66 138.37 208.44 141.2C212.06 145.93 205.08 149.85 210.27 157.34C208.84 152.2 210.73 150.43 211.74 145.63C212.61 138.07 205.32 135.19 210.46 126.66C208.17 133.44 213.2 133.33 212.64 139.77C213.1 137.31 212.9 135.49 212.48 132.95C211.57 128.83 214.36 125.02 214.31 120.89C214.56 117.29 214.34 113.87 217.77 111.73C217.75 112.21 217.58 112.56 217.36 112.97C216.04 115.46 219.58 115.69 217.87 119.31C219.2 117.77 219.17 116.68 219.31 114.66C219.69 111.05 226.31 111.81 228.22 104.12C229.55 106.28 231.3 108.24 233.21 109.83C234.83 111.18 236.24 112.25 235.4 114.38C234.56 116.51 234.3 117.9 235.45 119.95C234.57 114.28 239.11 116.84 237.91 110.61C243.49 112.75 241.32 118.51 243.47 122.81C246.8 128.5 243.37 128.97 243.94 133.62C244.15 128.34 249.55 131.15 246.7 124C249.15 127.04 249.49 132.31 247.36 135.58C242.72 142.3 250.05 147.96 247.63 154.62C252.73 148.1 245.69 143.08 249.18 138.28C251.8 135.18 253.07 132.67 252.85 128.85C253.32 125.57 256.73 122.28 257.98 127.81C258.91 131.95 255.19 137.56 254.35 141.83C251.74 149.27 246.88 170.35 246.65 174.55C246.3 181.12 249.94 183.15 249.33 187.32C248.73 191.49 245.21 191.94 243.97 196.67C242.51 202.25 245.71 208.02 252.41 204.99C247.97 204.34 248.8 202.31 252.03 199.03C255.59 195.35 260.49 193.36 260.8 186.28C254.59 164.18 265.78 172.27 264.35 182.63C263.53 184.92 261.69 185.48 260.87 190.1C259.92 195.33 265.56 200.35 267.76 194.29C264.4 196 263.42 194.29 264.94 191.3L264.96 191.33Z" fill="#121D3B"/>
<path d="M204.99 168.49C205.82 172.86 209.07 176.56 209.52 180.98C209.88 184.49 208.43 188.11 209.33 191.52C209.91 193.73 211.42 195.58 212.97 197.26C213.56 197.89 214.2 198.67 214.01 199.51C213.75 200.69 212.06 201.03 211.65 202.17C209.79 200.91 207.85 199.58 206.79 197.6C205.95 196.04 205.73 194.24 205.53 192.49C205.24 189.97 204.95 187.45 204.65 184.92C204.48 183.45 203.74 182.54 203.56 180.98C202.9 175.24 206.18 174.38 202.23 167.49C201.72 166.6 201.07 165.71 201.07 164.69C201.07 163.65 201.76 162.75 202.41 161.94C202.7 161.58 202.98 161.22 203.27 160.86C203.4 160.7 203.54 160.53 203.73 160.45C204.28 160.23 204.77 160.87 204.99 161.42C205.92 163.82 205.94 166.55 204.99 168.48V168.49Z" fill="#192B4F"/>
<path d="M194.44 160.95C193.21 162.2 191.94 163.54 191.51 165.24C190.99 167.3 191.82 169.57 191.06 171.55C190.58 172.79 189.5 173.93 189.74 175.23C189.9 176.09 190.6 176.72 191.13 177.4C192.42 179.07 192.82 181.24 193.31 183.3C193.62 184.61 194.1 186.04 195.29 186.68C195.41 186.74 195.55 186.8 195.68 186.77C195.97 186.7 196.02 186.32 196.03 186.03C196.11 183.71 197.28 181.6 198.2 179.48C199.12 177.36 199.78 174.88 198.83 172.76C197.78 170.41 194.93 168.98 194.56 166.43C194.31 164.7 195.25 162.68 194.44 160.95Z" fill="#192B4F"/>
<path d="M252.77 155.91C252.79 160.95 249.91 165.55 249.24 170.54C248.81 173.71 249.31 177.01 250.65 179.92C251.23 181.18 251.97 182.37 252.41 183.69C253.11 185.79 252.99 188.09 252.5 190.25C252.34 190.95 252.22 191.85 252.82 192.23C253.69 192.79 254.57 191.57 255.13 190.69C255.81 189.62 256.84 188.78 257.39 187.63C258.26 185.8 257.69 183.62 256.94 181.74C256.19 179.86 255.24 177.94 255.39 175.92C255.53 174.08 256.58 172.36 256.51 170.51C256.42 168 254.3 165.89 254.26 163.38C254.22 160.78 256.41 158.57 256.44 155.97C256.46 154.3 255.5 152.66 254.03 151.87C253.93 151.82 253.82 151.77 253.71 151.79C253.53 151.83 253.45 152.04 253.4 152.21C253.01 153.7 252.77 155.25 252.77 155.92V155.91Z" fill="#192B4F"/>
<path d="M263.47 158.61C261.31 159.69 259.89 162.11 260 164.52C260.13 167.41 262.17 169.8 263.98 172.06C265.79 174.32 267.55 177.05 267.01 179.89C266.81 180.93 266.31 182 266.65 183C266.71 183.18 266.81 183.36 266.96 183.47C267.56 183.9 268.25 183.07 268.5 182.37C269.34 180.06 269.92 177.57 269.5 175.15C269.29 173.92 268.82 172.75 268.36 171.59C266.68 167.37 265 163.16 263.32 158.94C263.48 158.84 263.65 158.74 263.47 158.6V158.61Z" fill="#192B4F"/>
<path d="M224.69 99.82C223.4 98.08 220.73 99.6 219.11 100.78C217.23 102.15 215.76 104.45 214.98 106.86C213.72 109.53 209.64 111.27 207.86 113.62C204.56 118.31 206.96 119.82 203.73 126.21C203.48 127.01 203.41 128.15 204.21 128.4C205.01 128.65 205.6 127.68 205.9 126.9C206.51 125.31 207.26 123.77 208.23 122.38C209.11 121.12 210.17 119.99 210.96 118.68C212.01 116.94 212.55 114.95 213.45 113.13C216.76 106.68 220.29 110.46 222.7 106.72C223.5 105.47 226.1 101.73 224.69 99.82Z" fill="#192B4F"/>
<path d="M230.12 99.84C229.09 101.86 231.7 104.26 233.81 105.08C235.08 105.58 236.48 105.62 237.77 106.04C239.5 106.61 241 107.88 241.83 109.5C242.67 111.13 242.83 113 243.27 114.78C243.71 116.56 244.56 118.4 246.2 119.22C246.98 119.61 247.91 119.74 248.56 120.32C249.71 121.36 249.55 123.43 250.86 124.26C251.05 124.38 251.28 124.47 251.51 124.46C252.21 124.42 252.53 123.57 252.6 122.87C252.9 119.75 251.53 116.53 249.09 114.56C248.26 113.9 247.33 113.37 246.46 112.76C243.87 110.94 241.87 108.3 240.81 105.32C240.51 104.48 240.29 103.61 239.82 102.85C238.89 101.33 237.16 100.5 235.45 100.02C233.63 99.51 230.68 98.72 230.12 99.82V99.84Z" fill="#192B4F"/>
<path d="M203.95 121.76C203.64 121.76 203.38 121.52 203.35 121.21C203.01 117.48 203.68 114.45 205.32 112.21C206.36 110.79 207.55 110.03 208.59 109.36C209.85 108.55 210.94 107.84 211.76 106.16C212.31 105.03 212.39 104.17 212.47 103.34C212.56 102.39 212.65 101.41 213.44 100.28C214.73 98.43 217.07 97.33 220.38 97.01C220.71 96.98 221.01 97.22 221.04 97.55C221.07 97.88 220.83 98.1801 220.5 98.2101C217.56 98.4901 215.52 99.42 214.44 100.97C213.83 101.84 213.77 102.55 213.69 103.44C213.61 104.34 213.51 105.36 212.87 106.68C211.9 108.67 210.56 109.53 209.27 110.37C208.22 111.05 207.23 111.69 206.32 112.92C204.85 114.91 204.27 117.66 204.58 121.09C204.61 121.42 204.36 121.72 204.03 121.75C204.01 121.75 203.99 121.75 203.97 121.75L203.95 121.76Z" fill="#0C1830"/>
<path d="M196.39 128.17C196.16 128.17 195.94 128.04 195.84 127.81C195.08 126.14 194.81 124.49 195.02 122.9C195.21 121.46 195.75 120.53 196.26 119.64C196.71 118.86 197.14 118.13 197.36 117.02C197.64 115.66 197.38 114.93 197.07 114.1C196.8 113.35 196.49 112.5 196.6 111.2C196.81 108.69 198.29 107.44 199.99 106C201.52 104.71 203.25 103.24 204.57 100.46C205.34 98.8301 205.53 97.6501 205.69 96.6101C205.9 95.3101 206.08 94.1901 207.28 92.9201C211.19 88.7801 216.86 89.9101 217.1 89.9601C217.43 90.0301 217.64 90.35 217.57 90.68C217.5 91.01 217.18 91.2201 216.85 91.1501C216.64 91.1101 211.62 90.1101 208.16 93.7601C207.22 94.7501 207.09 95.5701 206.89 96.8101C206.72 97.8801 206.51 99.2101 205.67 100.99C204.24 104.02 202.32 105.64 200.78 106.94C199.15 108.31 197.98 109.31 197.81 111.32C197.72 112.36 197.96 113.01 198.22 113.7C198.54 114.58 198.91 115.58 198.56 117.28C198.29 118.58 197.8 119.43 197.32 120.26C196.84 121.09 196.39 121.87 196.23 123.08C196.05 124.44 196.29 125.87 196.95 127.33C197.09 127.63 196.95 127.99 196.65 128.13C196.57 128.17 196.48 128.18 196.4 128.18L196.39 128.17Z" fill="#0C1830"/>
<path d="M254.54 122.74C254.54 122.74 254.52 122.74 254.51 122.74C254.18 122.72 253.92 122.44 253.94 122.1C254.1 118.92 253.44 116.34 251.96 114.43C250.7 112.8 249.27 112.18 247.76 111.52C246.14 110.81 244.46 110.08 243.13 108.07C241.94 106.27 241.81 104.65 241.7 103.22C241.6 101.87 241.51 100.71 240.52 99.6001C239.04 97.9501 236.38 97.31 232.59 97.69C232.26 97.72 231.96 97.48 231.93 97.15C231.9 96.82 232.14 96.5201 232.47 96.4901C236.66 96.0701 239.67 96.85 241.42 98.8C242.68 100.21 242.8 101.69 242.91 103.13C243.01 104.47 243.12 105.86 244.14 107.4C245.28 109.12 246.72 109.75 248.25 110.41C249.83 111.1 251.47 111.81 252.92 113.69C254.58 115.84 255.33 118.69 255.16 122.16C255.14 122.48 254.88 122.73 254.56 122.73L254.54 122.74Z" fill="#0C1830"/>
<path d="M256.93 114.3C256.93 114.3 256.87 114.3 256.84 114.3C256.51 114.25 256.28 113.94 256.33 113.61C256.68 111.36 256.39 109.51 255.46 108.12C254.62 106.85 253.56 106.43 252.34 105.95C251.23 105.51 249.98 105.02 248.8 103.81C246.97 101.95 246.78 99.95 246.61 98.01C246.47 96.49 246.34 95.06 245.43 93.67C243.6 90.89 239.33 89.55 232.74 89.68C232.74 89.68 232.74 89.68 232.73 89.68C232.4 89.68 232.13 89.42 232.12 89.09C232.12 88.76 232.38 88.48 232.71 88.47C239.74 88.33 244.36 89.86 246.44 93.01C247.52 94.65 247.67 96.3 247.82 97.9C247.98 99.7 248.14 101.4 249.67 102.96C250.68 103.98 251.75 104.41 252.8 104.82C254.09 105.33 255.43 105.86 256.49 107.45C257.59 109.1 257.94 111.24 257.55 113.79C257.5 114.09 257.25 114.3 256.95 114.3H256.93Z" fill="#0C1830"/>
<path d="M259.88 170.1C259.71 170.1 259.55 170.03 259.43 169.9C256.91 167.12 255.85 164.51 256.3 162.16C256.67 160.22 257.95 158.98 259.08 157.88C260.15 156.85 260.99 156.03 260.9 154.9C260.82 153.87 260 153.21 259.05 152.44C258 151.6 256.82 150.64 256.6 149C256.35 147.09 257.51 145.03 260.07 142.88C260.33 142.66 260.71 142.7 260.92 142.95C261.14 143.21 261.1 143.59 260.85 143.8C258.63 145.67 257.61 147.37 257.8 148.84C257.96 150.01 258.86 150.73 259.81 151.5C260.83 152.32 261.98 153.25 262.11 154.8C262.24 156.5 261.06 157.64 259.92 158.75C258.87 159.77 257.78 160.82 257.48 162.39C257.11 164.35 258.06 166.61 260.31 169.09C260.53 169.34 260.52 169.72 260.27 169.95C260.15 170.06 260.01 170.11 259.86 170.11L259.88 170.1Z" fill="#0C1830"/>
<path d="M200.79 182.14C200.7 182.14 200.61 182.12 200.52 182.07C200.22 181.92 200.1 181.55 200.25 181.26C202.06 177.68 202.46 174.64 201.45 172.23C200.82 170.72 199.8 169.82 198.81 168.95C197.65 167.93 196.56 166.97 196.45 165.25C196.33 163.38 197.47 162.11 198.58 160.89C199.61 159.75 200.59 158.68 200.67 157.1C200.77 155.26 199.6 153.3 197.22 151.3C196.96 151.08 196.93 150.7 197.15 150.45C197.37 150.19 197.75 150.16 198 150.38C200.69 152.64 202 154.93 201.88 157.17C201.77 159.18 200.55 160.52 199.48 161.71C198.46 162.84 197.57 163.81 197.66 165.17C197.74 166.39 198.57 167.12 199.61 168.04C200.65 168.95 201.83 169.99 202.57 171.76C203.72 174.52 203.3 177.9 201.33 181.81C201.22 182.02 201.01 182.14 200.79 182.14Z" fill="#0C1830"/>
<path d="M252.93 127.42C252.93 127.42 253.82 123.65 257.02 124.49C259.76 125.21 259.3 135.44 254.82 140.36C250.09 145.55 250.92 133.35 252.93 127.42Z" fill="#693C41"/>
<path d="M255.72 128.79C256.31 128.57 255.95 127.66 255.37 127.89C252.81 128.69 251.94 137.21 253.2 137.12C254.4 136.87 252.5 134.15 255.39 132.46C256.31 131.82 255.18 130.84 253.96 132.37C254.27 130.64 254.83 129.14 255.72 128.79Z" fill="#4B2226"/>
<path d="M203.96 132.12C203.96 132.12 202.54 128.52 199.49 129.81C196.88 130.92 198.81 140.97 203.96 145.19C209.39 149.64 206.8 137.69 203.96 132.11V132.12Z" fill="#693C41"/>
<path d="M201.61 132.94C201 132.79 200.78 133.75 201.39 133.88C202.33 134.1 203.09 135.5 203.65 137.17C202.23 135.84 201.25 136.97 202.25 137.47C205.35 138.72 203.87 141.68 205.09 141.76C206.35 141.67 204.26 133.37 201.62 132.94H201.61Z" fill="#4B2226"/>
<path d="M392.53 329.99C358.92 347.07 316.21 344.07 279.65 347.07C247.61 349.01 212.8 353.68 179.27 352.6C135.38 351.19 93.46 340.62 60.72 308.09C63.59 293.89 74.86 284.52 75.85 269.85C76.09 267.18 78.01 264.96 80.61 264.32C127.32 252.68 127.38 273.44 152.29 264.47C195.74 248.51 207.68 239.89 255.14 251.29C259.15 251.9 263.19 251.39 267.22 251.36C278.77 251.17 290.33 253.63 300.66 258.83C306.96 261.92 313.99 260.42 320.33 258.3C335.69 252 366.11 252.95 377.04 258.9C378.5 261.01 376.2 267.43 376.71 272.55C375.87 290.36 394.6 312.89 392.53 330.01V329.99Z" fill="#1A2962"/>
<path d="M227.97 268.94L230.72 246.78C216.51 243.26 191.78 247.4 191.78 247.4C176.85 251.98 161.3 262.14 148.99 265.43C146.93 269.79 142.34 282.08 152.56 286.68C157.4 288.86 161.68 289.67 169.05 287.03C185.8 281.05 201.21 271.81 227.98 268.93L227.97 268.94Z" fill="#1A2660"/>
<path d="M323.83 257.25C313.6 260.22 308.47 262.63 299.34 258.22C287.74 252.61 275.5 250.69 261.86 251.56C253.06 252.12 243.52 248.49 230.71 246.78C230.65 246.78 230.59 246.78 230.53 246.79C230.44 248.11 230.33 249.42 230.23 250.72C229.95 254.22 229.13 257.67 228.87 261.17C228.67 263.77 228.34 266.36 227.96 268.94C228.29 268.94 228.6 268.98 228.95 268.97C236.01 268.78 254.85 272.44 259.23 273.83C263.61 275.22 297.87 281.36 308.99 280.53C320.11 279.7 325.13 272.96 325.13 268.97C325.13 265.86 324.23 259.79 323.82 257.25H323.83Z" fill="#1A2660"/>
<path d="M376.81 274.99C376.76 274.15 376.73 273.33 376.72 272.53C364.44 270.21 350.7 265.28 333.67 271.44C282.18 287.56 267.91 248.21 202.26 266.87C194.22 269.22 186.75 271.81 179.53 274.31C121.6 298.44 123.98 263.29 73.93 278.89C73.6 279.85 73.24 280.77 72.85 281.67C129.99 265.6 118.33 301.5 180.33 276.62C213.25 263.21 250.49 259.27 284.66 274.07C292.06 277.11 299.32 278.21 306.27 278.21C335.97 276.89 345.27 265.21 376.81 274.99Z" fill="#22306F"/>
<path d="M380.78 291.41C380.42 290.63 380.08 289.85 379.78 289.07C366.72 287.13 352.13 280.78 333.67 287.45C282.18 303.57 267.91 264.22 202.26 282.88C180.92 288.51 151.84 303.51 134.07 298.64C129.94 297.5 126.32 296.36 123.13 295.36C109.24 287.8 82.66 292.02 65.21 295.99C64.74 296.9 64.29 297.84 63.85 298.82C80.82 294.82 108.43 290 122.4 297.69C125.61 298.7 129.26 299.85 133.43 301C136.17 301.75 139.05 302.09 142.08 302.09C191.04 294.65 230.33 265.36 284.68 290.09C292.08 293.13 299.34 294.23 306.29 294.23C341.81 291.94 341.52 281.24 380.92 291.67C380.88 291.59 380.84 291.5 380.8 291.42L380.78 291.41Z" fill="#22306F"/>
<path d="M387.27 307.3C374.7 307.5 358.75 300.46 347.32 302.22C327.54 305.75 307.5 307.82 286.87 306.69C259.71 305.83 232.37 303.12 205.27 306.58C185.15 308.73 163.08 317.03 143.85 317.53C140.13 317.53 136.6 317.13 133.19 316.19C129.02 315.04 125.37 313.89 122.16 312.88C108.92 305.59 83.43 309.54 66.35 313.38C65.51 312.67 64.82 311.96 63.99 311.24C130.73 295.2 123.06 327.86 182.58 308.04C189.55 306.51 196.53 305.3 203.7 304.36C216.58 302.67 229.59 301.87 242.4 302.16C258.35 302.79 272.92 305.01 288.96 304.6C311.55 304.69 329.69 302.5 346.99 299.79C358.17 297.87 373.99 304.75 386.3 304.83C386.63 305.65 386.94 306.48 387.25 307.29L387.27 307.3Z" fill="#22306F"/>
<path d="M392.33 322.76C379.32 320.83 368.07 319.69 342.34 324.7C325.6 328.08 316.53 327.05 305.05 325.75C280.78 324.05 256.29 321.91 231.98 324.09C204.97 325.99 180.49 338.42 153.28 338.03C132.94 337.52 114.72 329.54 95.04 333.13C93.89 332.54 92.76 331.94 91.63 331.32C106.36 330.21 122.25 328.45 134.06 333.18C146 336.66 160.52 335.54 176.14 332.83C197.62 329.1 219.35 322.87 241.23 320.77C254.66 319.02 266.64 321.61 279.75 321.6C282.63 321.67 285.76 321.69 288.54 321.82C307.82 322.66 318.06 327.13 341.85 322.3C368.26 316.74 379.24 318.73 391.8 320.44C391.99 321.21 392.17 321.98 392.33 322.75V322.76Z" fill="#22306F"/>
<path d="M367.22 339.18C362.41 340.45 357.55 341.47 352.64 342.24C331.95 344.61 300.45 345.72 279.66 347.07C264.79 343.63 250.04 342.98 239.22 345.43C229.25 347.28 221.39 349.68 209.74 350.56C201.2 351.15 191.88 350.67 183.44 350.95C171.59 351.2 159.9 352.3 148.46 349.82C166.83 348.75 186.98 348.39 205.91 348.32C220.23 347.71 228.97 344.71 240.94 342.67C252.72 340.84 261.13 340.82 275.99 343.92C281.71 345.12 287.56 345.69 293.31 345.82C318.06 346.28 344.16 338.7 367.22 339.19V339.18Z" fill="#22306F"/>
<path d="M160.15 241.18C154.63 255.84 149.95 268.28 149.95 268.28L150.04 268.31C149.87 268.76 149.73 269.21 149.62 269.69C148.15 275.85 151.96 282.04 158.12 283.5C164.28 284.97 168.76 280.99 171.93 275C171.93 275 179.31 260.76 185.32 250.73L160.15 241.18Z" fill="#693C42"/>
<path d="M157.56 273.84C161.85 270.56 166.17 267.26 170.92 264.69C179.16 260.22 185.02 241.49 185.02 241.49C181.23 241.1 177.78 239.17 174.47 237.29C174.3 237.2 162.22 260.82 157.56 273.85V273.84Z" fill="#603439"/>
<path d="M161 223.65C161.16 223.2 161.75 223.12 162.04 223.5C164.43 226.74 168.76 231.69 175.66 235.6C182.36 239.4 188.63 240.6 192.51 241.02C192.92 241.06 193.16 241.5 192.98 241.87C192.23 243.41 191.33 245.38 190.62 246.83C190.52 247.04 190.3 247.17 190.07 247.16C186.65 247.05 180.12 246.35 173.21 242.4C165.46 237.98 160.63 232.84 158.88 229.91C158.79 229.76 158.77 229.59 158.82 229.43C159.28 227.97 160.36 225.43 161 223.65Z" fill="#9195B5"/>
<path d="M203.15 230.18C196.5 233.97 192.24 238.17 178.79 244.93C159.35 255.55 146.23 265.57 150.46 276.14C153.5 282.37 159.96 285.58 166.04 282.11C182 274.14 209.49 245.19 216.14 237.73C215.62 227.08 209.17 226.11 203.15 230.18Z" fill="#693C42"/>
<path d="M299.12 266.01C302.43 280.64 324.69 275.71 321.52 261.05C320.84 258.5 319.5 255.1 315.7 243.94L287.84 245.64C293.13 254.98 299.12 266.01 299.12 266.01Z" fill="#693C42"/>
<path d="M318.3 273.84C314.01 270.56 309.69 267.26 304.94 264.69C296.7 260.22 286.29 240.73 286.29 240.73C290.08 240.34 297.31 236.9 300.63 235.01C300.8 234.92 313.64 260.81 318.29 273.84H318.3Z" fill="#603439"/>
<path d="M311.45 218.3C311.29 217.85 310.7 217.77 310.41 218.15C308.02 221.39 303.69 226.34 296.79 230.25C290.09 234.05 283.82 235.25 279.94 235.67C279.53 235.71 279.29 236.15 279.47 236.52C280.22 238.06 281.12 240.03 281.83 241.48C281.93 241.69 282.15 241.82 282.38 241.81C285.8 241.7 292.33 241 299.24 237.05C306.99 232.63 311.82 227.49 313.57 224.56C313.66 224.41 313.68 224.24 313.63 224.08C313.17 222.62 312.09 220.08 311.45 218.3Z" fill="#9195B5"/>
<path d="M263.98 229.86C273.94 236.19 277.24 235.53 291.02 241.59C310.98 251.19 324.16 258.22 320.48 269C317.93 274.8 312.04 276.09 306.01 274.15C288.89 267.38 263.08 248.94 254.18 240.03C249.4 228.67 258.96 225.23 263.98 229.85V229.86Z" fill="#693C42"/>
<path d="M249.94 186.12H217.34C217.301 186.12 217.27 186.151 217.27 186.19V234.8C217.27 234.839 217.301 234.87 217.34 234.87H249.94C249.979 234.87 250.01 234.839 250.01 234.8V186.19C250.01 186.151 249.979 186.12 249.94 186.12Z" fill="#576194"/>
<path d="M249.94 188.66H217.34C217.301 188.66 217.27 188.691 217.27 188.73V237.93C217.27 237.969 217.301 238 217.34 238H249.94C249.979 238 250.01 237.969 250.01 237.93V188.73C250.01 188.691 249.979 188.66 249.94 188.66Z" fill="#2E396F"/>
<path d="M217.54 237.58C217.75 237.83 218.04 237.99 218.39 237.99H248.89C249.51 237.99 250.01 237.49 250.01 236.87V189.77C250.01 189.5 249.9 189.26 249.74 189.06L217.54 237.58Z" fill="#24306B"/>
<path d="M264.24 242.68C264.24 242.68 265.34 238.97 264.19 233.43C262.43 224.95 262.17 213.55 260.86 210.06C257.03 201.86 251.92 195.67 245.5 190.78C244.87 190.64 245.17 193.83 248.5 197.11C250.23 198.72 251.78 202.75 251.78 202.75C251.78 202.75 249.46 200.9 248.74 200.16C247.7 199.41 233.59 193.39 237.06 198.16C237.06 198.16 234.77 197.92 234.23 198.15C233.68 198.38 234.71 200.05 235.51 200.6C236.85 201.48 240.35 202.75 240.93 204.04C240.93 204.04 236.42 203.12 235.58 203.24C234.74 203.35 235.38 204.86 236.8 205.55C238.22 206.24 239.63 206.7 240.33 207.21C241.03 207.72 244 212.44 244.84 214.03C245.69 215.65 246.47 233.14 252.17 237.6C254.86 241.88 259.28 244.31 264.25 242.68H264.24Z" fill="#693C42"/>
<path d="M251.77 202.76C252.55 205.05 254.01 207.09 255.93 208.57C255.15 206.27 253.69 204.24 251.77 202.76Z" fill="#5B2B31"/>
<path d="M252.13 209.8C247.33 202.11 245.93 200.61 237.05 198.16C247.55 203.85 244.04 200.77 252.13 209.8Z" fill="#5B2B31"/>
<path d="M248.68 211.92C247.61 209.65 246.23 207.57 244.68 205.62C243.71 204.63 242.23 204.33 240.92 204.05C241.93 204.99 243.29 205.4 244.12 206.52C245.52 208.41 246.97 210.31 248.69 211.93L248.68 211.92Z" fill="#5B2B31"/>
<path d="M216.13 237.73L218.8 232.85C220.44 230.66 223.8 222.28 223.89 219.94C223.98 217.6 225.75 212.12 226.05 211.09C226.35 210.06 232.06 208.2 233.07 206.76C234.08 205.32 230.95 205.46 229.11 205.92C227.27 206.37 224.9 207.23 224.54 207.39C224.19 207.55 221.26 211.6 221.26 211.6C221.26 211.6 222.81 207.23 223.39 205.78C223.97 204.33 227.29 203.5 228.71 202.86C230.12 202.22 231.99 201.08 231.85 200.2C231.71 199.32 228.15 199.45 228.15 199.45C228.15 199.45 231.07 198 231.1 197.05C231.14 196.1 227.68 195.71 225.85 195.98C225.85 195.98 226.08 194.51 225.49 193.97C224.9 193.43 220.26 194.73 217.97 195.42C215.69 196.11 210.2 203.45 207.93 206.32C205.65 209.18 209.06 217.72 202.92 230.67C196.79 243.62 216.14 237.73 216.14 237.73H216.13Z" fill="#693C42"/>
<path d="M225.84 195.98C223.35 196.96 220.65 197.58 218.33 198.89C217.18 200 216.41 201.46 215.41 202.71C214.48 203.83 213.6 205.2 212.5 206.09C212.65 205.37 213.07 204.66 213.38 203.99C214.62 201.68 216.12 199.27 218.41 197.83C220.76 197.18 223.7 196.12 225.84 195.98Z" fill="#59292F"/>
<path d="M228.14 199.45C225.98 200.29 223.82 201.14 221.7 202.05C220.24 202.96 219.58 204.72 218.61 206.1C217.82 207.22 217.14 208.58 216.19 209.53C216.23 208.83 216.55 208.12 216.77 207.45C217.72 205.06 219.11 202.48 221.51 201.25C223.61 200.68 226.26 199.57 228.15 199.45H228.14Z" fill="#59292F"/>
</svg>
