<svg width="542" height="348" viewBox="0 0 542 348" fill="none" xmlns="http://www.w3.org/2000/svg">
<path d="M465.8 48.36C465.8 55.82 463.7 62.78 460.05 68.7C459.02 70.37 457.87 71.96 456.61 73.44C453.76 76.8 450.36 79.67 446.53 81.9C443.49 83.68 440.19 85.05 436.7 85.95C433.59 86.75 430.33 87.18 426.97 87.18H399.34V9.53998H426.97C428.15 9.53998 429.32 9.58997 430.47 9.69997C432.6 9.88997 434.68 10.25 436.7 10.77C440.19 11.67 443.49 13.05 446.53 14.82C450.35 17.05 453.76 19.92 456.61 23.28C457.87 24.77 459.02 26.35 460.05 28.02C463.69 33.93 465.8 40.9 465.8 48.36Z" fill="#D3EBFA"/>
<path d="M416.79 9.69H406.71V87.19H416.79V9.69Z" fill="#C3E6FA"/>
<path d="M399.96 9.53998V87.2H396.67C394.35 87.2 392.08 87 389.88 86.61V10.13C390.96 9.93997 392.06 9.69998 393.17 9.59998L399.95 9.53998H399.96Z" fill="#B8DEF5"/>
<path d="M436.7 10.76V85.96C433.59 86.76 430.33 87.19 426.97 87.19H426.62V9.69H430.47C432.6 9.88 434.68 10.24 436.7 10.76Z" fill="#C3E6FA"/>
<path d="M456.61 23.2799V73.4399C453.76 76.7999 450.36 79.6699 446.53 81.8999V14.8199C450.35 17.0499 453.76 19.9199 456.61 23.2799Z" fill="#C3E6FA"/>
<path d="M460.05 28.03C463.69 33.94 465.8 40.91 465.8 48.37C465.8 55.83 463.7 62.79 460.05 68.71V28.03Z" fill="#C3E6FA"/>
<path d="M365.56 108.95C369.51 111.05 373.85 112.96 378.65 114.65H349.57V97.86C354.34 102.02 359.58 105.77 365.56 108.95Z" fill="#C3E6FA"/>
<path d="M389.88 10.13V86.6C381.88 85.19 374.72 81.33 369.21 75.82C362.18 68.79 357.84 59.09 357.84 48.36C357.84 29.23 371.67 13.33 389.88 10.12V10.13Z" fill="#C3E6FA"/>
<path d="M239.82 5.78998V114.65H129.95V8.25998C133.42 7.28998 136.98 6.40998 140.61 5.60998C146.4 4.33998 152.4 3.29998 158.61 2.49998C168.3 1.24998 178.5 0.599976 189.24 0.599976C196.29 0.599976 202.93 0.839978 209.19 1.28998C213.43 1.59998 217.49 1.99998 221.4 2.49998C227.99 3.33998 234.11 4.44998 239.83 5.78998H239.82Z" fill="#C3E6FA"/>
<path d="M221.39 2.49998H158.6C168.29 1.24998 178.49 0.599976 189.23 0.599976C196.28 0.599976 202.92 0.839978 209.18 1.28998C213.42 1.59998 217.48 1.99998 221.39 2.49998Z" fill="#ACDEFA"/>
<path d="M231.95 10.8H137.81V18.97H231.95V10.8Z" fill="#ACDEFA"/>
<path d="M231.95 27.27H137.81V35.44H231.95V27.27Z" fill="#ACDEFA"/>
<path d="M231.95 43.73H137.81V51.9H231.95V43.73Z" fill="#ACDEFA"/>
<path d="M231.95 60.2H137.81V68.3699H231.95V60.2Z" fill="#ACDEFA"/>
<path d="M231.95 76.67H137.81V84.84H231.95V76.67Z" fill="#ACDEFA"/>
<path d="M231.95 93.14H137.81V101.31H231.95V93.14Z" fill="#ACDEFA"/>
<path d="M339.45 87.75L336.38 114.65H209.18V1.28998C213.42 1.59998 217.48 1.99998 221.39 2.49998C227.98 3.33998 234.1 4.44998 239.82 5.78998C245.09 7.01998 250 8.45997 254.6 10.06C262.44 12.79 269.38 16.03 275.59 19.65C280.62 22.58 285.18 25.75 289.37 29.11C293.19 32.17 296.69 35.38 299.97 38.7C303.02 41.78 305.86 44.95 308.57 48.16C311.23 51.32 313.76 54.53 316.22 57.75C318.63 60.91 320.96 64.07 323.28 67.21C324.38 68.7 325.48 70.18 326.58 71.66C329.78 75.95 336.06 83.72 339.45 87.75Z" fill="#D3EBFA"/>
<path d="M275.59 19.65H218.77V10.06H254.6C262.44 12.79 269.38 16.03 275.59 19.65Z" fill="#C3E6FA"/>
<path d="M299.97 38.7H218.73V29.11H289.36C293.18 32.17 296.68 35.38 299.96 38.7H299.97Z" fill="#C3E6FA"/>
<path d="M316.22 57.75H218.71V48.16H308.58C311.24 51.32 313.77 54.53 316.23 57.75H316.22Z" fill="#C3E6FA"/>
<path d="M326.58 71.66V76.8H218.67V67.21H323.28C324.38 68.7 325.48 70.18 326.58 71.66Z" fill="#C3E6FA"/>
<path d="M326.56 86.26H218.65V95.85H326.56V86.26Z" fill="#C3E6FA"/>
<path d="M71.3199 37.2599V114.65H34.33V76.85C35.18 75.59 36.04 74.3499 36.92 73.1099C38.58 70.7799 40.3 68.4899 42.08 66.2299C44.36 63.3399 46.74 60.5099 49.22 57.7499C51.33 55.4099 53.51 53.1099 55.77 50.8699C58.71 47.9499 61.78 45.1199 64.99 42.3899C67.04 40.6399 69.1499 38.9299 71.3199 37.2599Z" fill="#D3EBFA"/>
<path d="M84.84 27.89V114.64H14.6899C16.4599 110.06 18.4199 105.5 20.5699 101C22.5799 96.77 24.76 92.59 27.12 88.47C28.44 86.15 29.82 83.86 31.25 81.59C32.25 80 33.28 78.42 34.34 76.85C35.19 75.59 36.0501 74.35 36.9301 73.11C38.5901 70.78 40.31 68.4899 42.09 66.2299C44.37 63.34 46.75 60.51 49.23 57.75C51.34 55.41 53.52 53.11 55.78 50.87C58.72 47.95 61.79 45.12 65 42.39C67.05 40.64 69.16 38.93 71.33 37.26C73.4 35.67 75.5199 34.11 77.6899 32.6C80.0199 30.98 82.4 29.41 84.85 27.89H84.84Z" fill="#C3E6FA"/>
<path d="M71.3199 37.2599V42.3899H64.99C67.04 40.6399 69.1499 38.9299 71.3199 37.2599Z" fill="#ACDEFA"/>
<path d="M71.3199 50.8599V57.7399H49.22C51.33 55.3999 53.51 53.0999 55.77 50.8599H71.3101H71.3199Z" fill="#ACDEFA"/>
<path d="M71.3199 66.22V73.1H36.92C38.58 70.77 40.3 68.48 42.08 66.22H71.3199Z" fill="#ACDEFA"/>
<path d="M71.3199 81.59V88.47H27.11C28.43 86.15 29.81 83.86 31.24 81.59H71.3199Z" fill="#ACDEFA"/>
<path d="M71.3199 96.95H23.88V103.83H71.3199V96.95Z" fill="#ACDEFA"/>
<path d="M140.61 5.60998V114.65H77.6801V32.6C80.0101 30.98 82.39 29.41 84.84 27.89C89.29 25.13 93.93 22.54 98.79 20.13C105.19 16.96 111.94 14.12 119.07 11.65C122.61 10.42 126.23 9.28998 129.95 8.24998C133.42 7.27998 136.98 6.39998 140.61 5.59998V5.60998Z" fill="#D3EBFA"/>
<path d="M133.23 11.66V20.14H98.78C105.18 16.97 111.93 14.13 119.06 11.66H133.23Z" fill="#C3E6FA"/>
<path d="M133.2 29.11H84.9V37.59H133.2V29.11Z" fill="#C3E6FA"/>
<path d="M133.17 46.5599H84.87V55.0399H133.17V46.5599Z" fill="#C3E6FA"/>
<path d="M133.14 64.0099H84.84V72.49H133.14V64.0099Z" fill="#C3E6FA"/>
<path d="M133.11 81.46H84.8101V89.94H133.11V81.46Z" fill="#C3E6FA"/>
<path d="M133.08 98.92H84.78V107.4H133.08V98.92Z" fill="#C3E6FA"/>
<path d="M20.5601 101V114.64H14.6801C16.4501 110.06 18.4101 105.5 20.5601 101Z" fill="#D3EBFA"/>
<path d="M435.77 122.7C403.26 122.7 381.3 117.33 365.56 108.95C365.31 108.82 365.06 108.68 364.81 108.54V301.33H517.33C558.96 252.18 555.16 122.69 435.78 122.69L435.77 122.7Z" fill="#98C0FA"/>
<path d="M380.05 118.46H258.13V109.37H144.69V101.5H40.47V92.28H24.99C8.21999 123.31 0.939941 157.54 0.939941 187.02C0.939941 237.4 13.73 278.75 34.42 301.33H380.05V118.46Z" fill="#B9DDFA"/>
<path d="M87.75 148.26H59.38V158.9H87.75V148.26Z" fill="#ACD7FA"/>
<path d="M100.37 135.75H72V146.39H100.37V135.75Z" fill="#ACD7FA"/>
<path d="M380.05 122.87V115.13C374.69 113.33 369.89 111.25 365.56 108.95C361.19 106.63 357.22 104 353.54 101.13H281.98V92.6499H176.16V85.28H76.12V74.46H35.97C29.41 83.85 23.86 93.7299 19.24 103.84H26.09V122.87H380.05Z" fill="#89C1FA"/>
<path d="M40.47 92.28L76.11 74.46V85.27L40.47 101.13V92.28Z" fill="#7FB2FA"/>
<path d="M144.69 101.5L176.15 85.27V92.6499L144.69 109.36V101.5Z" fill="#7FB2FA"/>
<path d="M258.13 109.36L281.97 92.65V101.13L258.13 118.46V109.36Z" fill="#7FB2FA"/>
<path d="M238.1 133.21V141.08H380.05V125.72H251.25V118.84H138.18V109.99H34.33V101.14H20.51C18.09 106.22 15.92 111.37 13.98 116.54H20.8199V125.72H125.78V133.22H238.11L238.1 133.21Z" fill="#ACD7FA"/>
<path d="M245.72 127.06V136.15H380.05V118.45H258.13V109.36H144.69V101.49H40.47V92.27H24.99C21.97 97.86 19.25 103.56 16.83 109.31H27.4399V117.83H131.66V127.05H245.71L245.72 127.06Z" fill="#98C7FA"/>
<path d="M267.97 154.59H150.35V287.32H267.97V154.59Z" fill="#98C7FA"/>
<path d="M263.78 158.77H154.52V283.14H263.78V158.77Z" fill="#ACD7FA"/>
<path d="M210.69 158.77H207.62V283.14H210.69V158.77Z" fill="#98C7FA"/>
<path d="M152.19 219.42V222.49H265.5V219.42H152.19Z" fill="#98C7FA"/>
<path d="M310.59 106.85H360.14C360.65 106.85 361.16 106.81 361.65 106.72C352.96 101.46 345.86 94.94 339.45 87.74C325.83 87.87 312.3 87.43 298.87 86.36V91.65C298.87 95.57 300.02 99.14 301.9 101.84C304.04 104.91 307.15 106.84 310.59 106.84V106.85Z" fill="#ACD7FA"/>
<path d="M347.47 95.97C344.65 93.36 341.99 90.61 339.45 87.75C325.83 87.88 312.3 87.44 298.87 86.37C305.83 96.18 330.3 96.84 347.47 95.97Z" fill="#98C7FA"/>
<path d="M310.59 106.85H360.14C360.65 106.85 361.16 106.81 361.65 106.72C358.11 104.58 354.84 102.23 351.76 99.71C337.19 100.1 312.09 101.02 301.9 101.85C304.04 104.92 307.15 106.85 310.59 106.85Z" fill="#98C7FA"/>
<path d="M283.59 73.78C285.89 78.15 292.25 80.49 292.25 80.49C292.25 80.49 289.34 81.57 289.24 83.5C289.17 84.89 290.57 86 291.19 86.49C296.87 90.98 318.04 92.09 320.79 87.96C320.95 87.72 321.04 87.47 321.07 87.2C321.16 86.45 320.75 85.39 318.86 83.95C324.43 87 325.4 81.81 323.99 80.08C323.23 79.16 322.2 79.54 321.44 80.1C322.31 79.02 323.61 77.27 324.71 75.43C324.78 75.32 324.84 75.21 324.91 75.1C325.12 74.74 325.32 74.38 325.51 74.02C325.95 73.17 326.31 72.34 326.53 71.59C325.65 70.41 324.77 69.22 323.88 68.02C322.22 68.25 320.74 69.72 319.92 70.72C319.65 71.05 319.45 71.32 319.33 71.49C319.44 71.32 319.63 71.03 319.85 70.64C320.59 69.38 321.71 67.16 321.78 65.18C320.86 63.94 319.94 62.69 319.01 61.45C315.91 60.53 313.98 62.88 313.06 64.49C313.95 62.44 315.36 58.48 314.5 55.51C313.75 54.55 313 53.58 312.23 52.62C307.95 50.27 306.09 59.05 305.58 62.1C305.99 59.04 306.78 49.91 302.16 48.05C296.59 45.81 297.56 59.24 297.56 59.24C297.56 59.24 294.47 51.61 291.94 55.68C290.17 58.52 292.45 64.47 293.98 67.82C291.92 64.01 287.61 57.5 284.3 62.5C282.28 65.55 283.54 68.12 285.54 70.04C283.62 70.15 282.42 71.56 283.6 73.79L283.59 73.78Z" fill="#ACD7FA"/>
<path d="M320.79 87.96C321.02 88.27 321.27 88.57 321.54 88.86C321.69 89.02 321.84 89.17 322.01 89.32C322.54 89.8 323.54 90.29 324.84 90.73C327.36 89.37 328.59 87.53 329.02 85.55C329.48 83.38 330.2 78.92 329.58 75.63C328.58 74.32 327.59 73 326.6 71.67C325.62 71.41 324.53 71.51 323.99 72.14C323.57 72.63 323.21 73.76 323.19 73.84C323.09 74.23 323 74.65 322.92 75.07C322.53 76.98 322.24 78.84 322.05 77.17C321.95 76.29 321.71 75.6 321.28 75.08C320.2 73.75 317.92 73.49 313.74 73.78C307.91 74.19 313.92 79.68 312.15 83.22C310.38 86.76 309.85 81.92 307.02 79.78C304.19 77.64 305.25 80.7 304.19 84.97C303.13 89.24 291.2 86.5 291.2 86.5C296.88 90.99 318.05 92.1 320.8 87.97L320.79 87.96Z" fill="#98C7FA"/>
<path d="M304.59 86.73C300.94 86.21 302.69 75.99 299.13 73.31C295.56 70.63 295.76 69.49 297.02 64.63C297.62 62.32 297.21 59.58 296.62 57.33C295.51 55.38 293.6 53 291.94 55.68C290.17 58.52 292.45 64.47 293.98 67.82C291.92 64.01 287.61 57.5 284.3 62.5C282.28 65.55 283.54 68.1199 285.54 70.0399C283.62 70.1499 282.42 71.5599 283.6 73.7899C285.9 78.16 292.26 80.5 292.26 80.5C292.26 80.5 289.35 81.58 289.25 83.51C289.18 84.9 290.58 86.01 291.2 86.5C294.17 88.85 301.38 90.27 307.98 90.5C307.54 88.54 306.06 86.94 304.6 86.73H304.59Z" fill="#90BAFA"/>
<path d="M300.89 65.84C300.89 65.84 303.95 62.04 302.3 61.5C300.65 60.96 300.3 64.48 300.18 63.67C300.06 62.86 298.18 58.81 297.94 61.44C297.7 64.07 299.83 65.43 300.89 65.84Z" fill="#98C7FA"/>
<path d="M311.26 71.53C311.26 71.27 314.09 68.83 312.67 68.49C311.26 68.15 310.69 70.7899 310.5 70.0099C310.31 69.2299 306.89 66.2999 308.07 69.1199C309.25 71.9499 311.25 71.53 311.25 71.53H311.26Z" fill="#98C7FA"/>
<path d="M296.5 84.66C296.23 84.56 291.48 84.33 292.18 83.37C292.88 82.41 294.55 83.03 294.55 82.72C294.55 82.41 292.43 80.28 293.14 79.47C293.85 78.66 295.53 81.13 295.53 81.13C295.53 81.13 294.65 78.15 296.06 78.25C297.47 78.35 297.12 81.81 297.21 81.45C297.3 81.1 299.07 79.06 299.6 79.98C300.13 80.9 296.51 84.66 296.51 84.66H296.5Z" fill="#ACD7FA"/>
<path d="M142.31 72.7V77.99C142.31 86.38 137.06 93.1799 130.59 93.1799H81.04C77.59 93.1799 74.49 91.2499 72.35 88.1799C70.47 85.4899 69.3199 81.91 69.3199 77.99V72.7C93.3399 74.61 117.69 74.53 142.31 72.7Z" fill="#ACD7FA"/>
<path d="M142.31 72.6999V77.9899C142.31 86.3799 137.06 93.1799 130.59 93.1799H81.04C77.59 93.1799 74.49 91.2499 72.35 88.1799C86.95 86.9899 132.14 85.6099 133.15 85.8899C134.37 86.2299 135.63 80.7499 135.63 80.7499C135.63 80.7499 80.3899 88.2899 69.3199 72.6899C93.3399 74.5999 117.69 74.5199 142.31 72.6899V72.6999Z" fill="#8FC3FA"/>
<path d="M91.24 74.2899C91.4 74.0499 91.4901 73.7999 91.5201 73.5299C91.6101 72.7799 91.2001 71.7199 89.3101 70.2799C94.8801 73.3299 95.85 68.1399 94.44 66.41C93.68 65.49 92.6501 65.8699 91.8901 66.4299C92.7601 65.3499 94.0601 63.5999 95.1601 61.7599C95.2301 61.6499 95.29 61.5399 95.36 61.4299C95.57 61.0699 95.77 60.71 95.96 60.35C97.19 57.97 97.81 55.6999 96.44 54.8299C94 53.2799 91.5301 55.6399 90.3701 57.0499C90.1001 57.3799 89.9001 57.6499 89.7801 57.8199C89.8901 57.6499 90.0801 57.3599 90.3001 56.9699C91.4201 55.0499 93.4501 50.8699 91.2601 48.7599C90.9601 48.4699 90.58 48.2199 90.1 48.0099C86.61 46.5299 84.4801 49.0899 83.5001 50.8099C84.7301 47.9899 86.94 41.5599 82.85 39.0499C78.43 36.3399 76.5301 45.3299 76.0201 48.4199C76.3801 45.6999 77.04 38.2099 73.97 35.2599C71.98 36.7299 70.0301 38.2399 68.1301 39.7799C67.8001 42.6599 68.0001 45.5599 68.0001 45.5599C68.0001 45.5599 67.02 43.1499 65.72 41.7599C64.37 42.8899 63.0501 44.0499 61.7501 45.2099C61.9001 48.1499 63.3401 51.7799 64.4201 54.1299C63.2301 51.9199 61.28 48.7999 59.2 47.5499C57.36 49.2799 55.5601 51.0399 53.8101 52.8299C54.0901 54.1599 54.93 55.3499 55.97 56.3499C54.05 56.4599 52.8501 57.87 54.0301 60.1C56.3301 64.47 62.69 66.8099 62.69 66.8099C62.69 66.8099 59.7801 67.89 59.6801 69.82C59.6101 71.21 61.0101 72.3199 61.6301 72.8099C67.3101 77.2999 88.48 78.4099 91.23 74.2799L91.24 74.2899Z" fill="#ACD7FA"/>
<path d="M130.89 67.02C130.15 69.92 126.83 73.1 121.96 75.31C121.28 75.62 120.56 75.91 119.82 76.18C119.06 76.45 118.58 76.74 118.2 77.03C116.83 78.06 116.67 79.06 109.77 79.18C104.98 79.27 98.94 78.31 95.29 77.06C93.99 76.62 92.9899 76.13 92.4599 75.65C92.2999 75.5 92.14 75.35 91.99 75.19C91.72 74.9 91.47 74.6 91.24 74.29C89.24 71.57 88.85 68.26 88.78 67.84C88.04 63.22 89.72 61.71 91.73 61.41C92.27 61.33 92.83 61.34 93.37 61.4C94.01 61.47 94.63 61.61 95.16 61.76C96.05 62.02 96.7 62.31 96.81 62.35C96.71 62.29 96.15 61.96 95.36 61.42C94.86 61.08 94.27 60.65 93.64 60.16C92.54 59.3 91.34 58.22 90.37 57.03C90.35 57 90.33 56.98 90.31 56.95C88.84 55.12 87.89 53.02 88.61 50.94C89.18 49.29 90.17 48.72 91.27 48.74C93.87 48.78 97.12 52.06 97.22 52.16C97.06 51.95 88.84 41.15 94.18 38.02C99.42 34.95 102.58 47.47 102.75 48.16C102.63 47.54 100.84 37.38 107.26 36.39C112.37 35.61 113.33 42.79 113.5 46.14C113.65 43.96 114.66 40.37 119.63 40.16C126.73 39.86 118.45 51.16 118.31 51.35C118.4 51.24 122.58 46.51 125.03 50.03C125.1 50.13 125.17 50.23 125.23 50.33C125.66 51 125.94 51.64 126.12 52.24C126.85 54.7 125.83 56.44 125.83 56.44H128.57C128.57 56.44 128.59 56.44 128.6 56.44C129.63 56.47 130.38 57.75 130.71 59.27C131.08 60.98 130.9 62.98 129.96 63.78C130.27 63.74 130.59 63.78 130.82 64.01C131.48 64.65 131.07 66.31 130.89 67.02Z" fill="#ACD7FA"/>
<path d="M148.86 64.9299C148.82 65.1099 148.77 65.2999 148.72 65.49C146.69 72.81 142 74.5799 142 74.5799C138.78 80.5299 124.61 76.9 121.04 76.49C120.98 76.49 120.93 76.4799 120.87 76.4699C120.48 76.4299 120.13 76.3299 119.82 76.1699C119.23 75.8699 118.79 75.3499 118.47 74.6799C117.54 72.7199 117.65 69.3899 118.4 65.7899C118.92 63.3199 120.47 62.4699 122.03 62.2899C123.7 62.0999 125.36 62.6599 125.75 62.8099C125.4 62.6699 123.96 62.0399 122.71 60.7999C121.29 59.3999 120.09 57.2199 120.97 54.0899C121.9 50.7599 123.73 50.1499 125.24 50.3199C126.57 50.4699 127.65 51.2099 127.69 51.2399C127.63 51.1399 123.84 44.5199 128.22 43.4099C132.64 42.2899 133.52 45.4899 133.52 45.4899C133.52 45.4899 137.14 36.7899 142.01 42.5899C145.17 46.3599 142.95 50.0099 141.01 52.0899C143.19 50.4099 146.48 48.7799 147.23 53.3699C147.48 54.8699 147.4 56.1299 147.12 57.1799C146.11 61.0299 142.45 62.0899 142.45 62.3399C142.45 62.3899 142.62 62.3399 142.92 62.2299C143.58 61.9899 144.83 61.4999 146.03 61.3299C147.89 61.0599 149.62 61.5599 148.87 64.9299H148.86Z" fill="#ACD7FA"/>
<path d="M99.46 71.88C99.04 73.87 97.8 75.6999 95.28 77.0599C93.98 76.6199 92.98 76.1299 92.45 75.6499C92.29 75.4999 92.13 75.35 91.98 75.19C91.71 74.9 91.46 74.5999 91.23 74.2899C88.49 78.4199 67.31 77.31 61.63 72.82C61.63 72.82 73.56 75.5699 74.62 71.2899C75.68 67.0199 74.62 63.96 77.45 66.1C80.28 68.24 80.81 73.0799 82.58 69.5399C84.35 65.9999 78.34 60.5 84.17 60.1C88.36 59.81 90.63 60.0699 91.71 61.3999C92.14 61.9199 92.38 62.61 92.48 63.49C92.67 65.16 92.96 63.3 93.35 61.39C93.44 60.97 93.53 60.55 93.62 60.16C93.64 60.09 94 58.96 94.42 58.46C95.17 57.57 96.99 57.72 98.11 58.46C101.36 60.6 100.13 68.6799 99.45 71.8699L99.46 71.88Z" fill="#98C7FA"/>
<path d="M128.91 64.14C126.74 68.01 125.61 70.51 121.95 75.31C121.66 75.69 121.35 76.08 121.03 76.5C120.97 76.5 120.92 76.49 120.86 76.4799C120.47 76.4399 120.12 76.3399 119.81 76.1799C119.05 76.4499 118.57 76.74 118.19 77.03C116.82 78.06 116.66 79.0599 109.76 79.1799C104.97 79.2699 98.93 78.31 95.28 77.06C93.98 76.62 92.98 76.1299 92.45 75.6499C92.29 75.4999 92.13 75.35 91.98 75.19C93.56 74.07 95.32 73.11 95.66 72.72C96.24 72.05 97.83 71.55 99.45 71.88C100.28 72.05 101.13 72.43 101.85 73.13C103.97 75.16 103.62 70.8899 105.39 67.4299C107.16 63.9699 108.22 67.63 112.11 69.97C116 72.31 112.46 66.61 113.17 63.49C113.88 60.37 116.88 61.52 118.39 65.8C119.05 67.67 120.54 65.45 122.02 62.3C122.25 61.82 122.47 61.32 122.69 60.81C124.34 57.02 125.82 52.67 125.9 52.37L126.1 52.24L127.66 51.25C128.82 50.52 128.61 53.83 128.58 56.44C128.56 57.82 128.59 59.0099 128.9 59.2899C129.78 60.1099 131.73 59.09 128.9 64.14H128.91Z" fill="#98C7FA"/>
<path d="M148.86 64.9299C148.82 65.1099 148.77 65.2999 148.72 65.4899C146.69 72.8099 142 74.5799 142 74.5799C138.78 80.5299 124.61 76.8999 121.04 76.4899C120.98 76.4899 120.93 76.4799 120.87 76.4699C120.48 76.4299 120.13 76.3299 119.82 76.1699C119.06 76.4399 118.58 76.7299 118.2 77.0199C117.84 76.2699 117.8 75.6899 117.8 75.6899C117.8 75.6899 118.05 75.3099 118.47 74.6799C120.68 71.3199 127.73 60.6499 128.92 59.2799C129.33 58.8099 129.96 58.9299 130.71 59.2599C132.55 60.0499 135.12 62.0299 136.87 59.2799C138.66 56.4799 143.81 56.3499 147.1 57.1799C146.09 61.0299 142.43 62.0899 142.43 62.3399C142.43 62.3399 141.63 66.1899 143.58 66.0899C144.73 66.0299 147.18 64.5799 148.85 64.9199L148.86 64.9299Z" fill="#98C7FA"/>
<path d="M71.34 52.1699C71.34 52.1699 74.4 48.3699 72.75 47.8299C71.1 47.2899 70.75 50.8099 70.63 49.9999C70.51 49.1899 68.63 45.1399 68.39 47.7699C68.15 50.3999 70.28 51.7599 71.34 52.1699Z" fill="#98C7FA"/>
<path d="M109.77 54.8099C110.12 53.7899 111.53 48.6499 110.47 49.5299C109.41 50.3999 109.06 52.9799 109.06 52.9799C109.06 52.9799 106.35 49.1799 106.11 51.1499C105.87 53.1199 107.88 53.6599 107.29 53.6599C106.7 53.6599 102.1 53.3899 103.81 54.8099C105.52 56.2299 109.77 54.8099 109.77 54.8099Z" fill="#98C7FA"/>
<path d="M64.27 61.7899C64.27 61.7899 65.92 57.7099 64.27 57.8599C62.62 57.9999 62.86 59.8199 62.86 59.8199C62.86 59.8199 60.38 55.6899 60.27 58.4099C60.15 61.1199 64.28 61.7899 64.28 61.7899H64.27Z" fill="#98C7FA"/>
<path d="M81.7099 57.86C81.7099 57.6 84.54 55.16 83.12 54.82C81.71 54.48 81.1399 57.12 80.9499 56.34C80.7599 55.56 77.34 52.63 78.52 55.45C79.7 58.28 81.6999 57.86 81.6999 57.86H81.7099Z" fill="#98C7FA"/>
<path d="M138.29 47.8299C138.64 47.4199 142.21 46.9799 140.78 45.5099C139.35 44.0399 137.82 45.8999 138.29 45.5099C138.76 45.1199 139.88 42.2899 138.2 43.6399C136.52 44.9899 138.29 47.8399 138.29 47.8399V47.8299Z" fill="#98C7FA"/>
<path d="M110.17 63.1499C110.52 62.6399 114.15 60.6899 113.18 59.6299C112.21 58.5699 111.76 60.1999 111.76 60.1999C111.76 60.1999 112.56 57.8599 111.19 58.5699C109.82 59.2799 110.17 63.1499 110.17 63.1499Z" fill="#98C7FA"/>
<path d="M66.95 70.99C66.68 70.89 61.93 70.66 62.63 69.7C63.33 68.75 65 69.36 65 69.05C65 68.74 62.88 66.61 63.59 65.8C64.3 64.99 65.98 67.46 65.98 67.46C65.98 67.46 65.1 64.48 66.51 64.58C67.92 64.68 67.57 68.14 67.66 67.78C67.75 67.43 69.5201 65.39 70.0501 66.31C70.5801 67.23 66.96 70.99 66.96 70.99H66.95Z" fill="#98C7FA"/>
<path d="M253.22 99.97C253.27 100.24 252.8 100.41 252.47 100.64C251.8 101.1 250.83 101.56 249.62 102.01C241.56 104.98 223.12 107.16 216.46 101.58C216.19 101.36 215.95 101.12 215.72 100.88C215.16 100.27 214.73 99.68 214.05 98.7C213.96 98.57 213.87 98.44 213.77 98.3C213.76 98.28 213.74 98.26 213.73 98.24C213.27 97.58 212.8 96.86 212.34 96.1C210.75 93.51 209.19 90.48 208.28 87.75C207.3 84.8 207.09 82.21 208.41 80.92C208.61 80.72 208.96 80.4 209.46 80.36C210.78 80.25 212.11 82.22 213.2 84.54C214.56 87.42 215.54 90.83 215.7 91.37C215.56 90.86 214.72 87.69 214.11 84.16C213.38 79.98 212.97 75.29 214.42 73.89C216.08 72.29 217.81 78 218.95 82.89C219.69 86.08 220.17 88.93 220.21 89.15C220.2 88.94 220.03 86.23 219.95 82.78C219.81 76.68 219.95 68.26 221.71 67.16C223.59 65.98 224.2 75.9 224.4 82.52C224.5 85.74 224.5 88.18 224.5 88.18C224.5 88.18 224.84 85.64 225.45 82.42C226.45 77.18 228.16 70.15 230.29 69.44C232.4 68.74 232.99 75.47 233.13 80.78C233.17 82.47 233.17 84.01 233.16 85.12C233.16 86.06 233.13 86.7 233.13 86.85C233.13 86.7 233.16 86.08 233.21 85.13C233.25 84.26 233.31 83.11 233.38 81.8C233.4 81.43 233.42 81.05 233.45 80.66C233.51 79.58 233.59 78.42 233.67 77.23C234.06 71.77 234.65 65.84 235.43 64.84C236.25 63.79 237.77 70.31 238.97 76.44C239.02 76.7 239.07 76.97 239.12 77.23C239.43 78.86 239.73 80.43 239.97 81.8C240.13 82.71 240.28 83.53 240.39 84.21C240.55 85.17 240.67 85.86 240.72 86.18C240.67 85.88 240.58 85.25 240.46 84.39C240.36 83.66 240.24 82.77 240.13 81.79C239.96 80.38 239.8 78.78 239.71 77.22C239.66 76.39 239.62 75.57 239.61 74.78C239.6 73.86 239.61 73 239.69 72.24C239.83 70.76 240.15 69.69 240.76 69.43C241.92 68.92 242.94 72.78 243.72 77.22C243.96 78.6 244.18 80.04 244.38 81.42C244.4 81.54 244.41 81.67 244.43 81.79C244.58 82.89 244.71 83.95 244.83 84.9C244.75 83.96 244.66 82.91 244.59 81.79C244.58 81.54 244.56 81.29 244.55 81.03C244.48 79.81 244.43 78.52 244.42 77.22C244.36 72.34 244.75 67.29 246.37 64.86C250.02 59.39 254.06 77.22 254.06 77.22C255.96 91.74 252.48 96.01 253.23 99.97H253.22Z" fill="#ACD7FA"/>
<path d="M248.08 95.99C248.13 95.75 249.3 81.47 251.17 79.05C253.03 76.64 257.02 75.66 256.97 76.79C256.92 77.92 255.59 94.31 252.53 95.59C249.47 96.87 248.09 95.98 248.09 95.98L248.08 95.99Z" fill="#98C7FA"/>
<path d="M227.07 96.98C227.18 96.57 223.21 90.15 226.11 89.32C229 88.49 231.58 93.98 231.58 93.98C231.58 93.98 231.04 82.58 234.05 85.64C237.05 88.7 239.41 94.19 239.41 94.19C239.41 94.19 237.69 79.91 239.41 82.18C241.13 84.46 243.48 95.33 243.7 94.71C243.91 94.09 242.61 81.15 245.52 80.01C248.43 78.87 251.74 98.33 251.74 98.33L227.09 96.98H227.07Z" fill="#98C7FA"/>
<path d="M253.74 94.4L253.14 100L252.46 106.31H212.41L211.73 101.16L211.06 96.03C225.91 97.13 241.05 95.58 253.74 94.41V94.4Z" fill="#ACD7FA"/>
<path d="M253.15 99.99L252.47 106.3C240.04 107.63 226.53 107.41 212.42 106.3L211.74 101.15C225.29 102.52 241.36 102.84 253.15 99.99Z" fill="#98C7FA"/>
<path d="M235.96 99.59C228.33 99.59 219.98 99.14 212.99 98.62C212.31 98.57 211.82 98.53 211.74 98.53C211.61 98.53 211.51 98.43 211.51 98.31C211.51 98.19 211.61 98.09 211.73 98.09C211.82 98.09 212.17 98.11 213.02 98.18C225.53 99.1 242.39 99.83 251.67 98.1C251.79 98.08 251.91 98.15 251.93 98.27C251.95 98.39 251.87 98.5 251.75 98.52C247.62 99.29 242.01 99.58 235.95 99.58L235.96 99.59Z" fill="#98C7FA"/>
<path d="M301.83 85.8199L299.3 108.7C298.88 112.5 295.33 115.39 291.08 115.39H284.67C281.93 115.39 279.48 114.18 277.97 112.31C277.14 111.28 276.6 110.05 276.45 108.71L274.3 89.2999L273.92 85.8299H301.83V85.8199Z" fill="#ACD7FA"/>
<path d="M286.17 62.31V78.22C286.17 78.22 288.8 78.62 288.8 78.22V61.38L286.17 62.32V62.31Z" fill="#7FB2FA"/>
<path d="M296.42 61.94C296.47 63.84 295.8 65.01 295.41 65.56C293.17 68.72 287.61 69.31 283.89 67.79C282.65 67.28 281.79 66.61 281.3 66.19C281.3 66.19 280.17 66.02 279.16 65.73C278.69 65.6 278.24 65.44 277.94 65.26C276.02 64.12 275.38 60.57 276.9 58.84C278.06 57.52 280.77 56.7 280.77 56.7C280.77 56.7 280.6 54.42 281.45 53.09C282.67 51.19 286.3 51.11 288.16 51.32C289.06 51.42 290.76 51.61 292.01 52.88C293.02 53.91 293.23 55.06 293.29 55.53C293.29 55.53 297.25 54.16 298.59 57.23C298.63 57.31 298.67 57.4 298.7 57.48C299.71 60.04 296.41 61.94 296.41 61.94H296.42Z" fill="#ACD7FA"/>
<path d="M301.83 85.8199L299.3 108.7C298.88 112.5 295.33 115.39 291.08 115.39H284.67C281.93 115.39 279.48 114.18 277.97 112.31C281.69 111.99 287.74 113.6 292.21 110.45C298.46 106.04 296.45 92.4099 296.45 92.4099C283.58 94.2699 279.17 92.7999 274.31 89.2999L273.93 85.8299H301.84L301.83 85.8199Z" fill="#8FC3FA"/>
<path d="M302.89 85.4C302.58 85.59 302.22 85.74 301.83 85.82C301.83 85.82 302.02 85.96 302.22 86.22C302.06 86.4 301.9 86.56 301.73 86.72C300.74 87.68 299.79 88.28 299.79 88.28C297.83 88.67 295.53 89 292.98 89.16C292.54 89.19 292.09 89.21 291.63 89.23C289.48 89.31 287.18 89.25 284.75 88.99C284.45 88.96 284.16 88.92 283.86 88.88C282.84 88.75 281.81 88.59 280.76 88.38C279.75 88.18 278.46 87.58 276.3 87.17C276.06 87.12 275.82 87.08 275.56 87.04C274.99 86.95 274.49 86.9 274.05 86.85C272.37 86.69 271.58 86.74 270.95 86.1C269.69 84.83 270.15 81.95 271.69 81.02C272.76 80.38 274.31 80.69 274.44 80.17C274.51 79.91 274.22 79.69 273.93 79.41C272.55 78.11 274.43 74.42 276.5 73.58C278.57 72.74 280.61 72.33 283.78 73.63C283.78 73.63 286.41 70.62 289.31 72.03C290.66 72.68 291.14 73.14 291.27 73.44C291.55 72.92 292.28 72.16 294.19 72.03C297.13 71.83 301.81 75.04 299.25 78.15C299.25 78.15 301.82 77.57 303.6 81.16C303.77 81.5 303.87 81.84 303.92 82.18C304.08 83.33 303.6 84.45 302.91 85.4H302.89Z" fill="#ACD7FA"/>
<path d="M302.89 85.4C302.58 85.59 302.22 85.74 301.83 85.82C301.83 85.82 302.02 85.96 302.22 86.22C302.64 86.78 303.07 87.9 301.45 89.26C299.64 90.78 295.02 89.73 292.98 89.16C292.36 88.99 291.98 88.86 291.98 88.86C291.98 88.86 291.86 89.01 291.63 89.22C291.05 89.75 289.77 90.68 287.87 90.68C285.97 90.68 285.13 89.63 284.74 88.98C284.57 88.69 284.5 88.48 284.5 88.48C284.5 88.48 284.33 88.61 283.85 88.88C283.47 89.09 282.89 89.39 282.05 89.79C280.14 90.68 275.54 87.05 275.54 87.05C275.8 87.1 276.04 87.14 276.28 87.18C279.21 87.62 280.8 87.05 281.71 86.38C281.97 86.2 282.16 86.01 282.33 85.82C282.92 85.16 283.13 84.48 284.28 83.77C285.97 82.72 287.87 82.75 288.8 82.77C291.43 82.81 293.36 83.84 294.21 84.37C295.06 83.73 295.69 82.33 296.71 81.7C298.15 80.81 301.73 80.65 302.13 80.76C302.82 80.95 303.53 81.47 303.9 82.18C304.06 83.33 303.58 84.45 302.89 85.4Z" fill="#98C7FA"/>
<path d="M296.42 61.94C296.47 63.84 295.8 65.01 295.41 65.56C293.17 68.72 287.61 69.31 283.89 67.79C282.65 67.28 281.79 66.61 281.3 66.19C281.3 66.19 280.17 66.02 279.16 65.73C280.99 65.77 283.04 65.53 283.57 64.19C284.61 61.58 287.87 63.32 287.87 63.32C287.87 63.32 287.89 61.18 290.49 60.98C293.09 60.78 293.69 62.18 294.06 62.05C294.43 61.92 294.88 59.24 296.74 58.24C297.52 57.82 298.19 57.6 298.71 57.49C299.72 60.05 296.42 61.95 296.42 61.95V61.94Z" fill="#98C7FA"/>
<path d="M284.07 78.4C283.99 78.45 282.53 76.54 281.28 77.46C280.03 78.38 281.79 80.29 280.18 80.15C278.57 80.01 275.88 79.65 276.05 81.28C276.22 82.91 278.35 84.75 281.35 82.27C284.35 79.79 288.67 82.13 287.87 79.79C287.07 77.45 285.6 77.35 284.07 78.39V78.4Z" fill="#98C7FA"/>
<path d="M287.87 56.6499C287.8 56.4399 287.51 54.3899 286.48 55.0199C285.45 55.6599 286.41 57.1399 285.09 57.0699C283.77 56.9999 282.45 57.1399 282.6 58.1999C282.75 59.2599 285.15 59.2599 285.23 59.5399C285.31 59.8199 283.76 60.8799 285.23 60.8099C286.7 60.7399 286.96 60.7499 287.97 59.8899C288.98 59.0399 287.87 56.6299 287.87 56.6299V56.6499Z" fill="#98C7FA"/>
<path d="M218.41 52.97C215.27 61.02 205.89 70.71 192.01 73.88C190.18 74.3 187.5 74.8899 184.26 75.0399C183.75 75.0699 183.22 75.08 182.68 75.08C179.5 75.08 175.88 74.6299 172.08 73.2299C168.78 72.0099 157.93 68.0399 157.1 59.4799C156.54 53.7799 160.57 49.25 161.96 47.82L162.01 47.7699C162.01 47.7699 150.73 41.7199 153.94 34.9499C154.37 34.0499 157.67 29.96 158.56 29.18C158.7 29.06 158.85 28.94 158.99 28.82C159.25 28.61 159.52 28.42 159.78 28.25C159.99 28.12 160.2 27.9899 160.4 27.8799C160.99 27.5499 161.59 27.3 162.2 27.11C167.2 25.53 172.65 28.16 175.38 29.8099C175.79 30.0499 173.67 27.56 173.41 27.15C173.41 27.15 171.54 13.53 188.66 15.72C200.85 17.28 196.94 28.22 196.9 28.35C196.94 28.32 198.23 27.34 200.12 26.65C200.44 26.54 200.77 26.4299 201.12 26.3399C201.31 26.2899 201.5 26.2399 201.7 26.1999C202.62 25.9999 203.61 25.92 204.64 26.04C206.49 26.25 208.45 27.11 210.23 29.17C211.97 31.18 211.97 33.25 211.12 35.17C209.16 39.6 202.66 43.1999 202.66 43.1999C202.66 43.1999 213.4 42.5499 218.71 48.25C220.13 49.7799 218.71 52.1399 218.39 52.97H218.41Z" fill="#ACD7FA"/>
<path d="M217.47 67.3899C210.42 77.6199 194.67 78.3799 184.32 78.8799C181.98 78.9899 180.67 79.0499 178.78 78.8799C170.96 78.1699 156.99 73.94 155.16 64.07C153.69 56.18 160.6 49.1599 161.96 47.8299L162.01 47.7799C165.17 49.5099 172.21 52.7599 181.21 51.8999C181.83 51.8399 182.44 51.7599 183.04 51.6699C183.33 51.6299 183.62 51.5799 183.91 51.5299C188.14 50.7499 191.82 49.1499 194.95 47.1999C195.93 46.5899 196.86 45.9499 197.73 45.2799C204.42 40.1999 210.59 36.1699 211.13 35.1899C210.3 34.4299 212.05 35.8999 211.13 35.1899C209.17 39.6199 207.09 44.0399 207.09 44.0399C207.09 44.0399 213.85 42.1799 218.72 48.2699C218.72 48.2699 220.06 50.0599 220.66 52.5399C221.51 56.0299 220.98 62.2899 217.46 67.3999L217.47 67.3899Z" fill="#98C7FA"/>
<path d="M186.96 88.34C187 89.61 184.98 89.66 184.98 88.3699C185 87.1299 185.03 84.8999 185.05 83.6499C185.2 74.0199 185.39 61.35 185.54 51.65L185.63 45.71C185.63 45.29 186.32 45.26 186.32 45.71C186.52 59.24 186.76 74.82 186.96 88.33V88.34Z" fill="#7FB2FA"/>
<path d="M185.6 50.5699L193.74 43.16C193.81 43.09 193.93 43.0999 193.99 43.1699C194.06 43.2399 194.05 43.3499 193.99 43.4199L186.05 51.05C185.92 51.18 185.71 51.17 185.59 51.05C185.46 50.92 185.47 50.7099 185.59 50.5899L185.6 50.5699Z" fill="#7FB2FA"/>
<path d="M185.65 76.5999L197.44 65.8699C197.55 65.7699 197.71 65.7799 197.81 65.8899C197.9 65.9899 197.9 66.1499 197.8 66.2499L186.31 77.2999C186.12 77.4799 185.82 77.4799 185.64 77.2899C185.46 77.0999 185.46 76.7999 185.65 76.6199V76.5999Z" fill="#7FB2FA"/>
<path d="M185.71 60.2799L173.48 49.04C173.43 48.99 173.42 48.91 173.48 48.86C173.53 48.81 173.61 48.7999 173.66 48.8499L186.35 59.58C186.55 59.75 186.57 60.05 186.41 60.25C186.25 60.45 185.94 60.4699 185.74 60.3099C185.74 60.3099 185.73 60.31 185.73 60.3L185.71 60.2799Z" fill="#7FB2FA"/>
<path d="M183.99 21.2C183.99 21.03 185.86 18.07 183.99 18.14C182.12 18.21 183.35 20.72 183.35 20.72C183.35 20.72 179.27 18.08 180.34 19.67C181.41 21.26 183.99 21.2 183.99 21.2Z" fill="#98C7FA"/>
<path d="M202.39 66.9399C202.52 66.8299 205.96 66.1999 204.64 64.8699C203.32 63.5399 202.31 66.1499 202.31 66.1499C202.31 66.1499 201.5 61.3599 201.05 63.2199C200.6 65.0799 202.39 66.9399 202.39 66.9399Z" fill="#8FC3FA"/>
<path d="M161.39 32.44C161.39 32.27 163.26 29.3099 161.39 29.3799C159.52 29.4499 160.75 31.9599 160.75 31.9599C160.75 31.9599 156.67 29.32 157.74 30.91C158.81 32.5 161.39 32.44 161.39 32.44Z" fill="#98C7FA"/>
<path d="M166.95 39.01C165.08 39.08 166.31 41.5899 166.31 41.5899C166.31 41.5899 164.2 38.2199 163.3 40.5399C162.93 41.5099 164.02 41.88 165.11 42.0099C163.92 42.2499 162.86 42.93 163.23 43.62C163.79 44.68 166.95 42.0699 166.95 42.0699C166.95 41.8999 168.82 38.94 166.95 39.01Z" fill="#98C7FA"/>
<path d="M164.64 61.21C162.77 61.28 164 63.7899 164 63.7899C164 63.7899 161.89 60.42 160.99 62.74C160.62 63.71 161.71 64.08 162.8 64.21C161.61 64.45 160.55 65.13 160.92 65.82C161.48 66.88 164.64 64.27 164.64 64.27C164.64 64.1 166.51 61.14 164.64 61.21Z" fill="#8FC3FA"/>
<path d="M187.21 36.4699C185.7 35.3499 185.1 38.0899 185.1 38.0899C185.1 38.0899 185.56 34.1399 183.41 35.3899C182.51 35.9099 183.14 36.8799 183.9 37.6699C182.82 37.1199 181.57 36.9899 181.42 37.7499C181.19 38.9199 185.29 38.8599 185.29 38.8599C185.4 38.7299 188.71 37.5899 187.2 36.4699H187.21Z" fill="#98C7FA"/>
<path d="M199.29 40.2699C198.84 38.4499 197.3 39.4199 197.3 39.4199C197.3 39.4199 199.51 37.4199 197.05 37.0099C196.03 36.8399 194.89 38.3299 194.98 39.4199C194.5 38.2999 194.62 37.0599 194.02 37.5599C193.1 38.3199 194.31 41.2699 194.31 41.2699C194.48 41.2399 199.74 42.0899 199.29 40.2699Z" fill="#98C7FA"/>
<path d="M199.29 28.2C198.84 26.38 197.3 27.35 197.3 27.35C197.3 27.35 199.51 25.35 197.05 24.94C196.03 24.77 194.89 26.26 194.98 27.35C194.5 26.23 194.62 24.99 194.02 25.49C193.1 26.25 194.31 29.2 194.31 29.2C194.48 29.17 199.74 30.02 199.29 28.2Z" fill="#98C7FA"/>
<path d="M213.64 51C213.47 48.33 211.06 49.32 211.06 49.32C211.06 49.32 214.66 47.05 211.31 45.87C209.91 45.38 207.94 47.19 207.8 48.75C207.41 47.06 207.88 45.35 206.91 45.9C205.42 46.74 206.39 51.18 206.39 51.18C206.64 51.18 213.82 53.68 213.64 51.01V51Z" fill="#8FC3FA"/>
<path d="M204.57 90.8399L203.1 98.3799C203.1 98.3799 203.09 98.4499 203.08 98.4799C203.08 98.4999 203.08 98.5299 203.06 98.5599C203.06 98.6099 203.04 98.6599 203.02 98.7199C203.02 98.7499 203.01 98.7799 203 98.8099C202.98 98.8699 202.97 98.9299 202.95 98.9999C202.95 99.0299 202.93 99.0699 202.92 99.0999C202.78 99.5599 202.59 99.9899 202.36 100.4C202.23 100.63 202.08 100.86 201.92 101.07C201.85 101.17 201.77 101.27 201.69 101.37C201.65 101.42 201.61 101.46 201.57 101.51C201.36 101.75 201.12 102 200.86 102.23C200.78 102.3 200.7 102.37 200.61 102.44C200.57 102.47 200.54 102.5 200.5 102.52C200.44 102.57 200.37 102.61 200.31 102.66C200.24 102.71 200.17 102.76 200.09 102.81C200 102.87 199.9 102.93 199.8 102.99C199.71 103.04 199.63 103.09 199.54 103.13C199.45 103.18 199.36 103.22 199.27 103.26C199.18 103.3 199.09 103.34 199 103.38C198.91 103.41 198.82 103.45 198.72 103.48C198.58 103.53 198.43 103.57 198.29 103.61C198.23 103.62 198.18 103.64 198.12 103.65C198.1 103.65 198.07 103.66 198.05 103.66C197.98 103.68 197.92 103.69 197.85 103.7C197.78 103.71 197.72 103.72 197.65 103.73C197.58 103.73 197.52 103.75 197.45 103.75C197.38 103.75 197.3 103.76 197.23 103.77H197.21C197.12 103.77 197.04 103.77 196.95 103.77H172.94C170.85 103.77 168.82 102.49 167.67 100.6C167.63 100.53 167.58 100.46 167.54 100.38C167.19 99.7599 166.93 99.0799 166.79 98.3599L166.51 96.8999L166.45 96.5999L165.32 90.8199C164.77 87.9799 165.8 85.4199 167.79 84.2599C168.49 83.8499 169.3 83.6299 170.19 83.6299H199.69C200.34 83.6299 200.96 83.7499 201.52 83.9799C202.06 84.1999 202.54 84.5199 202.96 84.9099C203.04 84.9899 203.12 85.0599 203.19 85.1499C204.43 86.4899 205 88.5699 204.56 90.8199L204.57 90.8399Z" fill="#ACD7FA"/>
<path d="M199.82 86.31H170.08C170.01 86.31 169.94 86.24 169.93 86.16C169.92 86.08 169.97 86.0099 170.03 86.0099H199.86C199.93 86.0099 199.98 86.08 199.96 86.16C199.95 86.24 199.88 86.31 199.81 86.31H199.82Z" fill="#98C7FA"/>
<path d="M204.57 90.8399L203.1 98.3799C203.1 98.3799 203.09 98.4499 203.08 98.4799C203.08 98.4999 203.08 98.5299 203.06 98.5599C203.06 98.6099 203.04 98.6599 203.02 98.7199C203.02 98.7499 203.01 98.7799 203 98.8099C202.98 98.8699 202.97 98.9299 202.95 98.9999C202.95 99.0299 202.93 99.0699 202.92 99.0999C202.75 99.6299 202.45 100.34 201.92 101.07C201.85 101.17 201.77 101.27 201.69 101.37C201.65 101.42 201.61 101.46 201.57 101.51C201.36 101.75 201.12 102 200.86 102.23C200.78 102.3 200.7 102.37 200.61 102.44C200.57 102.47 200.54 102.5 200.5 102.52C200.44 102.57 200.37 102.61 200.31 102.66C200.24 102.71 200.17 102.76 200.09 102.81C200 102.87 199.9 102.93 199.8 102.99C199.71 103.04 199.63 103.09 199.54 103.13C199.45 103.18 199.36 103.22 199.27 103.26C199.18 103.3 199.09 103.34 199 103.38C198.91 103.41 198.82 103.45 198.72 103.48C198.58 103.53 198.43 103.57 198.29 103.61C198.23 103.62 198.18 103.64 198.12 103.65C198.1 103.65 198.07 103.66 198.05 103.66C197.98 103.68 197.92 103.69 197.85 103.7C197.78 103.71 197.72 103.72 197.65 103.73C197.58 103.73 197.52 103.75 197.45 103.75C197.38 103.75 197.3 103.76 197.23 103.77H197.21C197.12 103.77 197.04 103.77 196.95 103.77H172.94C170.85 103.77 168.82 102.49 167.67 100.6C170.46 101.17 179.94 102.75 189.87 97.4999C197.32 93.5699 201.28 87.7799 202.96 84.9099C203.04 84.9899 203.12 85.0599 203.19 85.1499C204.43 86.4899 205 88.5699 204.56 90.8199L204.57 90.8399Z" fill="#98C7FA"/>
<path d="M7.83997 247.01C19.02 291.4 42.9 319.95 73.1 319.95H481.48C511.54 319.95 534.08 286.42 539.88 247.01H7.82996H7.83997Z" fill="#C19A84"/>
<path d="M541.2 220.83C541.1 218.62 540.94 216.4 540.72 214.19H498.15V181.13H532.66C530.53 175.97 527.99 170.99 525.01 166.26H2.08997C1.53997 171.3 1.19003 176.27 1.03003 181.13H12.45V214.19H2.23999C2.45999 216.43 2.70998 218.64 2.97998 220.83H12.45V240.37H6.29004C6.78004 242.62 7.28997 244.83 7.83997 247.01H539.89C540.21 244.81 540.48 242.6 540.7 240.37H498.15V220.83H541.2ZM52.39 240.37H18.84V220.83H52.39V240.37ZM52.39 214.19H18.84V181.13H52.39V214.19ZM92.33 240.37H58.78V220.83H92.33V240.37ZM92.33 214.19H58.78V181.13H92.33V214.19ZM132.27 240.37H98.72V220.83H132.27V240.37ZM132.27 214.19H98.72V181.13H132.27V214.19ZM172.21 240.37H138.66V220.83H172.21V240.37ZM172.21 214.19H138.66V181.13H172.21V214.19ZM212.15 240.37H178.6V220.83H212.15V240.37ZM212.15 214.19H178.6V181.13H212.15V214.19ZM252.09 240.37H218.54V220.83H252.09V240.37ZM252.09 214.19H218.54V181.13H252.09V214.19ZM292.03 240.37H258.48V220.83H292.03V240.37ZM292.03 214.19H258.48V181.13H292.03V214.19ZM331.97 240.37H298.42V220.83H331.97V240.37ZM331.97 214.19H298.42V181.13H331.97V214.19ZM371.91 240.37H338.36V220.83H371.91V240.37ZM371.91 214.19H338.36V181.13H371.91V214.19ZM411.85 240.37H378.3V220.83H411.85V240.37ZM411.85 214.19H378.3V181.13H411.85V214.19ZM451.79 240.37H418.24V220.83H451.79V240.37ZM451.79 214.19H418.24V181.13H451.79V214.19ZM491.73 240.37H458.18V220.83H491.73V240.37ZM491.73 214.19H458.18V181.13H491.73V214.19Z" fill="#7D7D96"/>
<path d="M53.25 248.87H43.45V316.88H53.25V248.87Z" fill="#AD7760"/>
<path d="M57.3101 249.31L92.77 232.95V223.72L53.24 244.39L57.3101 249.31Z" fill="#996553"/>
<path d="M39.77 245.52C39.77 245.52 39.77 243.07 46.34 240.18C50.83 238.2 92.77 218.66 92.77 218.66V226.98L57.3199 244.39L39.77 245.52Z" fill="#AD7760"/>
<path d="M41.09 244.39H56.5C56.95 244.39 57.3101 244.75 57.3101 245.2V249.47C57.3101 249.86 56.99 250.18 56.6 250.18H40.47C40.08 250.18 39.76 249.86 39.76 249.47V245.71C39.76 244.98 40.35 244.39 41.08 244.39H41.09Z" fill="#BF8673"/>
<path d="M482.71 316.87H492.51V248.86H482.71V316.87Z" fill="#AD7760"/>
<path d="M478.66 249.6L443.19 232.95V223.72L482.72 244.39L478.66 249.6Z" fill="#996553"/>
<path d="M496.19 245.52C496.19 245.52 496.19 243.07 489.62 240.18C485.13 238.2 443.19 218.66 443.19 218.66V226.98L478.64 244.39L496.19 245.52Z" fill="#AD7760"/>
<path d="M495.49 250.18H479.36C478.97 250.18 478.65 249.86 478.65 249.47V245.2C478.65 244.75 479.01 244.39 479.46 244.39H494.87C495.6 244.39 496.19 244.98 496.19 245.71V249.47C496.19 249.86 495.87 250.18 495.48 250.18H495.49Z" fill="#BF8673"/>
<path d="M92.77 179.45V248.86H443.2V179.45H92.77ZM154.74 189.53H180.89V242.71H154.74V189.53ZM147.5 242.71H121.35V189.53H147.5V242.71ZM188.12 189.53H214.27V242.71H188.12V189.53ZM221.51 189.53H247.66V242.71H221.51V189.53ZM254.9 189.53H281.05V242.71H254.9V189.53ZM288.29 189.53H314.44V242.71H288.29V189.53ZM321.68 189.53H347.83V242.71H321.68V189.53ZM355.07 189.53H381.22V242.71H355.07V189.53ZM388.46 189.53H414.61V242.71H388.46V189.53ZM98.4301 189.53H114.11V242.71H98.4301V189.53ZM437.52 242.71H421.84V189.53H437.52V242.71Z" fill="#996553"/>
<path d="M445.89 175.52H90.0699C88.4297 175.52 87.1 176.85 87.1 178.49V180.42C87.1 182.06 88.4297 183.39 90.0699 183.39H445.89C447.53 183.39 448.86 182.06 448.86 180.42V178.49C448.86 176.85 447.53 175.52 445.89 175.52Z" fill="#AD7760"/>
<path d="M43.45 316.92V347.76H51.2L60.0699 316.88L43.45 316.92Z" fill="#AD7760"/>
<path d="M492.52 316.92V347.76H484.77L475.9 316.88L492.52 316.92Z" fill="#AD7760"/>
<path d="M497.5 316.88H38.46C38.101 316.88 37.8101 317.171 37.8101 317.53V327.31C37.8101 327.669 38.101 327.96 38.46 327.96H497.5C497.859 327.96 498.15 327.669 498.15 327.31V317.53C498.15 317.171 497.859 316.88 497.5 316.88Z" fill="#996553"/>
<path d="M55.4 316.88H480.56C481.75 316.88 482.72 315.91 482.72 314.72V293.96H53.25V314.72C53.25 315.91 54.22 316.88 55.41 316.88H55.4Z" fill="#C1B9B7"/>
<path d="M443.19 248.87L477.18 265.66C483.73 268.89 487.87 275.56 487.87 282.86V296.17C487.87 299.02 485.56 301.33 482.71 301.33H53.24C50.39 301.33 48.08 299.02 48.08 296.17V282.86C48.08 275.56 52.22 268.89 58.77 265.66L92.76 248.87H443.19Z" fill="#CEC9C8"/>
<path d="M349.54 300.69C368.15 279.42 388.46 279.42 369.47 271.25C361.04 267.99 346.36 277.79 333.81 274.95C308.23 269.16 281.91 251.55 268.28 248.86H205.32C115.82 249.44 104.2 260.21 106.27 263.2C127.84 288.72 197.14 284.97 207.9 286.11C218.66 287.24 252.91 284.34 269.04 301.32H347.8C348.38 301.11 348.95 300.88 349.54 300.69Z" fill="#C7BFBD"/>
<path d="M64.73 277.93L90.17 277.8L115.62 277.69L166.51 277.54L217.39 277.46L268.28 277.43L319.17 277.46L370.06 277.54L420.95 277.68L446.39 277.8L471.83 277.93L446.39 278.06L420.95 278.17L370.06 278.31L319.17 278.4L268.28 278.42L217.39 278.39L166.51 278.31L115.62 278.17L90.17 278.06L64.73 277.93Z" fill="#C7BFBD"/>
<path d="M176.24 185.08C176.24 185.08 170.29 187.06 166.5 185.08C162.71 183.1 159.29 183.6 158.56 185.96C157.84 188.32 159.82 192.74 160.9 196.12C161.98 199.5 157.99 208.79 159.16 213.18C160.33 217.57 161.08 225.3 162.35 231.07C163.61 236.84 160.71 246.52 159.28 248.92C157.85 251.32 161.8 251.44 165.41 251.26C169.02 251.08 186.87 255.77 198.23 255.23C209.59 254.69 230.69 251.08 237.19 251.44C243.68 251.8 249.99 251.8 251.26 250C252.53 248.2 247.83 245.31 246.93 242.24C246.03 239.17 245.31 215.52 243.32 208.5C241.34 201.48 236.29 195.17 237.01 191.38C237.73 187.59 240.98 183.81 239.35 180.74C237.73 177.67 234.48 180.56 231.23 180.74C227.98 180.92 196.96 178.22 176.22 185.07L176.24 185.08Z" fill="#F5D1B5"/>
<path d="M170.41 215.08C168.88 208.32 167.15 200.65 161.44 197.72C161.33 197.66 161.21 197.66 161.1 197.71C161.1 197.94 161.09 198.19 161.07 198.44C166.45 201.2 168.14 208.67 169.62 215.26C170.5 219.16 171.34 222.85 172.86 225C176.59 230.23 177.18 234.14 175.31 241.07C173.55 247.58 172.82 252.11 172.79 252.31C173.05 252.36 173.32 252.41 173.59 252.45C173.59 252.4 174.31 247.87 176.09 241.29C178.02 234.17 177.37 229.94 173.52 224.54C172.09 222.53 171.27 218.92 170.41 215.1V215.08Z" fill="#F2C5A7"/>
<path d="M198.79 254.66C198.6 254.66 198.43 254.53 198.39 254.33C198.36 254.17 197.62 250.35 198.16 245.18C198.66 240.4 200.41 233.55 205.9 228.06C206.88 227.08 207.83 226.13 208.76 225.21C217.7 216.3 224.16 209.86 226.74 204.37C226.84 204.17 227.08 204.08 227.28 204.18C227.48 204.28 227.57 204.52 227.47 204.72C224.82 210.34 218.32 216.82 209.32 225.79C208.39 226.71 207.44 227.66 206.47 228.64C201.16 233.95 199.46 240.6 198.97 245.24C198.44 250.29 199.18 254.13 199.19 254.17C199.23 254.39 199.09 254.6 198.87 254.65C198.84 254.65 198.82 254.65 198.79 254.65V254.66Z" fill="#F2C5A7"/>
<path d="M199.66 239.58C199.66 239.58 197.13 239.14 195.52 234.89C193.92 230.64 192.71 224.49 194.72 223.56C196.72 222.63 201.61 230.33 201.69 234.5C201.69 234.5 200.24 237.24 199.66 239.58Z" fill="#F2C5A7"/>
<path d="M201.69 234.5C201.69 234.5 213.72 221.75 219.97 230.81C220.29 231.54 219.57 235.14 215.24 236.5C210.91 237.86 200.54 239.94 199.66 239.58C199.66 239.58 200.9 235.9 201.69 234.5Z" fill="#F2C5A7"/>
<path d="M211.5 223.06C211.5 223.06 206.88 205.72 211.5 202.27C212.73 201.55 216.23 209.75 215.05 219.47L211.5 223.05V223.06Z" fill="#F2C5A7"/>
<path d="M226.39 205.93C226.39 205.93 231.19 202.91 233.28 198.83C235.36 194.74 234.4 190.73 233.28 190.09C232.16 189.45 226.32 198.53 226.39 205.93Z" fill="#F2C5A7"/>
<path d="M223.22 192.33C223.22 192.33 223.28 192.34 223.31 192.34C223.5 192.34 223.66 192.21 223.71 192.02C223.76 191.8 223.62 191.58 223.4 191.53C218.91 190.52 215.81 188.34 214.21 185.06C213.01 182.61 213.13 180.42 213.14 180.4C213.14 180.39 213.14 180.38 213.14 180.37C212.87 180.37 212.6 180.37 212.33 180.37C212.32 180.66 212.25 182.86 213.47 185.37C214.65 187.8 217.3 190.97 223.23 192.31L223.22 192.33Z" fill="#F2C5A7"/>
<path d="M215.71 187.93C215.71 187.93 217.24 198.9 221.09 199.14C224.94 199.38 223.31 191.93 223.31 191.93C223.31 191.93 218.91 191.07 215.71 187.93Z" fill="#F2C5A7"/>
<path d="M185.71 194.76C188.49 197.31 189.81 200.92 189.43 204.93C188.95 210.03 185.72 214.88 180.81 217.92C180.62 218.04 180.56 218.29 180.68 218.48C180.76 218.6 180.89 218.67 181.03 218.67C181.1 218.67 181.18 218.65 181.24 218.61C186.37 215.44 189.74 210.36 190.24 205.01C190.65 200.75 189.23 196.9 186.26 194.17C182.93 191.11 181.86 188.45 181.55 186.75C181.22 184.94 181.66 183.82 181.67 183.79C181.7 183.71 181.71 183.62 181.69 183.54C181.4 183.61 181.11 183.68 180.83 183.75C180.5 184.88 179.73 189.28 185.71 194.76Z" fill="#F2C5A7"/>
<path d="M183.17 191.34C183.17 191.34 178.39 189.23 175.33 193.2C172.27 197.17 172.75 199.18 176.75 198.08C180.75 196.99 184.76 194.28 183.17 191.34Z" fill="#F2C5A7"/>
<path d="M182.42 217.31C182.42 217.31 181.07 229.35 173.89 229.48C166.71 229.61 177.96 217.62 182.42 217.31Z" fill="#F2C5A7"/>
<path d="M188.44 210.05C188.44 210.05 180.86 204.67 176.75 208.4C175.33 209.6 177.75 211.95 180.75 212.07C183.76 212.19 187.35 212.07 187.35 212.07L188.44 210.05Z" fill="#F2C5A7"/>
<path d="M189.12 199.15C189.12 199.15 192.41 200.05 194.82 203.17C197.22 206.3 196.38 209.54 195.66 210.08C194.94 210.62 192.77 209.6 191.45 205.57C190.72 203.35 189.78 201.89 189.78 201.89L189.11 199.14L189.12 199.15Z" fill="#F2C5A7"/>
<path d="M184.62 193.11C184.62 193.11 188.87 191.81 194.22 192.59C199.57 193.37 199.57 196.2 199.03 197.22C198.49 198.24 186.32 194.78 186.32 194.78C186.32 194.78 185.1 193.65 184.63 193.11H184.62Z" fill="#F2C5A7"/>
<path d="M185.26 237.39C180.23 240.24 177.69 244.25 176.45 247.12C175.19 250.03 174.97 252.32 174.94 252.69C175.2 252.74 175.47 252.79 175.74 252.83C175.74 252.81 175.74 252.8 175.74 252.78C175.74 252.76 175.9 250.39 177.2 247.41C178.4 244.67 180.84 240.83 185.65 238.1C185.84 237.99 185.91 237.74 185.8 237.55C185.69 237.36 185.44 237.29 185.25 237.4L185.26 237.39Z" fill="#F2C5A7"/>
<path d="M184.32 238.43C184.32 238.43 185.98 236.23 187.07 234.91C188.15 233.59 188.33 230.16 190.26 230.1C192.19 230.04 192.2 239.02 184.33 238.43H184.32Z" fill="#F2C5A7"/>
<path d="M243.5 209.15C243.45 208.92 243.39 208.71 243.33 208.51C243.29 208.38 243.26 208.25 243.22 208.12C243.1 208.15 243 208.24 242.95 208.36C242.93 208.42 240.6 214.33 234.75 215.88C234.53 215.94 234.4 216.16 234.46 216.38C234.51 216.56 234.67 216.68 234.85 216.68C234.88 216.68 234.92 216.68 234.95 216.67C240.25 215.27 242.78 210.68 243.49 209.15H243.5Z" fill="#F2C5A7"/>
<path d="M236.53 215.69C236.53 215.69 230.87 215.1 227.5 217.66C224.13 220.22 225.9 223.32 228.06 223.06C230.22 222.79 235.94 217.49 236.53 215.69Z" fill="#F2C5A7"/>
<path d="M245.16 223.2C245.16 223.2 245.23 223.2 245.26 223.2C245.24 222.93 245.21 222.65 245.19 222.38C244.75 222.32 242.9 222.13 240.66 222.61C238.32 223.12 235.1 224.49 233.07 228.16C231.54 230.92 231.38 233.16 231.24 235.13C231.02 238.15 230.87 240.33 226.01 242.97C224.05 244.03 222.32 244.86 220.79 245.59C215.82 247.96 213.09 249.27 213.37 253.73V253.75C213.64 253.72 213.91 253.68 214.18 253.65C213.94 249.76 216.2 248.68 221.14 246.32C222.68 245.58 224.43 244.75 226.4 243.68C231.64 240.83 231.83 238.21 232.05 235.19C232.19 233.3 232.34 231.16 233.78 228.55C235.29 225.82 237.65 224.09 240.81 223.4C243.19 222.88 245.15 223.18 245.17 223.18L245.16 223.2Z" fill="#F2C5A7"/>
<path d="M233.61 228.01C233.61 228.01 225.53 230.72 223.31 234.65C221.09 238.58 229.93 235.86 231.64 235.05C231.64 235.05 231.64 233.05 232.14 231.52C232.63 229.99 233.61 228 233.61 228V228.01Z" fill="#F2C5A7"/>
<path d="M231.41 237.28C231.41 237.28 233.11 241.55 232.47 245.87C231.83 250.2 228.83 249.56 228.28 247.71C227.74 245.87 229.08 241.37 229.08 241.37C229.08 241.37 230.91 239.82 231.41 237.28Z" fill="#F2C5A7"/>
<path d="M243.33 222.7C243.33 222.7 241.45 225.03 241.61 227.56C241.77 230.09 241.85 233.83 239.53 234.29C237.21 234.75 237.2 226.71 241.05 222.95L243.34 222.7H243.33Z" fill="#F2C5A7"/>
<path d="M221.84 245.54C221.84 245.54 219.27 244.19 215.29 244.59C211.31 244.99 209.1 246.59 209.44 248.6C209.79 250.6 216.61 246.77 218.97 246.93L221.84 245.54Z" fill="#F2C5A7"/>
<path d="M71.28 200.79C71.28 200.79 62.44 204.89 61.18 206.88C59.92 208.86 62.9799 211.39 64.6099 216.08C66.2299 220.77 68.4 232.85 69.66 239.89C70.92 246.92 74.53 255.04 77.05 261.71C79.57 268.38 78.67 274.33 86.25 272.53C93.82 270.73 133.86 255.94 139.99 254.68C146.12 253.42 152.79 252.34 153.16 250.89C153.52 249.45 149.19 237.72 147.93 229.61C146.67 221.49 138.73 201.66 137.65 197.33C136.57 193 138.19 185.61 136.03 184.16C133.87 182.72 119.26 187.59 110.6 190.11C101.94 192.63 86.61 193.45 71.28 200.8V200.79Z" fill="white"/>
<path d="M82.28 242.59C77.95 236.46 73.2599 216.62 69.8399 211.21C67.7099 207.84 64.24 206.57 61.93 206.09C61.59 206.38 61.33 206.64 61.18 206.88C59.92 208.86 62.9799 211.39 64.6099 216.08C66.2299 220.77 68.4 232.85 69.66 239.89C70.92 246.92 74.53 255.04 77.05 261.71C79.53 268.27 78.7 274.13 85.87 272.62C86.09 268.75 87.24 264.87 87.51 262.08C87.87 258.29 86.61 248.73 82.28 242.6V242.59Z" fill="#EFE8E6"/>
<path d="M107.03 211.39C107.03 211.39 105 211.75 102.84 212.29C100.68 212.83 101.04 215.72 102.84 217.7C104.64 219.68 107.25 218.78 107.03 221.31C106.81 223.83 110.05 236.46 112.4 240.25C114.74 244.04 113.84 246.56 115.83 249.45C115.83 249.45 115.29 253.78 116.55 256.84C117.81 259.9 118.53 261.89 119.44 264.05C120.34 266.21 123.05 264.59 125.39 263.33C127.73 262.07 134.23 260.08 138.92 259.54C143.61 259 159.48 256.11 163.45 254.31C167.42 252.51 173.55 252.15 173.19 250.16C172.83 248.18 168.5 245.65 167.96 243.49C167.42 241.33 166.52 227.26 163.45 220.41C160.38 213.56 160.79 210.71 159.88 204.91C158.42 195.59 155.51 198.58 151.72 199.31C147.93 200.03 141.8 204 132.6 204.9C123.4 205.8 112.56 209.37 107.03 211.39Z" fill="#EFDDDA"/>
<path d="M115.82 224.38C115.64 220.41 111.85 218.07 107.03 216.99C104.42 216.41 102.68 214.67 101.62 213.19C100.98 214.34 101.52 216.26 102.84 217.71C104.64 219.69 107.25 218.79 107.03 221.32C106.81 223.84 110.05 236.47 112.4 240.26C114.74 244.05 113.84 246.57 115.83 249.46C115.83 249.46 115.29 253.79 116.55 256.85C117.81 259.92 118.53 261.9 119.44 264.06C120.07 265.56 121.57 265.24 123.21 264.48C123.12 260.36 123.78 259.74 124.13 256.31C124.49 252.71 123.23 247.65 119.8 241.52C116.37 235.39 116.01 228.35 115.83 224.39L115.82 224.38Z" fill="#EBD5CE"/>
<path d="M142.69 202.58C145.17 207.54 155.34 228.71 161.58 254.99C162.34 254.75 162.97 254.53 163.43 254.32C163.78 254.16 164.14 254.02 164.51 253.88C158.26 227.59 148.09 206.41 145.62 201.48C144.71 201.84 143.73 202.22 142.69 202.58Z" fill="#EBD5CE"/>
<path d="M129.04 205.36C131.98 209.28 141.8 224.21 149.95 257.7C151.38 257.42 152.82 257.13 154.21 256.83C146.48 225.26 136.3 209.88 132.46 204.91C131.34 205.02 130.19 205.18 129.03 205.36H129.04Z" fill="#EBD5CE"/>
<path d="M134.33 260.37C135.26 260.15 136.19 259.96 137.09 259.81C129 226.49 120.31 211.87 117.65 207.94C116.63 208.23 115.64 208.52 114.69 208.81C117.06 212.1 126.02 226.13 134.33 260.36V260.37Z" fill="#EBD5CE"/>
<path d="M133.68 209.23C133.68 209.23 130.43 225.77 124.78 239.48C124.78 239.48 146.42 251.8 151.71 254.92C151.71 254.92 158.68 234.6 160.01 229.67C160.01 229.67 149.07 215.36 133.68 209.23Z" fill="#EBD5CE"/>
<path d="M135.66 212.84C135.66 212.84 132.85 226.41 128.02 238.12C128.02 238.12 146.36 248.91 150.88 251.58C150.88 251.58 156.32 234.22 157.45 230.01C157.45 230.01 148.81 218.08 135.66 212.84Z" fill="#EFDDDA"/>
<path d="M141.94 226.36C141.94 226.36 141.17 230.1 139.84 233.33C139.84 233.33 144.89 236.3 146.14 237.04C146.14 237.04 147.64 232.26 147.95 231.1C147.95 231.1 145.57 227.81 141.95 226.37L141.94 226.36Z" fill="#EBD5CE"/>
<path d="M354.25 187.4C354.25 187.4 350.64 187.04 347.76 185.96C344.87 184.88 339.1 184.88 338.56 187.4C338.02 189.92 341.81 191.01 341.45 194.79C341.09 198.58 335.5 209.4 332.61 216.61C329.72 223.82 329.18 232.3 327.38 238.97C325.58 245.64 322.51 248.71 321.07 250.69C319.63 252.67 323.23 255.2 327.38 255.38C331.53 255.56 344.33 254.12 352.27 255.74C360.21 257.36 390.68 260.97 401.51 257.36C403.49 256.64 403.85 251.95 404.22 247.26C404.58 242.57 409.63 223.45 410.71 214.62C411.79 205.78 411.07 198.57 412.69 195.5C414.31 192.43 415.76 189.19 412.69 188.83C409.62 188.47 397 188.65 391.05 189.01C385.1 189.37 366.88 186.3 354.26 187.39L354.25 187.4Z" fill="#E5CACA"/>
<path d="M410.7 214.64C411.78 205.8 411.06 198.59 412.68 195.52C414.3 192.45 415.75 189.21 412.68 188.85C412.49 188.83 412.27 188.81 412.02 188.79C410.54 189.43 408.65 190.69 407.09 193.18C404.02 198.05 402.76 207.97 400.96 216.99C399.16 226.01 394.65 232.68 395.01 239.71C395.34 246.12 396.27 253.76 399.85 257.85C400.44 257.71 401 257.56 401.51 257.39C403.49 256.67 403.85 251.98 404.22 247.29C404.58 242.6 409.63 223.48 410.71 214.65L410.7 214.64Z" fill="#D6B9B9"/>
<path d="M370.85 187.61C368.14 192.16 363.16 201.65 359.29 215.36C354.13 233.67 355.58 242.02 350.44 255.45C351.07 255.54 351.67 255.64 352.25 255.76C353.9 256.1 356.54 256.52 359.77 256.95C363.91 245.01 363.85 233.09 367.6 217.53C370.52 205.38 376.27 194.02 379.43 188.33C376.74 188.09 373.83 187.82 370.84 187.61H370.85Z" fill="#E8D1D1"/>
<path d="M383.53 258.89C388.42 245.69 388.19 225.75 389.95 213.92C391.31 204.82 396.22 194.4 399.18 188.73C396.11 188.8 393.15 188.9 391.03 189.03C390.59 189.06 390.09 189.06 389.53 189.06C387.24 193.54 383.93 201.25 381.65 211.76C378.17 227.83 379.71 244.65 372.86 258.33C376.38 258.61 380.01 258.81 383.52 258.9L383.53 258.89Z" fill="#E8D1D1"/>
<path d="M354.82 187.36C352.14 192.08 345.75 204.37 342.53 219.51C338.82 236.94 338.57 247.17 335.85 255.13C337.8 255.05 339.9 254.98 342.01 254.98C345.67 244.09 345.6 229.54 349.38 216.44C352.67 205.05 357.84 192.52 360.13 187.17C358.29 187.17 356.51 187.23 354.82 187.36Z" fill="#E8D1D1"/>
<path d="M472.94 192.45C472.94 192.45 447.11 184.33 429.27 209.94C411.44 235.55 430.73 257.37 441.92 261.7C453.1 266.03 479.43 263.5 489.89 238.43C500.35 213.36 485.92 197.13 472.94 192.44V192.45Z" fill="#EFE8E6"/>
<path d="M475.05 193.31C474.35 192.99 473.64 192.7 472.94 192.45C472.94 192.45 447.11 184.33 429.27 209.94C414.71 230.84 424.9 249.23 435.21 257.63C435.26 257.65 435.31 257.67 435.36 257.69C446.54 262.02 472.87 259.49 483.33 234.42C491.44 214.98 484.59 200.85 475.04 193.3L475.05 193.31Z" fill="white"/>
<path d="M446.38 220.55C445.77 222.08 444.38 222.95 443.27 222.51C442.16 222.07 441.76 220.47 442.37 218.94C442.98 217.41 444.37 216.54 445.48 216.98C446.59 217.42 446.99 219.02 446.38 220.55Z" fill="#EFE8E6"/>
<path d="M445.48 217.39C445.48 217.39 445.47 217.39 445.46 217.39C445.24 217.39 445.06 217.19 445.07 216.97C445.07 216.74 445.34 211.26 448.55 209.24C448.74 209.12 448.99 209.18 449.11 209.37C449.23 209.56 449.17 209.81 448.98 209.93C446.13 211.72 445.88 216.95 445.88 217C445.88 217.22 445.69 217.39 445.47 217.39H445.48Z" fill="#EFE8E6"/>
<path d="M439.82 228.27C439.82 228.27 439.77 228.27 439.74 228.27C439.52 228.23 439.38 228.01 439.42 227.79C440.42 222.69 443.08 222.14 443.19 222.12C443.41 222.08 443.62 222.22 443.66 222.44C443.7 222.66 443.56 222.87 443.34 222.91C443.3 222.91 441.09 223.45 440.21 227.94C440.17 228.13 440 228.27 439.81 228.27H439.82Z" fill="#EFE8E6"/>
<path d="M442.37 219.35C442.37 219.35 442.34 219.35 442.32 219.35C442.17 219.33 440.8 219.09 438.24 216.19C438.09 216.02 438.11 215.77 438.28 215.62C438.45 215.47 438.7 215.49 438.85 215.66C441.2 218.31 442.42 218.55 442.43 218.55C442.65 218.58 442.81 218.78 442.78 219C442.75 219.21 442.58 219.36 442.37 219.36V219.35Z" fill="#EFE8E6"/>
<path d="M451.3 222.94C448.19 222.94 446.18 220.93 446.09 220.84C445.93 220.68 445.94 220.42 446.09 220.27C446.25 220.11 446.51 220.12 446.66 220.27C446.68 220.29 448.75 222.35 451.8 222.11C452.02 222.09 452.22 222.26 452.24 222.48C452.26 222.7 452.09 222.9 451.87 222.92C451.68 222.94 451.48 222.94 451.3 222.94Z" fill="#EFE8E6"/>
<path d="M466.73 230.09C466.12 231.62 464.73 232.49 463.62 232.05C462.51 231.61 462.11 230.01 462.72 228.48C463.33 226.95 464.72 226.08 465.83 226.52C466.94 226.96 467.34 228.56 466.73 230.09Z" fill="#EFE8E6"/>
<path d="M460.58 237.25C460.58 237.25 460.54 237.25 460.51 237.25C460.29 237.21 460.14 237 460.18 236.78C460.76 233.3 462.92 231.61 463.01 231.54C463.19 231.4 463.44 231.44 463.58 231.62C463.72 231.8 463.68 232.05 463.5 232.19C463.47 232.21 461.5 233.77 460.97 236.92C460.94 237.12 460.76 237.26 460.57 237.26L460.58 237.25Z" fill="#EFE8E6"/>
<path d="M465.82 226.93C465.63 226.93 465.46 226.8 465.42 226.6C465.4 226.49 464.9 223.75 467.8 220.29C467.94 220.12 468.2 220.1 468.37 220.24C468.54 220.38 468.56 220.64 468.42 220.81C465.77 223.98 466.21 226.42 466.22 226.44C466.26 226.66 466.12 226.87 465.9 226.92C465.87 226.92 465.85 226.92 465.82 226.92V226.93Z" fill="#EFE8E6"/>
<path d="M462.57 228.89C460.55 228.89 458.29 226.31 458.19 226.2C458.04 226.03 458.06 225.77 458.23 225.63C458.4 225.48 458.66 225.5 458.8 225.67C459.41 226.37 461.3 228.18 462.68 228.08C462.9 228.06 463.1 228.23 463.11 228.45C463.13 228.67 462.96 228.87 462.74 228.88C462.68 228.88 462.63 228.88 462.57 228.88V228.89Z" fill="#EFE8E6"/>
<path d="M471.24 232.6C471.24 232.6 471.2 232.6 471.18 232.6C468.53 232.19 466.55 230.48 466.46 230.41C466.29 230.26 466.27 230.01 466.42 229.84C466.57 229.67 466.82 229.65 466.99 229.8C467.02 229.82 468.89 231.43 471.3 231.8C471.52 231.83 471.67 232.04 471.64 232.26C471.61 232.46 471.44 232.6 471.24 232.6Z" fill="#EFE8E6"/>
<path d="M125.26 237.92C125.26 237.92 123.74 221.52 137.47 216C151.2 210.48 239.54 219.66 248.6 221.82C257.66 223.98 258.89 242.64 244.17 246.89C229.45 251.14 161.62 260.04 151.91 259.54C142.2 259.03 128.33 254.3 125.25 237.92H125.26Z" fill="#EBAB98"/>
<path d="M123.41 235.78C123.41 235.78 124.65 216.65 139.71 213.82C154.77 210.99 196.75 214.17 218 215.59C239.26 217.01 252.9 218.42 255.91 220.55C258.92 222.68 266.01 234.37 252.9 244.46C239.79 254.56 159.2 262.17 150.87 261.82C142.54 261.47 123.95 258.81 123.41 235.78Z" fill="#DD8D5E"/>
<path d="M246.68 247.56C239.02 240.73 227.63 237.08 219.65 234.93C210.65 232.51 178.99 228.18 178.29 227.14C177.6 226.1 177.6 222.99 179.16 220.39C180.17 218.71 182.69 215.51 184.35 213.46C171.04 212.78 157.53 212.38 147.89 212.92C147.34 213.3 146.81 213.71 146.28 214.15C130.88 226.95 141.26 234.91 143.68 243.91C145.16 249.39 160.1 256.54 176.37 259.88C199.52 257.48 231.83 253.01 246.66 247.54L246.68 247.56Z" fill="#CC7D52"/>
<path d="M171.27 197.17C171.27 197.17 172.02 209.32 173 216.85C173.98 224.38 179.4 242.72 161.49 257.3C145.34 270.44 126.17 263.98 121.89 259.7C115.34 253.15 112.85 242.56 113.19 231.25C113.53 219.94 114.52 208.66 112.2 190.45C109.83 171.77 168.19 163.71 171.26 197.17H171.27Z" fill="#F5BCAB"/>
<path d="M121.82 262.77C121.82 262.77 114.73 255.92 112.25 240.57C111.9 235.85 112.25 224.16 112.96 218.13C112.96 218.13 132.33 222.15 145.43 221.2C158.54 220.26 170.64 212.4 172.3 209.69C172.3 209.69 174.48 221.56 175.67 230.89C178.83 255.86 141.66 279.07 121.82 262.77Z" fill="#CF8359"/>
<path d="M118.82 242.36C118.82 242.36 121.23 223.84 144.53 226.48C167.83 229.12 241.53 246.8 249.38 251.21C257.23 255.62 254.82 274.14 237.13 275.3C219.44 276.46 165.57 274.16 143.92 270.78C120.89 267.18 116.62 256.61 118.82 242.36Z" fill="#F5BCAB"/>
<path d="M117.04 249.24C117.04 249.24 114.74 233.48 127.85 227.63C140.96 221.78 168.77 228.69 179.93 231.35C191.09 234.01 227.76 241.62 233.07 243.04C238.38 244.46 251.49 248.89 253.97 251.37C256.45 253.85 258.58 262.18 253.79 267.67C249.01 273.16 244.4 276.7 234.13 277.41C223.86 278.12 154.6 276.17 136 271.39C117.4 266.61 117.58 251.91 117.05 249.25L117.04 249.24Z" fill="#DD8D5E"/>
<path d="M233.06 243.05C232.71 242.96 232.22 242.84 231.62 242.69C233.17 245.15 237.02 250.89 241.28 254.49C244.22 256.97 250.38 260.14 256.16 263.21C257.49 258.42 255.82 253.24 253.96 251.38C251.48 248.9 238.37 244.47 233.06 243.05Z" fill="#CC7D52"/>
<path d="M134.34 250.33C138.67 247.39 142.99 243.75 146.28 240.12C149.57 236.49 154.24 235.45 161.33 233.72C165.76 232.64 169.32 230.68 171.36 229.36C158.11 226.42 138.29 222.97 127.83 227.63C114.72 233.48 117.02 249.24 117.02 249.24C117.55 251.9 117.37 266.6 135.97 271.38C138.5 272.03 141.96 272.63 146.08 273.17C122.37 262.67 130.13 253.17 134.32 250.32L134.34 250.33Z" fill="#CF8359"/>
<path d="M330.13 294.41C330.13 294.41 333.55 290.99 334.74 282.48C335.92 273.98 334.39 269.43 334.39 269.43L322.11 267.72L318.57 289.8C318.57 289.8 324.36 294.05 330.14 294.41H330.13Z" fill="#B86E46"/>
<path d="M244.01 249.3C244.01 249.3 332.06 274 337.31 276.59C342.56 279.17 343.71 287.99 333.64 288.62C323.57 289.25 290.63 286.68 279.32 286.17C255.68 285.12 241.68 280.15 234.58 275.97C224.74 270.18 221.18 245.46 244.02 249.3H244.01Z" fill="#EBAB98"/>
<path d="M331.41 274.97C331.41 274.97 338.82 276.07 341.22 270.11C343.82 263.65 347 247.04 350.28 245.05C353.56 243.06 356.12 247.82 356.59 253.34C357.05 258.86 354.96 270.92 354.4 279.22C353.84 287.52 352.23 289.87 350 290.5C346.09 291.6 339.01 288.65 332.72 288.7C322.4 288.79 320.22 274.5 331.43 274.97H331.41Z" fill="#F5BCAB"/>
<path d="M356.35 260.65C352.43 263.13 348.55 266.69 347.09 268.93C345.48 271.39 340.32 275.7 339.48 275.39C338.98 275.21 338.77 274.18 338.69 273.38C335.59 275.59 331.42 274.98 331.42 274.98C320.22 274.51 322.4 288.8 332.71 288.71C339 288.66 346.09 291.62 349.99 290.51C352.22 289.88 353.83 287.52 354.39 279.23C354.76 273.69 355.82 266.48 356.35 260.66V260.65Z" fill="#EBAB98"/>
<path d="M227.21 253.67C227.21 253.67 220.12 268.02 234.65 277.23C234.65 277.23 236.42 281.48 242.8 279.89C242.8 279.89 255.55 284.32 269.72 286.98C283.89 289.64 280.35 288.22 288.32 290.52C296.29 292.82 305.5 290.52 310.46 292.29C315.42 294.06 324.45 296.19 330.12 294.42C330.12 294.42 324.45 277.59 334.37 269.44C334.37 269.44 326.58 266.43 320.02 266.25C313.47 266.07 301.6 262 296.28 260.76C290.97 259.52 256.96 250.66 253.24 250.13C249.52 249.6 234.29 242.51 227.2 253.67H227.21Z" fill="#DD8D5E"/>
<path d="M334.38 269.44C334.38 269.44 326.59 266.43 320.03 266.25C313.48 266.07 301.61 262 296.29 260.76C290.98 259.52 256.97 250.66 253.25 250.13C250.64 249.76 242.38 246.17 235.23 247.89C236.96 250.16 239.06 252.61 241.28 254.48C246.82 259.15 263.77 266.25 268.1 270.57C272.43 274.9 279.87 276.8 284.19 280.95C288.52 285.1 291.8 285.1 296.3 286.49C300.1 287.66 305.39 287.96 309.02 291.9C309.53 292 310.01 292.13 310.46 292.28C315.42 294.05 324.45 296.18 330.12 294.41C330.12 294.41 324.45 277.58 334.37 269.43L334.38 269.44Z" fill="#CC7D52"/>
<path d="M329.42 296.18C329.42 296.18 332.81 292.79 334.46 284.13C336.11 275.47 336.9 272.87 336.9 272.87L328.16 267.83C328.16 267.83 322.02 277.2 323.2 289.4C323.2 289.4 324.22 294.28 329.42 296.17V296.18Z" fill="#B86E46"/>
<path d="M252.4 224.01C252.4 224.01 329.67 274.95 333.92 278.33C338.17 281.71 336.43 293.12 326.56 289.89C316.69 286.65 299.52 280 289.18 275.98C278.84 271.97 249.74 256.4 240.29 247.8C230.84 239.2 237.71 217.41 252.4 224.02V224.01Z" fill="#F5BCAB"/>
<path d="M324.58 289.22C324.58 289.22 331.57 292.79 334.15 294.65C339.66 298.63 344.74 297.56 347.45 295.08C350.38 292.4 354.46 285.63 359.34 280.99C364.56 276.02 367.68 269.73 367.45 265.84C367.21 261.94 364.85 257.69 362.96 258.05C361.07 258.4 350 268.6 346.31 272.57C340.17 279.18 336.86 279.18 329.54 275.4C322.22 271.62 314.31 283.31 324.58 289.22Z" fill="#F5BCAB"/>
<path d="M339.93 293.63C339.74 293.63 339.58 293.5 339.54 293.31C339.51 293.18 338.95 290.04 341.6 285.59C343.19 282.91 344.97 281.39 346.54 280.04C347.55 279.18 348.42 278.43 349.05 277.53C349.43 276.99 349.9 276.2 350.44 275.28C352.21 272.28 354.89 267.75 358.48 265.27C358.66 265.14 358.91 265.19 359.04 265.37C359.17 265.55 359.12 265.8 358.94 265.93C355.49 268.32 352.87 272.76 351.13 275.69C350.58 276.62 350.11 277.42 349.71 277.99C349.02 278.97 348.07 279.79 347.06 280.65C345.54 281.95 343.81 283.43 342.28 286C339.79 290.19 340.32 293.13 340.32 293.16C340.36 293.38 340.22 293.59 340 293.63C339.97 293.63 339.95 293.63 339.92 293.63H339.93Z" fill="#EBAB98"/>
<path d="M237.86 226.67C237.86 226.67 228.81 237.38 238.49 248.36C243.18 253.67 264.23 264.3 270.61 268.91C276.99 273.52 284.07 275.46 286.91 278.3C289.74 281.13 306.39 286.27 310.29 287.69C314.19 289.11 322.69 295.13 329.42 296.19C329.42 296.19 324.85 283.34 336.9 272.89C336.9 272.89 336.98 267.28 318.71 260.29C310.23 257.05 301.78 250.13 295.94 245.71C290.09 241.28 261.04 222.51 256.09 220.73C251.13 218.96 243.61 220.53 237.86 226.67Z" fill="#DD8D5E"/>
<path d="M155.05 127.5C155.05 127.5 167.12 121.23 172.87 137.09C178.61 152.95 183.23 180.99 184.18 190.26C185.13 199.53 173.56 202.5 168.53 194.59C163.5 186.67 153.4 154.92 151.26 146.76C149.12 138.6 148.86 130.67 155.06 127.51L155.05 127.5Z" fill="#F5BCAB"/>
<path d="M177.43 180.79C178.97 179.99 181.06 177.81 182.2 176.53C181.61 172.99 180.9 169.12 180.11 165.14L158.54 170.02C162.03 180.21 165.94 190.53 168.51 194.59C171.22 198.87 175.84 199.96 179.37 198.61C179.32 197.58 179.29 196.56 179.34 195.71C179.49 192.63 178.26 190.25 177.42 187.87C176.57 185.49 175.19 181.95 177.42 180.79H177.43Z" fill="#EBAB98"/>
<path d="M163.62 125.9C163.62 125.9 172.24 129.44 175.55 141.49C178.86 153.54 180.27 157.2 180.51 160.15C180.75 163.1 180.98 164.99 181.93 167.47C182.87 169.95 184.29 172.78 183.94 173.73C183.59 174.68 174.49 181.64 159.02 182.35C159.02 182.35 157.25 181.76 157.25 179.87C157.25 177.98 156.31 171.13 155.48 168.77C154.65 166.41 148.51 144.33 148.28 137.59C148.04 130.86 153.48 123.3 163.63 125.9H163.62Z" fill="#FFD599"/>
<path d="M183.93 173.73C184.15 173.13 183.67 171.79 183.05 170.26C181.09 171.46 177.95 172.9 177.31 172.07C176.5 171.03 176.62 168.61 176.39 165.84C176.16 163.07 176.39 160.88 175.24 154.88C174.09 148.88 171.78 142.08 171.78 142.08C171.78 142.08 156.62 142.15 149.26 144.37C151.08 153.56 154.84 166.97 155.48 168.78C156.31 171.14 157.25 177.99 157.25 179.88C157.25 181.77 159.02 182.36 159.02 182.36C174.49 181.65 183.58 174.68 183.94 173.74L183.93 173.73Z" fill="#FFC989"/>
<path d="M188.19 190.38C192.07 194.37 201.49 203.29 203.86 205.26C206.22 207.23 204.57 214.16 196.38 211.09C188.19 208.02 170.32 199.91 167.72 193.22C165.12 186.53 177.32 179.21 188.19 190.39V190.38Z" fill="#F5BCAB"/>
<path d="M179.35 195.71C179.5 192.63 178.27 190.25 177.43 187.87C177.08 186.89 176.65 185.72 176.41 184.6C170.33 184.53 166.08 188.99 167.72 193.21C169.01 196.53 174.05 200.19 179.8 203.42C179.62 201.83 179.23 198.08 179.35 195.71Z" fill="#EBAB98"/>
<path d="M125.32 122.06C135.99 120.27 144.5 121.73 154.54 124.67C161.26 126.64 162.73 129.03 165.98 133.57C171.69 141.55 170.5 162.46 170.2 171.24C169.88 180.48 171.93 198.25 171.13 203.16C170.33 208.06 147.44 215.64 134.12 213.63C123.91 212.09 114.57 207.09 113.24 197.74C111.67 186.71 110.26 172.74 107.17 163.13C104.08 153.52 98.62 132.32 113.95 125.63C116.82 124.37 122.5 122.53 125.31 122.06H125.32Z" fill="#F5BCAB"/>
<path d="M150.78 113.62C150.78 113.62 149.26 123.47 150.91 128.27C152.56 133.06 144.72 134.99 139.85 134.36C134.98 133.73 126.88 132.28 126.71 126.3C126.54 120.32 130.8 120.8 132.03 104.74C132.99 92.18 153.63 101.47 150.79 113.62H150.78Z" fill="#F5BCAB"/>
<path d="M150.44 126.33C149.6 121.23 150.78 113.62 150.78 113.62C153.03 103.97 140.48 96.13 134.74 99.6C134.36 100.97 134.07 102.53 133.9 104.3C133.81 105.22 140.7 123.57 150.44 126.34V126.33Z" fill="#EBAB98"/>
<path d="M127.76 121.56C127.76 121.56 136.35 132.75 146.5 130.15C148.63 129.41 150.25 127.74 150.16 123.45C150.16 122.97 150.1 122.46 150.14 121.89C150.14 121.89 154.41 122.01 161.02 124.49C167.63 126.97 170.59 133.35 171.29 136.06C172 138.78 173.42 146.69 173.65 150.82C173.89 154.95 174.36 159.79 174.12 163.22C173.88 166.64 175.3 170.9 175.3 174.2C175.3 177.5 175.06 183.88 175.65 186.6C176.24 189.32 177.89 195.81 177.89 200.42C177.89 205.03 179.19 210.58 180.25 212.82C180.49 215.3 174.82 223.57 169.74 226.28C164.66 228.99 152.74 227.46 138.45 238.68C124.16 249.9 109.75 245.41 109.52 244.7C109.28 243.99 110.58 234.19 110.11 230.77C109.64 227.35 108.1 218.72 108.69 212.47C109.28 206.21 109.52 186.61 108.81 176.93C108.1 167.25 96.94 146.05 106.74 129.99C108.78 126.64 118.23 121.69 127.73 121.57L127.76 121.56Z" fill="#FFD599"/>
<path d="M180.27 212.81C180.13 212.52 179.99 212.17 179.85 211.77C177.93 212.41 174.66 213.27 171.77 212.92C167.34 212.39 158.66 210.79 152.99 206.01C147.32 201.23 129.43 195.91 129.43 195.91C129.43 195.91 128.9 192.72 128.9 191.66C128.9 190.6 132.09 190.77 133.68 190.42C135.27 190.07 134.39 186.88 133.33 182.8C132.27 178.73 132.98 173.59 132.27 160.3C131.56 147.02 127.49 139.93 127.49 139.93C127.49 139.93 114.22 138.62 102.83 143.1C102.02 156.17 108.31 169.7 108.84 176.89C109.55 186.57 109.31 206.18 108.72 212.43C108.13 218.69 109.66 227.31 110.14 230.73C110.61 234.15 109.31 243.96 109.55 244.66C109.75 245.26 120.23 248.61 132.17 242.65C127.83 242.7 122.07 242.5 120.06 241.23C116.69 239.1 118.47 233.79 118.82 229.01C119.17 224.23 118.11 220.51 120.41 221.39C122.71 222.28 144.15 224.93 146.63 227.41C147.86 228.64 148.69 230.51 149.22 232.1C158.59 227.93 166.03 228.23 169.77 226.23C174.85 223.51 180.52 215.25 180.28 212.77L180.27 212.81Z" fill="#FFC989"/>
<path d="M141.19 133.86C141.19 133.86 141.16 133.86 141.14 133.86C132.82 132.79 127.3 126.44 127.07 126.17C126.93 126 126.95 125.75 127.11 125.61C127.28 125.47 127.53 125.49 127.67 125.65C127.72 125.71 133.22 132.04 141.23 133.07C141.45 133.1 141.6 133.3 141.57 133.52C141.54 133.72 141.37 133.87 141.17 133.87L141.19 133.86Z" fill="#FFC989"/>
<path d="M144.49 133.98C144.29 133.98 144.11 133.82 144.09 133.62C144.07 133.4 144.23 133.21 144.45 133.19C144.5 133.19 148.22 132.82 150.21 130.42C151.19 129.23 151.59 127.73 151.41 125.96C151.39 125.74 151.55 125.55 151.77 125.52C151.99 125.5 152.19 125.66 152.21 125.88C152.41 127.88 151.95 129.58 150.83 130.94C148.63 133.61 144.7 133.98 144.53 134C144.52 134 144.51 134 144.49 134V133.98Z" fill="#FFC989"/>
<path d="M170.79 83.2399C170.79 83.2399 170.85 90.5199 167.14 98.3099L165.72 81.9399L170.78 83.2499L170.79 83.2399Z" fill="#142347"/>
<path d="M154.84 66.05C154.84 66.05 169.37 69.88 169.11 83.44C168.85 97 162.59 120.35 153.53 121.22C145.26 122.01 134.86 111.52 131.43 102.4C127.82 92.8 128.12 81.55 132.91 73.97C137.11 67.33 143.41 63.1 154.84 66.06V66.05Z" fill="#F5BCAB"/>
<path d="M153.12 102.05C153.12 102.05 152.75 100.27 148.78 99.48C145.56 98.84 143.04 98.8 142.63 100.8C141.85 103.35 153.93 106.41 153.12 102.05Z" fill="#EBAB98"/>
<path d="M159.76 104.56C159.69 105.83 162.39 106.86 164.47 107.5C165.01 106.03 165.5 104.49 165.96 102.92C163.25 102.5 160.02 102.34 159.77 104.56H159.76Z" fill="#EBAB98"/>
<path d="M153.522 95.8653C153.777 94.7055 153.279 93.6108 152.41 93.4201C151.542 93.2295 150.631 94.0152 150.377 95.175C150.122 96.3348 150.62 97.4296 151.488 97.6202C152.357 97.8108 153.267 97.0251 153.522 95.8653Z" fill="#192B4F"/>
<path d="M161.49 97.31C161.25 98.43 161.73 99.48 162.56 99.66C163.4 99.84 164.28 99.09 164.52 97.97C164.76 96.85 164.28 95.8 163.45 95.62C162.61 95.44 161.73 96.19 161.49 97.31Z" fill="#192B4F"/>
<path d="M153.07 111.32C150.7 110.78 148.61 109.62 148.51 109.56C148.26 109.42 148.18 109.11 148.32 108.86C148.46 108.61 148.77 108.53 149.02 108.66C149.05 108.67 151.56 110.07 154.07 110.46C157.18 110.94 159.52 110.46 159.54 110.46C159.82 110.4 160.09 110.58 160.14 110.86C160.2 111.14 160.02 111.41 159.75 111.46C159.65 111.48 157.22 111.98 153.92 111.46C153.64 111.42 153.35 111.36 153.08 111.3L153.07 111.32Z" fill="#E09282"/>
<path d="M155.59 106.49C155.24 106.41 154.98 106.33 154.91 106.31C154.64 106.23 154.49 105.94 154.57 105.67C154.65 105.4 154.94 105.25 155.21 105.33C155.86 105.53 157.1 105.78 157.66 105.65C157.68 105.65 157.7 105.64 157.71 105.63C157.75 105.49 157.68 105.04 157.62 104.64L157.6 104.51C156.65 98.01 157.59 95.58 157.63 95.48C157.74 95.22 158.03 95.09 158.29 95.2C158.55 95.3 158.68 95.6 158.57 95.86C158.55 95.9 157.71 98.23 158.6 104.36L158.62 104.49C158.77 105.51 158.9 106.39 157.88 106.63C157.22 106.79 156.24 106.63 155.58 106.47L155.59 106.49Z" fill="#E09282"/>
<path d="M156.02 90.07C156.02 90.07 156.76 90.2 156.65 90.69C156.54 91.18 156.15 92.22 155.81 92.28C155.47 92.33 151.73 91.26 150.27 90.93C148.81 90.59 146.39 90.38 146.32 90.18C146.25 89.98 147.38 89.31 149.15 89.28C150.65 89.25 154.14 89.46 156.03 90.07H156.02Z" fill="#142347"/>
<path d="M167.48 94.38C167.48 94.38 168.18 94.59 168.33 94.16C168.53 93.61 166.44 92.16 162.39 91.39C161.19 91.22 160.97 92.64 161.1 93.35C161.23 94.01 163.22 93.3 167.48 94.38Z" fill="#142347"/>
<path d="M153.66 113.36C152.97 113.2 152.48 113.01 152.44 112.99C152.18 112.88 152.05 112.59 152.16 112.32C152.27 112.06 152.56 111.93 152.83 112.04C152.86 112.05 154.71 112.78 156.03 112.44C156.3 112.37 156.58 112.53 156.65 112.8C156.72 113.07 156.56 113.35 156.29 113.42C155.42 113.65 154.43 113.53 153.67 113.35L153.66 113.36Z" fill="#EBAB98"/>
<path d="M146.13 77.02C146.13 77.02 145.06 78.9 144.61 81.11C144.16 83.32 142.81 87.21 139.89 89.94C136.97 92.67 136.32 93.9799 134.94 97.36C133.56 100.74 131.77 110.27 131.32 110.84C130.88 111.4 128.18 107.55 127.57 102.43C126.96 97.3099 125.48 87.3299 126.91 78.7299C128.34 70.1299 137.95 63.08 146.19 63.85C146.19 63.85 154.56 61.94 161.33 66.5C168.1 71.06 172.66 81.39 172.56 84.36C172.56 84.36 168.33 84.7799 164.7 82.9499L164.99 84.0099C164.99 84.0099 162.38 83.58 160.18 81.64C160.18 81.64 156.15 82.3199 152.87 81.2599C152.87 81.2599 147.9 81.0599 146.13 77.0099V77.02Z" fill="#142347"/>
<path d="M138.53 95.23C138.53 95.23 139.89 88.34 135.79 87.46C131.69 86.58 130.55 92.35 132.44 96.63C133.5 99.02 137.08 102.49 138.53 95.23Z" fill="#F5BCAB"/>
<path d="M134.47 92.03C135.27 92.24 135.82 92.81 136.17 93.35C136.22 92.54 136.04 91.71 135.39 91.08C135.22 90.92 135.22 90.65 135.38 90.48C135.54 90.31 135.81 90.3 135.98 90.47C138.31 92.7 136.08 96.56 135.98 96.72C135.86 96.92 135.6 96.99 135.4 96.87C135.4 96.87 135.4 96.87 135.39 96.87C135.2 96.75 135.13 96.5 135.25 96.3C135.25 96.29 135.64 95.63 135.91 94.74C135.91 94.73 135.9 94.72 135.9 94.71C135.9 94.69 135.42 93.15 134.26 92.85C134.03 92.79 133.9 92.56 133.96 92.34C134.02 92.11 134.25 91.98 134.47 92.04V92.03Z" fill="#E09282"/>
<path d="M165.98 243.64L211.96 217.85L246.88 220.73V222.85L206.61 250.48L165.98 245.76V243.64Z" fill="#293462"/>
<path d="M175.55 241.51L206.37 244.7L240.26 222.26L212.51 219.9L175.55 241.51Z" fill="#2E396F"/>
<path d="M181.28 244.28C181.09 244.28 180.89 244.18 180.78 244C180.61 243.73 180.69 243.37 180.97 243.2L219.11 219.44C219.38 219.27 219.74 219.35 219.91 219.63C220.08 219.9 220 220.26 219.72 220.43L181.58 244.19C181.48 244.25 181.38 244.28 181.27 244.28H181.28Z" fill="#293462"/>
<path d="M193.96 245.05C193.77 245.05 193.57 244.95 193.46 244.77C193.29 244.5 193.37 244.14 193.65 243.97L231.79 220.21C232.06 220.04 232.42 220.12 232.59 220.4C232.76 220.67 232.68 221.03 232.4 221.2L194.26 244.96C194.16 245.02 194.06 245.05 193.95 245.05H193.96Z" fill="#293462"/>
<path d="M206.84 247.77L206.61 250.48L246.88 222.85V220.73L206.84 247.77Z" fill="#212C55"/>
<path d="M206.61 250.48L165.98 245.76V243.64L206.84 247.77L206.61 250.48Z" fill="#212C55"/>
<path d="M113.67 126.14C113.67 126.14 127.07 123.81 127.76 140.66C128.44 157.51 124.68 198.86 122.79 207.98C120.89 217.11 108.96 216.44 106.57 207.38C104.17 198.31 103.82 151.77 104.25 143.35C104.68 134.92 106.82 127.28 113.69 126.14H113.67Z" fill="#F5BCAB"/>
<path d="M118.28 194.99C118.28 194.99 122.08 195.28 124.54 195.26C124.92 191.85 125.3 188.03 125.66 184C121.73 182.92 110.98 183.18 104.59 183.46C104.69 186.17 104.8 188.81 104.93 191.29C107.46 191.77 111.86 192.43 115.22 192.02C120.22 191.4 122.53 190.86 123.05 191.56C124.81 193.93 120.83 192.94 118.29 194.99H118.28Z" fill="#EBAB98"/>
<path d="M114.5 125.55C114.5 125.55 106.47 126.61 103.99 135.23C102.07 141.91 102.1 151.29 101.39 156.37C100.68 161.45 100.56 165.94 100.56 169.01C100.56 172.08 101.62 178.81 101.39 181.17C101.15 183.53 100.33 186.84 100.68 188.02C101.03 189.2 118.39 193.92 130.08 186.72C130.79 184.95 129.73 176.21 129.84 173.14C129.95 170.07 131.02 147.75 130.31 140.78C129.6 133.81 123.22 124.37 114.49 125.55H114.5Z" fill="#FFD599"/>
<path d="M114.26 214.64C114.26 214.64 156.72 226.47 167.75 226.4C178.78 226.33 178.22 219.25 168.19 215.78C159.72 212.84 147.68 206.8 141.3 203.61C131.84 198.88 125.41 193.81 116.38 194.35C107.67 194.87 102.34 211.29 114.26 214.65V214.64Z" fill="#F5BCAB"/>
<path d="M163.33 225.98C163.33 225.98 166.87 226.92 168.41 227.99C169.95 229.05 175.73 231.12 177.33 231.12C178.93 231.12 182.7 232.18 183.41 232.36C184.12 232.54 185.54 236.38 186.54 237.02C187.54 237.67 187.37 235.54 187.01 234.3C186.66 233.06 186.01 231.47 185.89 231.23C185.77 230.99 182.94 229.1 182.94 229.1C182.94 229.1 185.95 230.04 186.96 230.4C187.96 230.75 188.61 233 189.09 233.94C189.56 234.88 190.39 236.12 190.98 236.01C191.57 235.89 191.39 233.47 191.39 233.47C191.39 233.47 192.45 235.42 193.1 235.42C193.75 235.42 193.93 233.06 193.69 231.82C193.69 231.82 194.69 231.94 195.05 231.52C195.4 231.11 194.4 227.98 193.87 226.44C193.34 224.9 188.2 221.36 186.19 219.89C184.18 218.41 177.92 219.83 168.95 215.99C159.98 212.15 154.72 223.19 163.34 225.97L163.33 225.98Z" fill="#F5BCAB"/>
<path d="M193.68 231.83C192.95 230.16 192.45 228.34 191.51 226.79C190.72 226.04 189.71 225.55 188.83 224.9C188.04 224.29 187.09 223.74 186.46 223C186.96 223.08 187.45 223.35 187.91 223.54C189.52 224.33 191.19 225.29 192.23 226.8C192.73 228.38 193.53 230.36 193.68 231.81V231.83Z" fill="#E09282"/>
<path d="M191.37 233.48C190.74 232.03 190.11 230.58 189.43 229.16C188.77 228.19 187.56 227.78 186.59 227.16C185.81 226.65 184.86 226.22 184.2 225.6C184.68 225.6 185.17 225.81 185.63 225.94C187.28 226.53 189.07 227.4 189.97 229C190.41 230.41 191.24 232.19 191.37 233.47V233.48Z" fill="#E09282"/>
<path d="M195.82 210.77C195.82 210.77 197.79 212.42 198.34 213.6C198.89 214.78 200.23 217.69 200.86 218.8C201.49 219.9 204.17 224.23 204.64 224.63C205.11 225.03 205.82 222.98 205.66 221.8C205.5 220.62 204.64 218.65 204.24 217.71C203.85 216.77 203.85 215.9 204.32 215.43C204.79 214.96 209.44 217.32 210.38 217.87C211.32 218.42 212.74 223.77 213.53 224.64C214.32 225.51 215.18 224.48 214.87 223.38C214.87 223.38 216.64 225.67 216.44 221.81C216.44 221.81 217.7 222.12 217.23 219.92C217.23 219.92 218.09 220.46 218.09 218.8C218.09 216.96 217.85 214.66 216.47 211.71C215.22 209.05 207.24 207.71 202.2 203.78C197.16 199.84 189.68 206.61 195.82 210.79V210.77Z" fill="#F5BCAB"/>
<path d="M214.89 223.37C214.26 221.44 213.63 219.37 213.03 217.43C212.48 216.34 211.4 215.54 210.67 214.56C211.7 214.74 213.65 216.15 213.79 217.43C213.97 218.46 214.27 219.82 214.46 220.85C214.52 221.63 215.03 222.78 214.89 223.37Z" fill="#E09282"/>
<path d="M216.45 221.79C215.97 220.18 215.43 218.01 214.87 216.46C214.07 215.29 213.15 214.19 212.52 212.9C213.65 213.41 214.94 214.94 215.51 216.2C215.88 217.96 216.45 220.19 216.45 221.79Z" fill="#E09282"/>
<path d="M217.2 219.91C216.72 218.35 216.35 216.65 215.88 215.09C215.3 214.07 214.72 213.08 214.35 211.93C214.91 212.08 215.46 213 215.89 213.51C216.33 214.12 216.64 214.85 216.69 215.61C216.77 216.14 216.93 217.22 217.01 217.75C217.1 218.47 217.21 219.18 217.29 219.9C217.29 219.94 217.23 219.96 217.21 219.92L217.2 219.91Z" fill="#E09282"/>
<path d="M258.33 188.96L222.79 208.09L204.47 247.53L206.84 247.77L246.88 220.73L260.1 189.2L258.33 188.96Z" fill="#2E396F"/>
<path d="M258.33 188.96L243.93 196.71C244.09 202.31 242.15 221.42 210.85 236.67L208.92 237.93L204.46 247.53L206.83 247.77L246.86 220.73L260.09 189.2L258.32 188.96H258.33Z" fill="#293462"/>
<path d="M258.33 188.96L222.79 208.09L204.47 247.53L206.84 247.77L224.2 209.15L260.1 189.2L258.33 188.96Z" fill="#34427D"/>
</svg>
