<svg width="1499" height="361" viewBox="0 0 1499 361" fill="none" xmlns="http://www.w3.org/2000/svg">
<path d="M422.452 224.4H491.452V255.8H318.652V224.4H388.052V196.2H328.052V95H482.052V126.4H362.652V165H484.052V196.2H422.452V224.4ZM691.434 153.4V186.2H671.434V261.8H637.634V91H671.434V153.4H691.434ZM610.434 125.6V221C617.834 219.6 624.634 217.8 629.634 215.4V245.6C619.234 250.8 600.434 253.8 584.034 253.8H512.634V223.2H526.634V125.6H513.834V95H623.234V125.6H610.434ZM559.834 125.6V223.2H577.234V125.6H559.834ZM868.617 91V217.4H834.817V91H868.617ZM815.017 93V190.2H709.017V93H815.017ZM742.417 161.6H781.617V121.6H742.417V161.6ZM750.217 202V231.4H871.017V261.8H715.817V202H750.217ZM1061 91V261.8H1027.2V91H1061ZM1004.8 95V125.8H937.6V223H974C990.2 223 1007.8 220 1018.2 215.2V245.6C1007.8 250.8 989 253.8 972.6 253.8H903.4V95H1004.8ZM1191.38 179.2H1260.98V205H1088.18V179.2H1157.78V170.4H1098.78V91H1250.58V113.2H1132.18V120.8H1247.78V140.6H1132.18V148.2H1252.58V170.4H1191.38V179.2ZM1097.38 238.6V212.8H1250.98V263.8H1216.78V238.6H1097.38ZM1365.77 156C1345.97 182.8 1316.57 199.8 1283.97 200V168C1317.97 167.8 1349.57 136.2 1355.77 90.4L1390.17 95.8C1388.57 107.8 1385.37 119 1380.77 129.6L1453.57 173.4L1435.77 200.8L1365.77 156ZM1280.57 255.8V224.2H1453.37V255.8H1280.57Z" fill="white"/>
<path d="M133.594 171.838C133.594 183.511 132.305 193.537 129.727 201.916C127.148 210.295 123.747 217.421 119.521 223.293C115.296 229.094 110.498 233.785 105.127 237.365C99.7559 240.874 94.2773 243.632 88.6914 245.637C83.1771 247.57 77.7702 248.859 72.4707 249.504C67.1712 250.148 62.4805 250.471 58.3984 250.471C51.4518 250.471 45.5078 250.22 40.5664 249.719C35.6966 249.289 31.6504 249.074 28.4277 249.074C24.7754 249.074 20.7292 249.146 16.2891 249.289C11.849 249.432 7.1582 249.719 2.2168 250.148C4.15039 246.639 5.83333 242.736 7.26562 238.439C8.76953 234.071 10.0586 229.523 11.1328 224.797C12.207 220.07 13.1022 215.308 13.8184 210.51C14.6061 205.64 15.2507 200.949 15.752 196.438C16.8978 185.839 17.5423 174.953 17.6855 163.781C17.5423 152.681 17.0052 142.261 16.0742 132.521C15.6445 128.368 15.1074 124.214 14.4629 120.061C13.89 115.835 13.1738 111.861 12.3145 108.137C11.4551 104.341 10.4167 100.939 9.19922 97.9316C8.05339 94.9238 6.69271 92.5247 5.11719 90.7344C10.4167 91.5938 15.4297 92.1667 20.1562 92.4531C24.9544 92.7396 29.1797 92.8828 32.832 92.8828C35.1953 92.8828 37.487 92.8112 39.707 92.668C41.9271 92.5247 44.2188 92.3815 46.582 92.2383C48.9453 92.0951 51.4518 91.9518 54.1016 91.8086C56.8229 91.6654 59.8665 91.5938 63.2324 91.5938C68.1022 91.5938 73.2227 91.9518 78.5938 92.668C84.0365 93.3125 89.3359 94.6374 94.4922 96.6426C99.7201 98.6478 104.697 101.477 109.424 105.129C114.15 108.781 118.304 113.579 121.885 119.523C125.465 125.467 128.294 132.736 130.371 141.33C132.52 149.852 133.594 160.021 133.594 171.838ZM81.0645 169.475C81.0645 161.096 80.8138 154.113 80.3125 148.527C79.8112 142.941 79.0592 138.465 78.0566 135.1C77.1257 131.662 75.944 129.227 74.5117 127.795C73.0794 126.363 71.4323 125.646 69.5703 125.646C67.9232 125.646 66.4193 126.506 65.0586 128.225C63.7695 129.872 62.6595 132.557 61.7285 136.281C60.7975 140.005 60.0814 144.803 59.5801 150.676C59.0788 156.477 58.8281 163.531 58.8281 171.838C58.8281 180.575 59.043 187.88 59.4727 193.752C59.974 199.553 60.6543 204.208 61.5137 207.717C62.4447 211.226 63.5547 213.732 64.8438 215.236C66.2044 216.669 67.7799 217.385 69.5703 217.385C73.0794 217.385 75.8724 213.553 77.9492 205.891C80.026 198.228 81.0645 186.089 81.0645 169.475ZM245.312 185.266C245.312 189.419 244.99 194.003 244.346 199.016C243.701 203.957 242.627 208.97 241.123 214.055C239.619 219.068 237.578 223.973 235 228.771C232.422 233.498 229.199 237.688 225.332 241.34C221.536 244.992 216.989 247.928 211.689 250.148C206.39 252.368 200.231 253.479 193.213 253.479C186.195 253.479 180.036 252.44 174.736 250.363C169.508 248.286 164.997 245.529 161.201 242.092C157.477 238.583 154.398 234.572 151.963 230.061C149.528 225.477 147.594 220.679 146.162 215.666C144.73 210.653 143.727 205.604 143.154 200.52C142.653 195.363 142.402 190.493 142.402 185.91C142.402 177.818 143.477 169.904 145.625 162.17C147.773 154.364 151.032 147.417 155.4 141.33C159.84 135.243 165.355 130.337 171.943 126.613C178.604 122.889 186.41 121.027 195.361 121.027C201.377 121.027 206.784 121.958 211.582 123.82C216.38 125.611 220.641 128.081 224.365 131.232C228.089 134.383 231.24 138.072 233.818 142.297C236.468 146.522 238.652 150.998 240.371 155.725C242.09 160.451 243.343 165.357 244.131 170.441C244.919 175.526 245.312 180.467 245.312 185.266ZM207.93 188.811C207.93 187.163 207.858 185.122 207.715 182.688C207.643 180.181 207.428 177.567 207.07 174.846C206.712 172.124 206.211 169.403 205.566 166.682C204.993 163.96 204.206 161.525 203.203 159.377C202.201 157.229 200.947 155.474 199.443 154.113C198.011 152.753 196.292 152.072 194.287 152.072C192.354 152.072 190.671 152.717 189.238 154.006C187.806 155.295 186.553 156.978 185.479 159.055C184.476 161.132 183.617 163.495 182.9 166.145C182.256 168.723 181.719 171.337 181.289 173.986C180.931 176.564 180.645 179.071 180.43 181.506C180.286 183.869 180.215 185.874 180.215 187.521C180.215 189.885 180.394 192.749 180.752 196.115C181.11 199.481 181.79 202.704 182.793 205.783C183.796 208.863 185.156 211.512 186.875 213.732C188.665 215.881 190.993 216.955 193.857 216.955C196.579 216.955 198.835 215.952 200.625 213.947C202.487 211.942 203.955 209.507 205.029 206.643C206.104 203.706 206.855 200.627 207.285 197.404C207.715 194.182 207.93 191.317 207.93 188.811Z" fill="white"/>
</svg>
