<svg width="1024" height="1024" viewBox="0 0 1024 1024" fill="none" xmlns="http://www.w3.org/2000/svg">
<rect width="1024" height="1024" rx="180" fill="black"/>
<path d="M540.438 507.285C540.438 539.121 536.922 566.465 529.891 589.316C522.859 612.168 513.582 631.602 502.059 647.617C490.535 663.438 477.449 676.23 462.801 685.996C448.152 695.566 433.211 703.086 417.977 708.555C402.938 713.828 388.191 717.344 373.738 719.102C359.285 720.859 346.492 721.738 335.359 721.738C316.414 721.738 300.203 721.055 286.727 719.688C273.445 718.516 262.41 717.93 253.621 717.93C243.66 717.93 232.625 718.125 220.516 718.516C208.406 718.906 195.613 719.688 182.137 720.859C187.41 711.289 192 700.645 195.906 688.926C200.008 677.012 203.523 664.609 206.453 651.719C209.383 638.828 211.824 625.84 213.777 612.754C215.926 599.473 217.684 586.68 219.051 574.375C222.176 545.469 223.934 515.781 224.324 485.312C223.934 455.039 222.469 426.621 219.93 400.059C218.758 388.73 217.293 377.402 215.535 366.074C213.973 354.551 212.02 343.711 209.676 333.555C207.332 323.203 204.5 313.926 201.18 305.723C198.055 297.52 194.344 290.977 190.047 286.094C204.5 288.438 218.172 290 231.062 290.781C244.148 291.562 255.672 291.953 265.633 291.953C272.078 291.953 278.328 291.758 284.383 291.367C290.438 290.977 296.688 290.586 303.133 290.195C309.578 289.805 316.414 289.414 323.641 289.023C331.062 288.633 339.363 288.438 348.543 288.438C361.824 288.438 375.789 289.414 390.438 291.367C405.281 293.125 419.734 296.738 433.797 302.207C448.055 307.676 461.629 315.391 474.52 325.352C487.41 335.312 498.738 348.398 508.504 364.609C518.27 380.82 525.984 400.645 531.648 424.082C537.508 447.324 540.438 475.059 540.438 507.285ZM397.176 500.84C397.176 477.988 396.492 458.945 395.125 443.711C393.758 428.477 391.707 416.27 388.973 407.09C386.434 397.715 383.211 391.074 379.305 387.168C375.398 383.262 370.906 381.309 365.828 381.309C361.336 381.309 357.234 383.652 353.523 388.34C350.008 392.832 346.98 400.156 344.441 410.312C341.902 420.469 339.949 433.555 338.582 449.57C337.215 465.391 336.531 484.629 336.531 507.285C336.531 531.113 337.117 551.035 338.289 567.051C339.656 582.871 341.512 595.566 343.855 605.137C346.395 614.707 349.422 621.543 352.938 625.645C356.648 629.551 360.945 631.504 365.828 631.504C375.398 631.504 383.016 621.055 388.68 600.156C394.344 579.258 397.176 546.152 397.176 500.84ZM845.125 543.906C845.125 555.234 844.246 567.734 842.488 581.406C840.73 594.883 837.801 608.555 833.699 622.422C829.598 636.094 824.031 649.473 817 662.559C809.969 675.449 801.18 686.875 790.633 696.836C780.281 706.797 767.879 714.805 753.426 720.859C738.973 726.914 722.176 729.941 703.035 729.941C683.895 729.941 667.098 727.109 652.645 721.445C638.387 715.781 626.082 708.262 615.73 698.887C605.574 689.316 597.176 678.379 590.535 666.074C583.895 653.574 578.621 640.488 574.715 626.816C570.809 613.145 568.074 599.375 566.512 585.508C565.145 571.445 564.461 558.164 564.461 545.664C564.461 523.594 567.391 502.012 573.25 480.918C579.109 459.629 587.996 440.684 599.91 424.082C612.02 407.48 627.059 394.102 645.027 383.945C663.191 373.789 684.48 368.711 708.895 368.711C725.301 368.711 740.047 371.25 753.133 376.328C766.219 381.211 777.84 387.949 787.996 396.543C798.152 405.137 806.746 415.195 813.777 426.719C821.004 438.242 826.961 450.449 831.648 463.34C836.336 476.23 839.754 489.609 841.902 503.477C844.051 517.344 845.125 530.82 845.125 543.906ZM743.172 553.574C743.172 549.082 742.977 543.516 742.586 536.875C742.391 530.039 741.805 522.91 740.828 515.488C739.852 508.066 738.484 500.645 736.727 493.223C735.164 485.801 733.016 479.16 730.281 473.301C727.547 467.441 724.129 462.656 720.027 458.945C716.121 455.234 711.434 453.379 705.965 453.379C700.691 453.379 696.102 455.137 692.195 458.652C688.289 462.168 684.871 466.758 681.941 472.422C679.207 478.086 676.863 484.531 674.91 491.758C673.152 498.789 671.688 505.918 670.516 513.145C669.539 520.176 668.758 527.012 668.172 533.652C667.781 540.098 667.586 545.566 667.586 550.059C667.586 556.504 668.074 564.316 669.051 573.496C670.027 582.676 671.883 591.465 674.617 599.863C677.352 608.262 681.062 615.488 685.75 621.543C690.633 627.402 696.98 630.332 704.793 630.332C712.215 630.332 718.367 627.598 723.25 622.129C728.328 616.66 732.332 610.02 735.262 602.207C738.191 594.199 740.242 585.801 741.414 577.012C742.586 568.223 743.172 560.41 743.172 553.574Z" fill="#FF3F00"/>
</svg>
