<svg width="1024" height="1024" viewBox="0 0 1024 1024" fill="none" xmlns="http://www.w3.org/2000/svg">
<path fill-rule="evenodd" clip-rule="evenodd" d="M780 0C928 0 1024 96 1024 244V780C1024 928 928 1024 780 1024H244C96 1024 0 928 0 780V244C0 96 96 0 244 0H780Z" fill="url(#paint0_radial_318_31)"/>
<path d="M830.485 335.599L770.323 395.769C767.935 398.157 764.064 398.157 761.676 395.769L746.791 380.884C744.403 378.496 744.403 374.625 746.79 372.238L787.744 331.275L763.737 307.268L746.791 290.323C744.403 287.935 744.403 284.064 746.791 281.676L761.676 266.791C764.064 264.403 767.935 264.403 770.323 266.791L810.8 307.268L830.484 326.952C832.872 329.34 832.872 333.211 830.485 335.599Z" fill="#A2BCFE"/>
<path d="M811.267 307.753L787.735 331.285L778.741 322.291L763.738 307.269L746.792 290.323C744.405 287.935 744.405 284.064 746.792 281.676L761.676 266.792C764.064 264.404 767.937 264.405 770.324 266.793L802.273 298.759L811.267 307.753Z" fill="#E2F4FE"/>
<path d="M893.209 335.599L833.048 395.769C830.66 398.157 826.788 398.157 824.401 395.769L809.515 380.884C807.128 378.496 807.128 374.625 809.515 372.238L850.469 331.275L826.461 307.268L809.516 290.323C807.128 287.935 807.128 284.064 809.516 281.676L824.401 266.791C826.788 264.403 830.66 264.403 833.047 266.791L873.525 307.268L893.209 326.952C895.597 329.34 895.597 333.211 893.209 335.599Z" fill="#E2F4FE"/>
<path d="M873.992 307.753L850.46 331.285L841.466 322.29L826.463 307.268L809.517 290.323C807.129 287.935 807.129 284.064 809.517 281.676L824.401 266.792C826.789 264.404 830.661 264.404 833.049 266.793L864.997 298.758L873.992 307.753Z" fill="#A2BCFE"/>
<path d="M280.511 599H226.511L241.511 528.25H210.761L195.761 599H141.761L175.511 440.25H229.761L215.011 509.25H245.511L260.261 440.25H314.761L280.511 599ZM460.515 459.25H420.265L390.515 599H336.515L366.265 459.25H326.515L331.015 440.25H464.765L460.515 459.25ZM599.187 459.25H558.937L529.187 599H475.187L504.937 459.25H465.187L469.687 440.25H603.437L599.187 459.25ZM665.858 530.5C670.858 530.5 675.025 528.417 678.358 524.25C681.858 520.083 684.692 515 686.858 509C689.192 503 690.858 496.75 691.858 490.25C692.858 483.75 693.358 478.083 693.358 473.25C693.358 468.75 692.608 465 691.108 462C689.608 458.833 686.358 457.25 681.358 457.25H670.108L654.358 530.5H665.858ZM650.858 546.5L639.608 599H585.608L619.358 440.25H677.108C686.608 440.25 695.275 440.75 703.108 441.75C710.942 442.75 717.692 444.75 723.358 447.75C729.025 450.75 733.442 455.083 736.608 460.75C739.775 466.25 741.358 473.667 741.358 483C741.358 491.667 739.942 499.917 737.108 507.75C734.442 515.417 730.025 522.167 723.858 528C717.858 533.667 710.025 538.167 700.358 541.5C690.692 544.833 678.942 546.5 665.108 546.5H650.858ZM834.011 486.25C834.511 483.75 834.761 480.333 834.761 476C834.761 473.5 834.594 471.083 834.261 468.75C833.927 466.25 833.344 464.083 832.511 462.25C831.677 460.25 830.427 458.75 828.761 457.75C827.094 456.583 824.927 456 822.261 456C819.261 456 816.511 456.667 814.011 458C811.511 459.333 809.261 461.083 807.261 463.25C805.427 465.25 803.927 467.667 802.761 470.5C801.761 473.167 801.261 476 801.261 479C801.261 483.333 802.344 486.667 804.511 489C806.844 491.333 809.844 493.25 813.511 494.75C817.177 496.25 821.344 497.5 826.011 498.5C830.677 499.5 835.511 500.667 840.511 502C844.677 503.167 848.844 504.667 853.011 506.5C857.177 508.333 860.844 510.833 864.011 514C867.344 517 870.011 521 872.011 526C874.011 530.833 875.011 536.917 875.011 544.25C875.011 554.75 872.927 563.583 868.761 570.75C864.594 577.917 858.844 583.75 851.511 588.25C844.177 592.75 835.427 596 825.261 598C815.261 600 804.344 601 792.511 601C780.511 601 770.677 600.25 763.011 598.75C755.511 597.083 749.594 595.333 745.261 593.5C740.094 591.333 736.261 588.833 733.761 586L742.261 551.75H786.261C786.094 553.25 785.927 555.333 785.761 558C785.594 560.5 785.511 562.5 785.511 564C785.511 566 785.761 568.083 786.261 570.25C786.761 572.417 787.511 574.417 788.511 576.25C789.677 578.083 791.261 579.583 793.261 580.75C795.261 581.917 797.761 582.5 800.761 582.5C804.094 582.5 807.011 581.75 809.511 580.25C812.177 578.75 814.344 576.917 816.011 574.75C817.844 572.417 819.177 569.917 820.011 567.25C821.011 564.417 821.511 561.667 821.511 559C821.511 555.333 820.594 552.25 818.761 549.75C817.094 547.25 814.761 545.167 811.761 543.5C808.761 541.667 805.261 540.167 801.261 539C797.427 537.667 793.427 536.333 789.261 535C785.261 533.833 781.011 532.417 776.511 530.75C772.177 529.083 768.177 526.75 764.511 523.75C760.844 520.75 757.761 517 755.261 512.5C752.927 507.833 751.761 501.917 751.761 494.75C751.761 484.083 754.427 475.167 759.761 468C765.261 460.667 772.094 454.75 780.261 450.25C788.594 445.75 797.677 442.583 807.511 440.75C817.344 438.75 826.677 437.75 835.511 437.75C847.177 437.75 857.177 439.167 865.511 442C874.011 444.667 880.427 447.833 884.761 451.5L875.511 486.25H834.011Z" fill="white"/>
<defs>
<radialGradient id="paint0_radial_318_31" cx="0" cy="0" r="1" gradientUnits="userSpaceOnUse" gradientTransform="translate(512 512) rotate(90) scale(512)">
<stop stop-color="#2450A4"/>
<stop offset="1" stop-color="#1841D4"/>
</radialGradient>
</defs>
</svg>
