<svg width="1024" height="1024" viewBox="0 0 1024 1024" fill="none" xmlns="http://www.w3.org/2000/svg">
<rect width="1024" height="1024" rx="200" fill="white"/>
<path fill-rule="evenodd" clip-rule="evenodd" d="M722.886 800.928C720.014 799.584 716.708 799.626 713.874 801.05C654.618 830.806 585.633 847.867 512 847.867C291.086 847.867 112 694.33 112 504.933C112 315.536 291.086 162 512 162C732.914 162 912 315.536 912 504.933C912 579.814 884.005 649.088 836.504 705.485C834.887 707.404 834 709.876 834.167 712.381C838.186 772.844 887.188 799.181 891.989 801.621C892.265 801.761 892.534 801.87 892.823 801.98C911.966 809.26 891.222 815.119 887.674 816.036C887.332 816.124 887.005 816.22 886.672 816.336C820.679 839.23 754.527 815.736 722.886 800.928Z" fill="#1993DA"/>
<path d="M345.78 568.08C345.56 571.6 344.9 575.56 343.58 578.86C342.92 580.4 341.82 581.94 340.72 582.82C339.18 584.14 337.42 585.02 335 585.24C330.82 586.56 327.08 585.9 323.78 584.36C315.64 579.3 316.74 568.96 316.52 561.26V544.1L316.3 510.44C316.3 500.98 316.3 501.86 316.08 491.52C316.08 490.64 316.3 489.98 315.86 480.3C292.98 518.36 287.92 524.3 279.56 524.96C274.72 525.4 269.88 519.9 267.24 516.6C260.2 507.8 251.18 495.92 241.72 478.32C241.5 479.42 241.28 571.82 240.4 572.04C240.4 581.94 230.5 590.52 218.4 584.14C214.66 581.72 212.68 576.66 212.24 572.92C212.02 568.96 211.8 565 211.8 561.04L212.02 543.88L212.24 510V480.52C212.24 467.76 212.68 455.22 213.56 442.9C213.56 439.82 214.44 436.96 215.54 434.32C216.64 432.12 217.96 430.36 220.16 429.04C222.36 427.72 224.78 427.06 227.2 427.06C229.18 427.06 231.16 427.28 232.92 427.5C238.86 428.6 242.82 436.08 246.56 440.04C251.18 445.32 257.56 456.1 261.08 461.82C268.78 474.14 274.5 484.7 279.78 491.96C281.32 490.2 285.06 484.7 286.16 482.5C292.32 473.04 297.38 465.34 307.06 449.28C311.24 442.46 320.48 427.28 329.94 427.06C332.14 427.06 333.9 427.28 335.66 427.5C337.64 427.72 339.18 428.6 340.72 429.92C341.82 431.02 342.7 432.12 343.36 433.66C343.8 435.2 344.24 436.96 344.46 438.5C344.68 440.48 344.9 442.24 344.9 444C344.9 460.28 345.34 476.56 345.34 492.84C345.34 512.64 345.56 534.64 345.56 554.44C345.56 558.62 346 563.46 345.78 568.08ZM469.735 434.98C471.275 436.74 472.155 438.72 472.155 440.92C472.155 442.68 471.935 444.66 471.715 446.2C471.275 447.74 470.395 449.28 468.855 450.82C467.535 451.7 465.775 452.36 464.015 452.8C462.035 453.46 460.055 453.68 457.635 454.12C455.655 454.34 453.455 454.34 451.255 454.34H440.035C434.755 454.56 429.695 454.56 424.635 454.56C425.075 472.6 424.415 494.6 424.415 543V559.72C424.415 561.04 424.415 561.92 424.635 563.02C424.635 564.12 424.635 565.22 424.415 566.54C424.195 567.86 423.975 569.4 423.755 571.16C423.755 572.48 423.315 573.8 422.875 575.34C422.215 576 421.995 576.44 421.995 576.66L421.335 577.98C420.455 579.74 418.915 581.06 417.155 582.16C414.075 583.7 410.335 584.14 406.375 583.26C403.955 583.04 401.975 582.38 400.655 581.28C399.335 579.96 398.455 578.86 397.795 577.32C396.915 575.56 396.475 574.24 396.255 572.7C395.815 571.38 395.595 569.62 395.595 568.52V455.44C392.075 455.44 370.515 455.22 366.555 454.56C364.795 454.34 360.175 453.68 357.975 453.02C354.675 452.14 352.475 450.82 350.715 448.84C349.175 447.08 348.295 444.88 348.295 442.46C348.295 440.7 348.295 438.94 348.735 437.4C349.175 435.86 350.275 434.32 352.255 433C353.355 432.12 356.215 430.58 358.635 429.92C360.395 429.26 362.815 428.82 365.235 428.6C367.655 428.38 369.855 428.38 372.495 428.38C382.835 428.38 391.635 428.38 401.755 428.16C418.695 427.94 435.635 428.16 452.355 428.6C456.095 428.82 459.615 429.26 463.135 430.8C465.775 431.68 468.195 433 469.735 434.98ZM581.427 568.96C581.648 570.72 581.868 572.26 581.868 574.24C581.868 576 581.427 577.54 580.327 579.08C579.447 580.4 577.908 581.94 575.928 582.82C572.187 585.02 568.448 585.68 564.268 585.02C562.508 584.58 560.528 583.7 558.768 582.16C558.328 581.72 557.887 581.5 557.668 581.06C557.448 580.84 557.007 580.18 556.568 579.96C555.248 578.64 554.368 577.1 553.488 575.78C552.827 574.46 552.168 573.14 551.288 571.6C550.628 570.5 549.967 569.4 549.747 568.3C549.308 567.2 548.867 565.88 548.648 564.78L544.028 554C524.008 554 503.547 554.22 483.527 554L478.908 564.78C478.467 565.88 478.247 567.2 477.807 568.3C477.368 569.4 476.927 570.5 476.267 571.6C475.387 573.14 474.727 574.46 473.847 575.78C473.187 577.1 472.307 578.64 470.987 579.96C470.547 580.18 470.107 580.84 469.887 581.06C469.667 581.5 469.227 581.72 468.787 582.16C467.027 583.7 465.047 584.58 463.287 585.02C459.107 585.68 455.367 585.02 451.627 582.82C449.647 581.94 448.107 580.4 447.227 579.08C446.127 577.54 445.687 576 445.687 574.24C445.687 572.26 445.907 570.72 446.127 568.96C446.347 567.64 446.787 566.1 447.227 565C447.667 563.68 447.887 563.24 447.887 563.02L493.648 450.38L494.967 446.86C495.628 445.1 496.508 443.78 497.168 441.8C497.827 440.04 498.487 438.5 499.588 436.74C500.467 434.98 501.788 433.44 502.887 432.12C503.987 430.8 505.308 429.92 506.627 429.26C510.808 427.72 516.747 427.72 520.928 429.26C522.247 429.92 523.568 430.8 524.668 432.12C525.768 433.44 526.867 434.98 527.968 436.74C529.068 438.5 529.728 440.04 530.387 441.8C531.048 443.78 531.927 445.1 532.588 446.86L533.908 450.38L579.668 563.02C579.668 563.24 579.888 563.68 580.327 565C580.768 566.1 581.208 567.64 581.427 568.96ZM533.248 524.74L529.288 515.06C525.548 506.7 521.588 497.46 517.187 488C516.088 485.36 514.767 482.5 513.667 479.86C512.788 482.5 511.468 485.36 510.368 488C505.967 497.46 502.007 506.7 498.268 515.06L494.307 524.74H533.248ZM685.756 567.2C686.196 568.74 686.196 572.04 686.196 573.8C686.196 576 685.096 578.2 683.776 579.96C682.236 581.94 680.476 583.04 678.056 583.92C674.756 585.02 671.456 585.68 668.156 585.68C664.856 585.9 661.336 585.9 657.816 586.34H656.936C645.496 586.56 634.056 586.56 621.956 586.34C610.516 585.9 590.276 589.42 585.656 576.88C585.216 575.56 584.776 574.02 584.776 572.7C583.676 562.8 584.336 553.12 584.336 543.66L584.776 511.76V482.28C584.776 471.72 584.996 464.46 585.216 454.56V453.46C585.436 450.6 585.656 447.52 585.656 444.66C585.876 441.58 586.536 438.72 588.076 436.08C588.956 433.88 590.496 432.12 592.696 430.8C594.676 429.48 597.096 428.82 599.516 428.82C601.496 428.82 603.476 429.04 605.236 429.26C606.996 429.48 608.536 430.58 610.296 431.9C611.176 432.78 612.056 434.1 612.716 435.64C613.156 436.96 613.596 438.72 613.816 440.48C614.036 442.46 614.476 444.22 614.476 445.98C614.036 447.74 614.036 449.5 614.036 451.04V455L613.156 558.62L656.716 559.06H667.056C668.816 559.06 671.016 559.28 672.996 559.5C675.196 559.72 676.956 560.16 678.716 560.6C680.476 561.04 681.796 561.92 682.676 562.8C684.436 564.34 685.316 565.66 685.756 567.2ZM794.864 568.08C795.964 570.28 796.184 572.26 795.084 574.68C794.424 576.88 793.324 578.64 791.344 579.96C789.584 581.28 788.264 582.38 786.504 583.04C784.744 583.92 782.984 584.14 780.784 583.92C779.024 583.92 777.704 583.26 776.164 582.38C774.624 581.5 772.864 580.4 771.544 579.3C769.784 577.76 768.244 576.66 767.144 575.34C765.824 573.8 764.504 572.26 763.404 571.16L760.764 568.3L718.524 524.08L719.184 568.3V570.28C719.184 571.38 718.744 572.92 718.524 574.24C718.084 576 717.644 577.54 716.984 579.3C716.544 581.06 715.224 582.16 714.124 583.26C712.584 584.58 710.604 585.46 708.404 585.68C704.004 587 700.484 586.56 696.744 584.8C695.204 583.92 693.884 582.38 692.784 580.4C692.564 579.96 692.344 579.52 692.124 579.3C692.124 578.86 691.904 578.42 691.684 577.76C690.804 576.22 690.364 574.68 690.364 573.36C690.144 571.6 689.924 570.28 689.704 568.52C689.484 567.42 689.484 566.1 689.484 565C689.704 563.68 689.704 562.58 689.704 561.26L689.484 543.88L689.264 511.54C689.264 502.08 689.044 491.96 688.604 481.18C688.384 470.62 688.384 463.36 688.604 453.24V452.36C689.044 449.28 689.044 445.98 689.264 443.12C689.264 440.04 689.924 437.18 691.244 434.32C692.124 432.12 693.664 430.36 695.864 429.04C698.064 427.72 700.264 427.28 702.904 426.84C704.884 426.84 706.864 427.28 708.624 427.5C710.384 427.72 712.144 428.38 713.904 429.92C714.784 430.8 715.664 431.9 716.104 433.66C716.984 434.98 717.424 436.74 717.644 438.72C717.864 440.48 718.084 442.24 718.084 444.22V453.24L718.304 480.08C722.924 475.9 727.544 471.5 731.944 466.66C739.864 458.52 747.564 450.6 755.484 443.12L756.144 442.46C758.564 440.26 760.984 437.84 763.404 435.86C765.384 433.66 768.244 431.68 771.544 430.58C773.744 429.26 776.164 428.82 778.804 429.04C781.444 429.26 783.644 430.36 785.624 431.68C787.164 433 788.704 434.1 789.584 435.42C790.904 436.52 791.564 438.28 791.784 440.04C791.784 441.58 791.564 442.9 790.904 444.44C790.024 445.76 789.144 447.52 788.044 448.84C786.724 450.6 785.624 452.14 784.084 453.46C782.984 455 781.444 456.1 780.344 457.42L777.484 460.28L736.344 502.3C745.364 511.32 756.144 522.32 761.204 527.6C769.124 535.74 776.384 543.88 783.424 552.02L784.084 552.68C786.284 555.1 788.484 557.52 790.244 559.94C792.444 562.36 793.984 565 794.864 568.08Z" fill="white"/>
</svg>
