<svg width="875" height="200" viewBox="0 0 875 200" fill="none" xmlns="http://www.w3.org/2000/svg">
<path d="M214.809 169H171.609L183.609 112.4H159.009L147.009 169H103.809L130.809 42H174.209L162.409 97.2H186.809L198.609 42H242.209L214.809 169ZM358.812 57.2H326.612L302.812 169H259.612L283.412 57.2H251.612L255.212 42H362.212L358.812 57.2ZM469.749 57.2H437.549L413.749 169H370.549L394.349 57.2H362.549L366.149 42H473.149L469.749 57.2ZM523.087 114.2C527.087 114.2 530.42 112.533 533.087 109.2C535.887 105.867 538.153 101.8 539.887 97C541.753 92.2 543.087 87.2 543.887 82C544.687 76.8 545.087 72.2667 545.087 68.4C545.087 64.8 544.487 61.8 543.287 59.4C542.087 56.8667 539.487 55.6 535.487 55.6H526.487L513.887 114.2H523.087ZM511.087 127L502.087 169H458.887L485.887 42H532.087C539.687 42 546.62 42.4 552.887 43.2C559.153 44 564.553 45.6 569.087 48C573.62 50.4 577.153 53.8667 579.687 58.4C582.22 62.8 583.487 68.7333 583.487 76.2C583.487 83.1333 582.353 89.7333 580.087 96C577.953 102.133 574.42 107.533 569.487 112.2C564.687 116.733 558.42 120.333 550.687 123C542.953 125.667 533.553 127 522.487 127H511.087ZM657.609 78.8C658.009 76.8 658.209 74.0667 658.209 70.6C658.209 68.6 658.075 66.6667 657.809 64.8C657.542 62.8 657.075 61.0667 656.409 59.6C655.742 58 654.742 56.8 653.409 56C652.075 55.0667 650.342 54.6 648.209 54.6C645.809 54.6 643.609 55.1333 641.609 56.2C639.609 57.2667 637.809 58.6667 636.209 60.4C634.742 62 633.542 63.9333 632.609 66.2C631.809 68.3333 631.409 70.6 631.409 73C631.409 76.4667 632.275 79.1333 634.009 81C635.875 82.8667 638.275 84.4 641.209 85.6C644.142 86.8 647.475 87.8 651.209 88.6C654.942 89.4 658.809 90.3333 662.809 91.4C666.142 92.3333 669.475 93.5333 672.809 95C676.142 96.4667 679.075 98.4667 681.609 101C684.275 103.4 686.409 106.6 688.009 110.6C689.609 114.467 690.409 119.333 690.409 125.2C690.409 133.6 688.742 140.667 685.409 146.4C682.075 152.133 677.475 156.8 671.609 160.4C665.742 164 658.742 166.6 650.609 168.2C642.609 169.8 633.875 170.6 624.409 170.6C614.809 170.6 606.942 170 600.809 168.8C594.809 167.467 590.075 166.067 586.609 164.6C582.475 162.867 579.409 160.867 577.409 158.6L584.209 131.2H619.409C619.275 132.4 619.142 134.067 619.009 136.2C618.875 138.2 618.809 139.8 618.809 141C618.809 142.6 619.009 144.267 619.409 146C619.809 147.733 620.409 149.333 621.209 150.8C622.142 152.267 623.409 153.467 625.009 154.4C626.609 155.333 628.609 155.8 631.009 155.8C633.675 155.8 636.009 155.2 638.009 154C640.142 152.8 641.875 151.333 643.209 149.6C644.675 147.733 645.742 145.733 646.409 143.6C647.209 141.333 647.609 139.133 647.609 137C647.609 134.067 646.875 131.6 645.409 129.6C644.075 127.6 642.209 125.933 639.809 124.6C637.409 123.133 634.609 121.933 631.409 121C628.342 119.933 625.142 118.867 621.809 117.8C618.609 116.867 615.209 115.733 611.609 114.4C608.142 113.067 604.942 111.2 602.009 108.8C599.075 106.4 596.609 103.4 594.609 99.8C592.742 96.0667 591.809 91.3333 591.809 85.6C591.809 77.0667 593.942 69.9333 598.209 64.2C602.609 58.3333 608.075 53.6 614.609 50C621.275 46.4 628.542 43.8667 636.409 42.4C644.275 40.8 651.742 40 658.809 40C668.142 40 676.142 41.1333 682.809 43.4C689.609 45.5333 694.742 48.0667 698.209 51L690.809 78.8H657.609Z" fill="white"/>
<path d="M810.395 106.599L750.296 166.769C747.911 169.157 744.044 169.157 741.658 166.769L726.789 151.884C724.404 149.496 724.404 145.625 726.789 143.238L767.699 102.275L743.717 78.2682L726.789 61.3226C724.404 58.9348 724.404 55.0636 726.789 52.6758L741.658 37.7909C744.044 35.403 747.911 35.403 750.296 37.7909L790.731 78.2682L810.394 97.9524C812.779 100.34 812.779 104.211 810.395 106.599Z" fill="#A2BCFE"/>
<path d="M791.197 78.7535L767.69 102.285L758.705 93.2907L743.718 78.2686L726.79 61.323C724.405 58.9352 724.405 55.064 726.79 52.6762L741.659 37.7923C744.044 35.4042 747.912 35.4045 750.297 37.7934L782.212 69.7587L791.197 78.7535Z" fill="#E2F4FE"/>
<path d="M873.053 106.599L812.955 166.769C810.57 169.157 806.702 169.157 804.317 166.769L789.448 151.884C787.063 149.496 787.062 145.625 789.447 143.238L830.358 102.275L806.376 78.2682L789.448 61.3226C787.063 58.9348 787.063 55.0636 789.448 52.6758L804.317 37.7909C806.702 35.403 810.57 35.403 812.955 37.7909L853.389 78.2682L873.053 97.9524C875.438 100.34 875.438 104.211 873.053 106.599Z" fill="#E2F4FE"/>
<path d="M853.856 78.7531L830.349 102.285L821.364 93.2904L806.377 78.2682L789.449 61.3227C787.064 58.9349 787.064 55.0637 789.449 52.6759L804.317 37.7919C806.703 35.4038 810.571 35.4041 812.956 37.793L844.871 69.7583L853.856 78.7531Z" fill="#A2BCFE"/>
</svg>
