<svg width="965" height="361" viewBox="0 0 965 361" fill="none" xmlns="http://www.w3.org/2000/svg">
<path d="M309.002 259V96H338.002L394.202 187.2L450.402 96H479.402V259H443.002V169.6L405.202 232.2H383.202L345.402 169.6V259H309.002ZM641.42 96V128.2H588.42V259H552.02V128.2H499.02V96H641.42ZM683.025 261.8C649.425 261.8 626.025 236 626.025 200.4C626.025 164.8 649.425 139 683.025 139C698.425 139 709.625 144.4 716.625 153.8V141.8H752.225V259H716.625V247C709.625 256.4 698.425 261.8 683.025 261.8ZM688.625 231.4C706.025 231.4 717.225 218.4 717.225 200.4C717.225 182.4 706.025 169.4 688.625 169.4C671.625 169.4 660.825 182.4 660.825 200.4C660.825 218.4 671.625 231.4 688.625 231.4ZM814.695 91V259H779.095V91H814.695ZM919.8 259L891.2 216L877 232V259H841.4V91H877V189.6L918.4 141.8H958L913 191.8L960.4 259H919.8Z" fill="white"/>
<path fill-rule="evenodd" clip-rule="evenodd" d="M186.496 267.107C183.569 265.885 180.259 265.911 177.386 267.255C160.339 275.228 140.787 279.76 120 279.76C53.7257 279.76 0 233.699 0 176.88C0 120.061 53.7257 74 120 74C186.274 74 240 120.061 240 176.88C240 198.418 232.28 218.41 219.084 234.933C217.517 236.894 216.573 239.344 216.939 241.827C219.208 257.221 231.306 264.441 233.699 265.73C233.971 265.877 234.263 265.996 234.55 266.113C239.324 268.062 234.683 269.651 233.063 270.112C232.724 270.209 232.384 270.308 232.05 270.421C214.396 276.399 196.753 271.39 186.496 267.107Z" fill="#1993DA"/>
<path d="M75.185 197.91C75.12 198.95 74.925 200.12 74.535 201.095C74.34 201.55 74.015 202.005 73.69 202.265C73.235 202.655 72.715 202.915 72 202.98C70.765 203.37 69.66 203.175 68.685 202.72C66.28 201.225 66.605 198.17 66.54 195.895V190.825L66.475 180.88C66.475 178.085 66.475 178.345 66.41 175.29C66.41 175.03 66.475 174.835 66.345 171.975C59.585 183.22 58.09 184.975 55.62 185.17C54.19 185.3 52.76 183.675 51.98 182.7C49.9 180.1 47.235 176.59 44.44 171.39C44.375 171.715 44.31 199.015 44.05 199.08C44.05 202.005 41.125 204.54 37.55 202.655C36.445 201.94 35.86 200.445 35.73 199.34C35.665 198.17 35.6 197 35.6 195.83L35.665 190.76L35.73 180.75V172.04C35.73 168.27 35.86 164.565 36.12 160.925C36.12 160.015 36.38 159.17 36.705 158.39C37.03 157.74 37.42 157.22 38.07 156.83C38.72 156.44 39.435 156.245 40.15 156.245C40.735 156.245 41.32 156.31 41.84 156.375C43.595 156.7 44.765 158.91 45.87 160.08C47.235 161.64 49.12 164.825 50.16 166.515C52.435 170.155 54.125 173.275 55.685 175.42C56.14 174.9 57.245 173.275 57.57 172.625C59.39 169.83 60.885 167.555 63.745 162.81C64.98 160.795 67.71 156.31 70.505 156.245C71.155 156.245 71.675 156.31 72.195 156.375C72.78 156.44 73.235 156.7 73.69 157.09C74.015 157.415 74.275 157.74 74.47 158.195C74.6 158.65 74.73 159.17 74.795 159.625C74.86 160.21 74.925 160.73 74.925 161.25C74.925 166.06 75.055 170.87 75.055 175.68C75.055 181.53 75.12 188.03 75.12 193.88C75.12 195.115 75.25 196.545 75.185 197.91ZM111.808 158.585C112.263 159.105 112.523 159.69 112.523 160.34C112.523 160.86 112.458 161.445 112.393 161.9C112.263 162.355 112.003 162.81 111.548 163.265C111.158 163.525 110.638 163.72 110.118 163.85C109.533 164.045 108.948 164.11 108.233 164.24C107.648 164.305 106.998 164.305 106.348 164.305H103.033C101.473 164.37 99.9779 164.37 98.4829 164.37C98.6129 169.7 98.4179 176.2 98.4179 190.5V195.44C98.4179 195.83 98.4179 196.09 98.4829 196.415C98.4829 196.74 98.4829 197.065 98.4179 197.455C98.3529 197.845 98.2879 198.3 98.2229 198.82C98.2229 199.21 98.0929 199.6 97.9629 200.055C97.7679 200.25 97.7029 200.38 97.7029 200.445L97.5079 200.835C97.2479 201.355 96.7929 201.745 96.2729 202.07C95.3629 202.525 94.2579 202.655 93.0879 202.395C92.3729 202.33 91.7879 202.135 91.3979 201.81C91.0079 201.42 90.7479 201.095 90.5529 200.64C90.2929 200.12 90.1629 199.73 90.0979 199.275C89.9679 198.885 89.9029 198.365 89.9029 198.04V164.63C88.8629 164.63 82.4929 164.565 81.3229 164.37C80.8029 164.305 79.4379 164.11 78.7879 163.915C77.8129 163.655 77.1629 163.265 76.6429 162.68C76.1879 162.16 75.9279 161.51 75.9279 160.795C75.9279 160.275 75.9279 159.755 76.0579 159.3C76.1879 158.845 76.5129 158.39 77.0979 158C77.4229 157.74 78.2679 157.285 78.9829 157.09C79.5029 156.895 80.2179 156.765 80.9329 156.7C81.6479 156.635 82.2979 156.635 83.0779 156.635C86.1329 156.635 88.7329 156.635 91.7229 156.57C96.7279 156.505 101.733 156.57 106.673 156.7C107.778 156.765 108.818 156.895 109.858 157.35C110.638 157.61 111.353 158 111.808 158.585ZM144.808 198.17C144.873 198.69 144.938 199.145 144.938 199.73C144.938 200.25 144.808 200.705 144.483 201.16C144.223 201.55 143.768 202.005 143.183 202.265C142.078 202.915 140.973 203.11 139.738 202.915C139.218 202.785 138.633 202.525 138.113 202.07C137.983 201.94 137.853 201.875 137.788 201.745C137.723 201.68 137.593 201.485 137.463 201.42C137.073 201.03 136.813 200.575 136.553 200.185C136.358 199.795 136.163 199.405 135.903 198.95C135.708 198.625 135.513 198.3 135.448 197.975C135.318 197.65 135.188 197.26 135.123 196.935L133.758 193.75C127.843 193.75 121.798 193.815 115.883 193.75L114.518 196.935C114.388 197.26 114.323 197.65 114.193 197.975C114.063 198.3 113.933 198.625 113.738 198.95C113.478 199.405 113.283 199.795 113.023 200.185C112.828 200.575 112.568 201.03 112.178 201.42C112.048 201.485 111.918 201.68 111.853 201.745C111.788 201.875 111.658 201.94 111.528 202.07C111.008 202.525 110.423 202.785 109.903 202.915C108.668 203.11 107.563 202.915 106.458 202.265C105.873 202.005 105.418 201.55 105.158 201.16C104.833 200.705 104.703 200.25 104.703 199.73C104.703 199.145 104.768 198.69 104.833 198.17C104.898 197.78 105.028 197.325 105.158 197C105.288 196.61 105.353 196.48 105.353 196.415L118.873 163.135L119.263 162.095C119.458 161.575 119.718 161.185 119.913 160.6C120.108 160.08 120.303 159.625 120.628 159.105C120.888 158.585 121.278 158.13 121.603 157.74C121.928 157.35 122.318 157.09 122.708 156.895C123.943 156.44 125.698 156.44 126.933 156.895C127.323 157.09 127.713 157.35 128.038 157.74C128.363 158.13 128.688 158.585 129.013 159.105C129.338 159.625 129.533 160.08 129.728 160.6C129.923 161.185 130.183 161.575 130.378 162.095L130.768 163.135L144.288 196.415C144.288 196.48 144.353 196.61 144.483 197C144.613 197.325 144.743 197.78 144.808 198.17ZM130.573 185.105L129.403 182.245C128.298 179.775 127.128 177.045 125.828 174.25C125.503 173.47 125.113 172.625 124.788 171.845C124.528 172.625 124.138 173.47 123.813 174.25C122.513 177.045 121.343 179.775 120.238 182.245L119.068 185.105H130.573ZM175.632 197.65C175.762 198.105 175.762 199.08 175.762 199.6C175.762 200.25 175.437 200.9 175.047 201.42C174.592 202.005 174.072 202.33 173.357 202.59C172.382 202.915 171.407 203.11 170.432 203.11C169.457 203.175 168.417 203.175 167.377 203.305H167.117C163.737 203.37 160.357 203.37 156.782 203.305C153.402 203.175 147.422 204.215 146.057 200.51C145.927 200.12 145.797 199.665 145.797 199.275C145.472 196.35 145.667 193.49 145.667 190.695L145.797 181.27V172.56C145.797 169.44 145.862 167.295 145.927 164.37V164.045C145.992 163.2 146.057 162.29 146.057 161.445C146.122 160.535 146.317 159.69 146.772 158.91C147.032 158.26 147.487 157.74 148.137 157.35C148.722 156.96 149.437 156.765 150.152 156.765C150.737 156.765 151.322 156.83 151.842 156.895C152.362 156.96 152.817 157.285 153.337 157.675C153.597 157.935 153.857 158.325 154.052 158.78C154.182 159.17 154.312 159.69 154.377 160.21C154.442 160.795 154.572 161.315 154.572 161.835C154.442 162.355 154.442 162.875 154.442 163.33V164.5L154.182 195.115L167.052 195.245H170.107C170.627 195.245 171.277 195.31 171.862 195.375C172.512 195.44 173.032 195.57 173.552 195.7C174.072 195.83 174.462 196.09 174.722 196.35C175.242 196.805 175.502 197.195 175.632 197.65ZM207.869 197.91C208.194 198.56 208.259 199.145 207.934 199.86C207.739 200.51 207.414 201.03 206.829 201.42C206.309 201.81 205.919 202.135 205.399 202.33C204.879 202.59 204.359 202.655 203.709 202.59C203.189 202.59 202.799 202.395 202.344 202.135C201.889 201.875 201.369 201.55 200.979 201.225C200.459 200.77 200.004 200.445 199.679 200.055C199.289 199.6 198.899 199.145 198.574 198.82L197.794 197.975L185.314 184.91L185.509 197.975V198.56C185.509 198.885 185.379 199.34 185.314 199.73C185.184 200.25 185.054 200.705 184.859 201.225C184.729 201.745 184.339 202.07 184.014 202.395C183.559 202.785 182.974 203.045 182.324 203.11C181.024 203.5 179.984 203.37 178.879 202.85C178.424 202.59 178.034 202.135 177.709 201.55C177.644 201.42 177.579 201.29 177.514 201.225C177.514 201.095 177.449 200.965 177.384 200.77C177.124 200.315 176.994 199.86 176.994 199.47C176.929 198.95 176.864 198.56 176.799 198.04C176.734 197.715 176.734 197.325 176.734 197C176.799 196.61 176.799 196.285 176.799 195.895L176.734 190.76L176.669 181.205C176.669 178.41 176.604 175.42 176.474 172.235C176.409 169.115 176.409 166.97 176.474 163.98V163.72C176.604 162.81 176.604 161.835 176.669 160.99C176.669 160.08 176.864 159.235 177.254 158.39C177.514 157.74 177.969 157.22 178.619 156.83C179.269 156.44 179.919 156.31 180.699 156.18C181.284 156.18 181.869 156.31 182.389 156.375C182.909 156.44 183.429 156.635 183.949 157.09C184.209 157.35 184.469 157.675 184.599 158.195C184.859 158.585 184.989 159.105 185.054 159.69C185.119 160.21 185.184 160.73 185.184 161.315V163.98L185.249 171.91C186.614 170.675 187.979 169.375 189.279 167.945C191.619 165.54 193.894 163.2 196.234 160.99L196.429 160.795C197.144 160.145 197.859 159.43 198.574 158.845C199.159 158.195 200.004 157.61 200.979 157.285C201.629 156.895 202.344 156.765 203.124 156.83C203.904 156.895 204.554 157.22 205.139 157.61C205.594 158 206.049 158.325 206.309 158.715C206.699 159.04 206.894 159.56 206.959 160.08C206.959 160.535 206.894 160.925 206.699 161.38C206.439 161.77 206.179 162.29 205.854 162.68C205.464 163.2 205.139 163.655 204.684 164.045C204.359 164.5 203.904 164.825 203.579 165.215L202.734 166.06L190.579 178.475C193.244 181.14 196.429 184.39 197.924 185.95C200.264 188.355 202.409 190.76 204.489 193.165L204.684 193.36C205.334 194.075 205.984 194.79 206.504 195.505C207.154 196.22 207.609 197 207.869 197.91Z" fill="white"/>
</svg>
