<svg width="565" height="137" viewBox="0 0 565 137" fill="none" xmlns="http://www.w3.org/2000/svg">
<path d="M125.205 38.2C125.205 46.0667 123.005 53.3333 118.605 60C114.205 66.6667 106.939 71.7333 96.8055 75.2L120.005 135H75.4055L57.8055 79.6H55.6055L43.8055 135H0.605469L27.6055 7.99999H80.2055C86.3388 7.99999 92.1388 8.39999 97.6055 9.2C103.072 9.86666 107.805 11.3333 111.805 13.6C115.939 15.7333 119.205 18.8 121.605 22.8C124.005 26.6667 125.205 31.8 125.205 38.2ZM67.6055 66.8C71.0721 66.8 74.0055 65.6667 76.4055 63.4C78.9388 61 80.9388 58.1333 82.4055 54.8C84.0055 51.4667 85.1388 47.9333 85.8055 44.2C86.4721 40.3333 86.8055 37 86.8055 34.2C86.8055 30.7333 86.2055 27.8 85.0055 25.4C83.8055 22.8667 81.2055 21.6 77.2055 21.6H68.2055L58.2055 66.8H67.6055ZM167.252 94.8C166.719 97.7333 166.319 100.533 166.052 103.2C165.919 105.867 165.852 108.267 165.852 110.4C165.852 111.6 165.919 112.933 166.052 114.4C166.186 115.867 166.452 117.267 166.852 118.6C167.386 119.8 168.052 120.867 168.852 121.8C169.786 122.6 171.052 123 172.652 123C173.852 123 175.186 122.6 176.652 121.8C178.252 121 179.786 119.867 181.252 118.4C182.852 116.933 184.319 115.133 185.652 113C187.119 110.867 188.252 108.467 189.052 105.8H221.852L216.652 127.2C213.986 128.933 210.919 130.4 207.452 131.6C203.986 132.8 200.319 133.8 196.452 134.6C192.586 135.267 188.652 135.733 184.652 136C180.652 136.4 176.852 136.6 173.252 136.6C166.586 136.6 160.386 136 154.652 134.8C148.919 133.6 143.919 131.533 139.652 128.6C135.386 125.667 131.986 121.8 129.452 117C127.052 112.067 125.852 106 125.852 98.8C125.852 92.2667 126.852 85.8667 128.852 79.6C130.986 73.3333 134.452 67.8 139.252 63C144.186 58.0667 150.719 54.1333 158.852 51.2C167.119 48.2667 177.386 46.8 189.652 46.8C202.986 46.8 212.986 48.8667 219.652 53C226.452 57.1333 229.852 63.6 229.852 72.4C229.852 76 229.319 79.9333 228.252 84.2C227.186 88.3333 225.586 91.8667 223.452 94.8H167.252ZM193.852 71C193.852 66.8667 193.186 64.0667 191.852 62.6C190.519 61.1333 188.919 60.4 187.052 60.4C184.919 60.4 182.919 61.1333 181.052 62.6C179.319 63.9333 177.719 65.8 176.252 68.2C174.786 70.4667 173.452 73.1333 172.252 76.2C171.052 79.1333 170.052 82.2667 169.252 85.6H192.052C192.319 84 192.586 82.3333 192.852 80.6C193.119 79.1333 193.319 77.5333 193.452 75.8C193.719 74.0667 193.852 72.4667 193.852 71ZM316.227 0.59999H357.227L328.627 135H296.227L292.627 122.2H291.227C290.427 123.4 289.161 124.867 287.427 126.6C285.827 128.2 283.761 129.8 281.227 131.4C278.694 132.867 275.694 134.067 272.227 135C268.761 136.067 264.761 136.6 260.227 136.6C255.561 136.6 251.561 135.933 248.227 134.6C245.027 133.133 242.361 131.2 240.227 128.8C238.227 126.4 236.761 123.533 235.827 120.2C234.894 116.733 234.427 113 234.427 109C234.427 107.267 234.561 104.533 234.827 100.8C235.094 96.9333 235.694 92.7333 236.627 88.2C237.694 83.5333 239.161 78.8 241.027 74C243.027 69.0667 245.627 64.6 248.827 60.6C252.161 56.6 256.227 53.3333 261.027 50.8C265.827 48.1333 271.627 46.8 278.427 46.8C280.561 46.8 282.827 47 285.227 47.4C287.627 47.8 289.894 48.5333 292.027 49.6C294.294 50.6667 296.294 52.2 298.027 54.2C299.761 56.2 301.027 58.8 301.827 62H303.227L316.227 0.59999ZM291.827 66.4C288.627 66.4 285.961 68.2 283.827 71.8C281.694 75.2667 279.961 79.3333 278.627 84C277.294 88.6667 276.294 93.3333 275.627 98C275.094 102.667 274.827 106.133 274.827 108.4C274.827 111.067 275.227 113.333 276.027 115.2C276.827 116.933 278.361 117.8 280.627 117.8C281.961 117.8 283.227 117.533 284.427 117C285.761 116.333 286.961 115.6 288.027 114.8C289.227 113.867 290.227 112.933 291.027 112C291.827 111.067 292.494 110.267 293.027 109.6L300.827 73.2C299.894 71.7333 298.627 70.2667 297.027 68.8C295.561 67.2 293.827 66.4 291.827 66.4ZM392.057 94.8C391.524 97.7333 391.124 100.533 390.857 103.2C390.724 105.867 390.657 108.267 390.657 110.4C390.657 111.6 390.724 112.933 390.857 114.4C390.99 115.867 391.257 117.267 391.657 118.6C392.19 119.8 392.857 120.867 393.657 121.8C394.59 122.6 395.857 123 397.457 123C398.657 123 399.99 122.6 401.457 121.8C403.057 121 404.59 119.867 406.057 118.4C407.657 116.933 409.124 115.133 410.457 113C411.924 110.867 413.057 108.467 413.857 105.8H446.657L441.457 127.2C438.79 128.933 435.724 130.4 432.257 131.6C428.79 132.8 425.124 133.8 421.257 134.6C417.39 135.267 413.457 135.733 409.457 136C405.457 136.4 401.657 136.6 398.057 136.6C391.39 136.6 385.19 136 379.457 134.8C373.724 133.6 368.724 131.533 364.457 128.6C360.19 125.667 356.79 121.8 354.257 117C351.857 112.067 350.657 106 350.657 98.8C350.657 92.2667 351.657 85.8667 353.657 79.6C355.79 73.3333 359.257 67.8 364.057 63C368.99 58.0667 375.524 54.1333 383.657 51.2C391.924 48.2667 402.19 46.8 414.457 46.8C427.79 46.8 437.79 48.8667 444.457 53C451.257 57.1333 454.657 63.6 454.657 72.4C454.657 76 454.124 79.9333 453.057 84.2C451.99 88.3333 450.39 91.8667 448.257 94.8H392.057ZM418.657 71C418.657 66.8667 417.99 64.0667 416.657 62.6C415.324 61.1333 413.724 60.4 411.857 60.4C409.724 60.4 407.724 61.1333 405.857 62.6C404.124 63.9333 402.524 65.8 401.057 68.2C399.59 70.4667 398.257 73.1333 397.057 76.2C395.857 79.1333 394.857 82.2667 394.057 85.6H416.857C417.124 84 417.39 82.3333 417.657 80.6C417.924 79.1333 418.124 77.5333 418.257 75.8C418.524 74.0667 418.657 72.4667 418.657 71ZM463.67 49H506.07L514.27 107.8L543.47 49H564.67L519.27 135H477.47L463.67 49Z" fill="black"/>
</svg>
